G75*
G70*
%OFA0B0*%
%FSLAX24Y24*%
%IPPOS*%
%LPD*%
%AMOC8*
5,1,8,0,0,1.08239X$1,22.5*
%
%ADD10C,0.0000*%
%ADD11C,0.0001*%
%ADD12C,0.0040*%
%ADD13C,0.0030*%
D10*
X019322Y019350D02*
X019471Y019304D01*
X019631Y019288D01*
X019631Y019566D01*
X019527Y019576D01*
X019430Y019606D01*
X019343Y019654D01*
X019266Y019717D01*
X019203Y019793D01*
X019156Y019881D01*
X019126Y019978D01*
X019115Y020082D01*
X019126Y020186D01*
X019156Y020282D01*
X019203Y020370D01*
X019266Y020446D01*
X019343Y020509D01*
X019430Y020557D01*
X019527Y020587D01*
X019631Y020597D01*
X019735Y020587D01*
X019832Y020557D01*
X019919Y020509D01*
X019996Y020446D01*
X020059Y020370D01*
X020106Y020282D01*
X020136Y020186D01*
X020147Y020082D01*
X020136Y019978D01*
X020106Y019881D01*
X020059Y019793D01*
X019996Y019717D01*
X019919Y019654D01*
X019832Y019606D01*
X019735Y019576D01*
X019631Y019566D01*
X019631Y019288D01*
X019791Y019304D01*
X019940Y019350D01*
X020075Y019423D01*
X020192Y019520D01*
X020289Y019638D01*
X020362Y019773D01*
X020408Y019922D01*
X020425Y020082D01*
X020408Y020241D01*
X020362Y020390D01*
X020289Y020525D01*
X020192Y020643D01*
X020075Y020740D01*
X019940Y020813D01*
X019791Y020859D01*
X019631Y020875D01*
X019471Y020859D01*
X019322Y020813D01*
X019187Y020740D01*
X019070Y020643D01*
X018973Y020525D01*
X018900Y020390D01*
X018853Y020241D01*
X018837Y020082D01*
X018853Y019922D01*
X018900Y019773D01*
X018973Y019638D01*
X019070Y019520D01*
X019187Y019423D01*
X019322Y019350D01*
X019453Y019699D02*
X019403Y019726D01*
X019360Y019761D01*
X019327Y019804D01*
X019305Y019856D01*
X019298Y019918D01*
X019302Y019965D01*
X019315Y020006D01*
X019334Y020042D01*
X019360Y020072D01*
X019424Y020119D01*
X019499Y020154D01*
X019669Y020214D01*
X019689Y020227D01*
X019703Y020242D01*
X019707Y020259D01*
X019705Y020273D01*
X019698Y020284D01*
X019687Y020294D01*
X019674Y020301D01*
X019645Y020311D01*
X019618Y020314D01*
X019565Y020308D01*
X019518Y020292D01*
X019431Y020237D01*
X019305Y020385D01*
X019375Y020431D01*
X019452Y020465D01*
X019533Y020485D01*
X019617Y020492D01*
X019730Y020477D01*
X019783Y020457D01*
X019832Y020430D01*
X019874Y020395D01*
X019907Y020351D01*
X019928Y020300D01*
X019936Y020240D01*
X019932Y020198D01*
X019921Y020161D01*
X019903Y020129D01*
X019881Y020100D01*
X019823Y020054D01*
X019545Y019935D01*
X019530Y019920D01*
X019524Y019903D01*
X019528Y019887D01*
X019536Y019874D01*
X019549Y019864D01*
X019565Y019857D01*
X019600Y019849D01*
X019630Y019847D01*
X019687Y019854D01*
X019738Y019874D01*
X019785Y019903D01*
X019828Y019940D01*
X019973Y019801D01*
X019895Y019742D01*
X019811Y019699D01*
X019720Y019674D01*
X019623Y019665D01*
X019507Y019680D01*
X019453Y019699D01*
D11*
X019809Y019699D01*
X019812Y019700D02*
X019451Y019700D01*
X019450Y019700D02*
X019814Y019700D01*
X019815Y019701D02*
X019448Y019701D01*
X019446Y019702D02*
X019817Y019702D01*
X019819Y019703D02*
X019444Y019703D01*
X019443Y019704D02*
X019821Y019704D01*
X019823Y019705D02*
X019441Y019705D01*
X019439Y019706D02*
X019825Y019706D01*
X019827Y019707D02*
X019437Y019707D01*
X019436Y019708D02*
X019829Y019708D01*
X019830Y019709D02*
X019434Y019709D01*
X019432Y019710D02*
X019832Y019710D01*
X019834Y019711D02*
X019430Y019711D01*
X019429Y019712D02*
X019836Y019712D01*
X019838Y019713D02*
X019427Y019713D01*
X019425Y019714D02*
X019840Y019714D01*
X019842Y019715D02*
X019423Y019715D01*
X019422Y019716D02*
X019844Y019716D01*
X019845Y019717D02*
X019420Y019717D01*
X019418Y019717D02*
X019847Y019717D01*
X019849Y019718D02*
X019416Y019718D01*
X019415Y019719D02*
X019851Y019719D01*
X019853Y019720D02*
X019413Y019720D01*
X019411Y019721D02*
X019855Y019721D01*
X019857Y019722D02*
X019409Y019722D01*
X019407Y019723D02*
X019859Y019723D01*
X019860Y019724D02*
X019406Y019724D01*
X019404Y019725D02*
X019862Y019725D01*
X019864Y019726D02*
X019402Y019726D01*
X019401Y019727D02*
X019866Y019727D01*
X019868Y019728D02*
X019400Y019728D01*
X019399Y019729D02*
X019870Y019729D01*
X019872Y019730D02*
X019398Y019730D01*
X019397Y019731D02*
X019874Y019731D01*
X019875Y019732D02*
X019396Y019732D01*
X019394Y019733D02*
X019877Y019733D01*
X019879Y019734D02*
X019393Y019734D01*
X019392Y019734D02*
X019881Y019734D01*
X019883Y019735D02*
X019391Y019735D01*
X019390Y019736D02*
X019885Y019736D01*
X019887Y019737D02*
X019389Y019737D01*
X019387Y019738D02*
X019889Y019738D01*
X019890Y019739D02*
X019386Y019739D01*
X019385Y019740D02*
X019892Y019740D01*
X019894Y019741D02*
X019384Y019741D01*
X019383Y019742D02*
X019896Y019742D01*
X019897Y019743D02*
X019382Y019743D01*
X019381Y019744D02*
X019898Y019744D01*
X019900Y019745D02*
X019379Y019745D01*
X019378Y019746D02*
X019901Y019746D01*
X019902Y019747D02*
X019377Y019747D01*
X019376Y019748D02*
X019903Y019748D01*
X019904Y019749D02*
X019375Y019749D01*
X019374Y019750D02*
X019906Y019750D01*
X019907Y019751D02*
X019373Y019751D01*
X019371Y019751D02*
X019908Y019751D01*
X019909Y019752D02*
X019370Y019752D01*
X019369Y019753D02*
X019911Y019753D01*
X019912Y019754D02*
X019368Y019754D01*
X019367Y019755D02*
X019913Y019755D01*
X019914Y019756D02*
X019366Y019756D01*
X019364Y019757D02*
X019916Y019757D01*
X019917Y019758D02*
X019363Y019758D01*
X019362Y019759D02*
X019918Y019759D01*
X019919Y019760D02*
X019361Y019760D01*
X019360Y019761D02*
X019921Y019761D01*
X019922Y019762D02*
X019359Y019762D01*
X019359Y019763D02*
X019923Y019763D01*
X019924Y019764D02*
X019358Y019764D01*
X019357Y019765D02*
X019926Y019765D01*
X019927Y019766D02*
X019356Y019766D01*
X019356Y019767D02*
X019928Y019767D01*
X019929Y019768D02*
X019355Y019768D01*
X019354Y019769D02*
X019930Y019769D01*
X019932Y019769D02*
X019353Y019769D01*
X019353Y019770D02*
X019933Y019770D01*
X019934Y019771D02*
X019352Y019771D01*
X019351Y019772D02*
X019935Y019772D01*
X019937Y019773D02*
X019351Y019773D01*
X019350Y019774D02*
X019938Y019774D01*
X019939Y019775D02*
X019349Y019775D01*
X019348Y019776D02*
X019940Y019776D01*
X019942Y019777D02*
X019348Y019777D01*
X019347Y019778D02*
X019943Y019778D01*
X019944Y019779D02*
X019346Y019779D01*
X019346Y019780D02*
X019945Y019780D01*
X019947Y019781D02*
X019345Y019781D01*
X019344Y019782D02*
X019948Y019782D01*
X019949Y019783D02*
X019343Y019783D01*
X019343Y019784D02*
X019950Y019784D01*
X019951Y019785D02*
X019342Y019785D01*
X019341Y019786D02*
X019953Y019786D01*
X019954Y019786D02*
X019340Y019786D01*
X019340Y019787D02*
X019955Y019787D01*
X019956Y019788D02*
X019339Y019788D01*
X019338Y019789D02*
X019958Y019789D01*
X019959Y019790D02*
X019338Y019790D01*
X019337Y019791D02*
X019960Y019791D01*
X019961Y019792D02*
X019336Y019792D01*
X019335Y019793D02*
X019963Y019793D01*
X019964Y019794D02*
X019335Y019794D01*
X019334Y019795D02*
X019965Y019795D01*
X019966Y019796D02*
X019333Y019796D01*
X019332Y019797D02*
X019968Y019797D01*
X019969Y019798D02*
X019332Y019798D01*
X019331Y019799D02*
X019970Y019799D01*
X019971Y019800D02*
X019330Y019800D01*
X019330Y019801D02*
X019973Y019801D01*
X019973Y019802D02*
X019329Y019802D01*
X019328Y019803D02*
X019972Y019803D01*
X019971Y019803D02*
X019327Y019803D01*
X019327Y019804D02*
X019970Y019804D01*
X019969Y019805D02*
X019326Y019805D01*
X019326Y019806D02*
X019968Y019806D01*
X019967Y019807D02*
X019326Y019807D01*
X019325Y019808D02*
X019966Y019808D01*
X019965Y019809D02*
X019325Y019809D01*
X019324Y019810D02*
X019964Y019810D01*
X019963Y019811D02*
X019324Y019811D01*
X019324Y019812D02*
X019962Y019812D01*
X019961Y019813D02*
X019323Y019813D01*
X019323Y019814D02*
X019960Y019814D01*
X019959Y019815D02*
X019322Y019815D01*
X019322Y019816D02*
X019958Y019816D01*
X019957Y019817D02*
X019322Y019817D01*
X019321Y019818D02*
X019956Y019818D01*
X019955Y019819D02*
X019321Y019819D01*
X019321Y019820D02*
X019954Y019820D01*
X019953Y019820D02*
X019320Y019820D01*
X019320Y019821D02*
X019952Y019821D01*
X019951Y019822D02*
X019319Y019822D01*
X019319Y019823D02*
X019950Y019823D01*
X019949Y019824D02*
X019319Y019824D01*
X019318Y019825D02*
X019948Y019825D01*
X019947Y019826D02*
X019318Y019826D01*
X019317Y019827D02*
X019946Y019827D01*
X019945Y019828D02*
X019317Y019828D01*
X019317Y019829D02*
X019944Y019829D01*
X019943Y019830D02*
X019316Y019830D01*
X019316Y019831D02*
X019942Y019831D01*
X019941Y019832D02*
X019315Y019832D01*
X019315Y019833D02*
X019940Y019833D01*
X019939Y019834D02*
X019315Y019834D01*
X019314Y019835D02*
X019939Y019835D01*
X019938Y019836D02*
X019314Y019836D01*
X019314Y019837D02*
X019937Y019837D01*
X019936Y019837D02*
X019313Y019837D01*
X019313Y019838D02*
X019935Y019838D01*
X019934Y019839D02*
X019312Y019839D01*
X019312Y019840D02*
X019933Y019840D01*
X019932Y019841D02*
X019312Y019841D01*
X019311Y019842D02*
X019931Y019842D01*
X019930Y019843D02*
X019311Y019843D01*
X019310Y019844D02*
X019929Y019844D01*
X019928Y019845D02*
X019310Y019845D01*
X019310Y019846D02*
X019927Y019846D01*
X019926Y019847D02*
X019633Y019847D01*
X019640Y019848D02*
X019925Y019848D01*
X019924Y019849D02*
X019648Y019849D01*
X019655Y019850D02*
X019923Y019850D01*
X019922Y019851D02*
X019662Y019851D01*
X019670Y019852D02*
X019921Y019852D01*
X019920Y019853D02*
X019677Y019853D01*
X019685Y019854D02*
X019919Y019854D01*
X019918Y019854D02*
X019689Y019854D01*
X019691Y019855D02*
X019917Y019855D01*
X019916Y019856D02*
X019694Y019856D01*
X019696Y019857D02*
X019915Y019857D01*
X019914Y019858D02*
X019699Y019858D01*
X019701Y019859D02*
X019913Y019859D01*
X019912Y019860D02*
X019703Y019860D01*
X019706Y019861D02*
X019911Y019861D01*
X019910Y019862D02*
X019708Y019862D01*
X019711Y019863D02*
X019909Y019863D01*
X019908Y019864D02*
X019713Y019864D01*
X019716Y019865D02*
X019907Y019865D01*
X019906Y019866D02*
X019718Y019866D01*
X019721Y019867D02*
X019905Y019867D01*
X019904Y019868D02*
X019723Y019868D01*
X019725Y019869D02*
X019903Y019869D01*
X019902Y019870D02*
X019728Y019870D01*
X019730Y019871D02*
X019901Y019871D01*
X019900Y019871D02*
X019733Y019871D01*
X019735Y019872D02*
X019899Y019872D01*
X019898Y019873D02*
X019738Y019873D01*
X019739Y019874D02*
X019897Y019874D01*
X019896Y019875D02*
X019741Y019875D01*
X019742Y019876D02*
X019895Y019876D01*
X019894Y019877D02*
X019744Y019877D01*
X019745Y019878D02*
X019893Y019878D01*
X019892Y019879D02*
X019747Y019879D01*
X019748Y019880D02*
X019891Y019880D01*
X019890Y019881D02*
X019750Y019881D01*
X019751Y019882D02*
X019889Y019882D01*
X019888Y019883D02*
X019753Y019883D01*
X019754Y019884D02*
X019887Y019884D01*
X019886Y019885D02*
X019756Y019885D01*
X019757Y019886D02*
X019885Y019886D01*
X019884Y019887D02*
X019759Y019887D01*
X019760Y019888D02*
X019883Y019888D01*
X019882Y019889D02*
X019762Y019889D01*
X019763Y019889D02*
X019881Y019889D01*
X019880Y019890D02*
X019765Y019890D01*
X019766Y019891D02*
X019879Y019891D01*
X019878Y019892D02*
X019768Y019892D01*
X019769Y019893D02*
X019877Y019893D01*
X019876Y019894D02*
X019770Y019894D01*
X019772Y019895D02*
X019875Y019895D01*
X019874Y019896D02*
X019773Y019896D01*
X019775Y019897D02*
X019873Y019897D01*
X019872Y019898D02*
X019776Y019898D01*
X019778Y019899D02*
X019871Y019899D01*
X019870Y019900D02*
X019779Y019900D01*
X019781Y019901D02*
X019869Y019901D01*
X019869Y019902D02*
X019782Y019902D01*
X019784Y019903D02*
X019868Y019903D01*
X019867Y019904D02*
X019785Y019904D01*
X019786Y019905D02*
X019866Y019905D01*
X019865Y019906D02*
X019787Y019906D01*
X019789Y019906D02*
X019864Y019906D01*
X019863Y019907D02*
X019790Y019907D01*
X019791Y019908D02*
X019862Y019908D01*
X019861Y019909D02*
X019792Y019909D01*
X019793Y019910D02*
X019860Y019910D01*
X019859Y019911D02*
X019794Y019911D01*
X019795Y019912D02*
X019858Y019912D01*
X019857Y019913D02*
X019796Y019913D01*
X019797Y019914D02*
X019856Y019914D01*
X019855Y019915D02*
X019799Y019915D01*
X019800Y019916D02*
X019854Y019916D01*
X019853Y019917D02*
X019801Y019917D01*
X019802Y019918D02*
X019852Y019918D01*
X019851Y019919D02*
X019803Y019919D01*
X019804Y019920D02*
X019850Y019920D01*
X019849Y019921D02*
X019805Y019921D01*
X019806Y019922D02*
X019848Y019922D01*
X019847Y019923D02*
X019807Y019923D01*
X019808Y019923D02*
X019846Y019923D01*
X019845Y019924D02*
X019810Y019924D01*
X019811Y019925D02*
X019844Y019925D01*
X019843Y019926D02*
X019812Y019926D01*
X019813Y019927D02*
X019842Y019927D01*
X019841Y019928D02*
X019814Y019928D01*
X019815Y019929D02*
X019840Y019929D01*
X019839Y019930D02*
X019816Y019930D01*
X019817Y019931D02*
X019838Y019931D01*
X019837Y019932D02*
X019818Y019932D01*
X019819Y019933D02*
X019836Y019933D01*
X019835Y019934D02*
X019821Y019934D01*
X019822Y019935D02*
X019834Y019935D01*
X019833Y019936D02*
X019823Y019936D01*
X019824Y019937D02*
X019832Y019937D01*
X019831Y019938D02*
X019825Y019938D01*
X019826Y019939D02*
X019830Y019939D01*
X019829Y019940D02*
X019827Y019940D01*
X019785Y020038D02*
X019332Y020038D01*
X019333Y020039D02*
X019787Y020039D01*
X019790Y020040D02*
X019333Y020040D01*
X019334Y020041D02*
X019792Y020041D01*
X019794Y020042D02*
X019334Y020042D01*
X019335Y020043D02*
X019796Y020043D01*
X019798Y020043D02*
X019336Y020043D01*
X019337Y020044D02*
X019801Y020044D01*
X019803Y020045D02*
X019338Y020045D01*
X019338Y020046D02*
X019805Y020046D01*
X019807Y020047D02*
X019339Y020047D01*
X019340Y020048D02*
X019809Y020048D01*
X019812Y020049D02*
X019341Y020049D01*
X019342Y020050D02*
X019814Y020050D01*
X019816Y020051D02*
X019342Y020051D01*
X019343Y020052D02*
X019818Y020052D01*
X019821Y020053D02*
X019344Y020053D01*
X019345Y020054D02*
X019823Y020054D01*
X019824Y020055D02*
X019346Y020055D01*
X019346Y020056D02*
X019825Y020056D01*
X019827Y020057D02*
X019347Y020057D01*
X019348Y020058D02*
X019828Y020058D01*
X019829Y020059D02*
X019349Y020059D01*
X019350Y020060D02*
X019830Y020060D01*
X019831Y020060D02*
X019350Y020060D01*
X019351Y020061D02*
X019832Y020061D01*
X019834Y020062D02*
X019352Y020062D01*
X019353Y020063D02*
X019835Y020063D01*
X019836Y020064D02*
X019354Y020064D01*
X019354Y020065D02*
X019837Y020065D01*
X019838Y020066D02*
X019355Y020066D01*
X019356Y020067D02*
X019839Y020067D01*
X019841Y020068D02*
X019357Y020068D01*
X019358Y020069D02*
X019842Y020069D01*
X019843Y020070D02*
X019358Y020070D01*
X019359Y020071D02*
X019844Y020071D01*
X019845Y020072D02*
X019360Y020072D01*
X019361Y020073D02*
X019846Y020073D01*
X019848Y020074D02*
X019363Y020074D01*
X019364Y020075D02*
X019849Y020075D01*
X019850Y020076D02*
X019365Y020076D01*
X019366Y020077D02*
X019851Y020077D01*
X019852Y020077D02*
X019368Y020077D01*
X019369Y020078D02*
X019854Y020078D01*
X019855Y020079D02*
X019370Y020079D01*
X019372Y020080D02*
X019856Y020080D01*
X019857Y020081D02*
X019373Y020081D01*
X019374Y020082D02*
X019858Y020082D01*
X019859Y020083D02*
X019375Y020083D01*
X019377Y020084D02*
X019861Y020084D01*
X019862Y020085D02*
X019378Y020085D01*
X019379Y020086D02*
X019863Y020086D01*
X019864Y020087D02*
X019381Y020087D01*
X019382Y020088D02*
X019865Y020088D01*
X019866Y020089D02*
X019383Y020089D01*
X019384Y020090D02*
X019868Y020090D01*
X019869Y020091D02*
X019386Y020091D01*
X019387Y020092D02*
X019870Y020092D01*
X019871Y020093D02*
X019388Y020093D01*
X019390Y020094D02*
X019872Y020094D01*
X019873Y020094D02*
X019391Y020094D01*
X019392Y020095D02*
X019875Y020095D01*
X019876Y020096D02*
X019393Y020096D01*
X019395Y020097D02*
X019877Y020097D01*
X019878Y020098D02*
X019396Y020098D01*
X019397Y020099D02*
X019879Y020099D01*
X019880Y020100D02*
X019399Y020100D01*
X019400Y020101D02*
X019881Y020101D01*
X019882Y020102D02*
X019401Y020102D01*
X019402Y020103D02*
X019883Y020103D01*
X019884Y020104D02*
X019404Y020104D01*
X019405Y020105D02*
X019884Y020105D01*
X019885Y020106D02*
X019406Y020106D01*
X019408Y020107D02*
X019886Y020107D01*
X019887Y020108D02*
X019409Y020108D01*
X019410Y020109D02*
X019887Y020109D01*
X019888Y020110D02*
X019411Y020110D01*
X019413Y020111D02*
X019889Y020111D01*
X019890Y020111D02*
X019414Y020111D01*
X019415Y020112D02*
X019890Y020112D01*
X019891Y020113D02*
X019417Y020113D01*
X019418Y020114D02*
X019892Y020114D01*
X019893Y020115D02*
X019419Y020115D01*
X019420Y020116D02*
X019893Y020116D01*
X019894Y020117D02*
X019422Y020117D01*
X019423Y020118D02*
X019895Y020118D01*
X019896Y020119D02*
X019424Y020119D01*
X019426Y020120D02*
X019896Y020120D01*
X019897Y020121D02*
X019428Y020121D01*
X019430Y020122D02*
X019898Y020122D01*
X019899Y020123D02*
X019432Y020123D01*
X019434Y020124D02*
X019899Y020124D01*
X019900Y020125D02*
X019436Y020125D01*
X019438Y020126D02*
X019901Y020126D01*
X019902Y020127D02*
X019440Y020127D01*
X019443Y020128D02*
X019902Y020128D01*
X019903Y020129D02*
X019445Y020129D01*
X019447Y020129D02*
X019904Y020129D01*
X019904Y020130D02*
X019449Y020130D01*
X019451Y020131D02*
X019905Y020131D01*
X019905Y020132D02*
X019453Y020132D01*
X019455Y020133D02*
X019906Y020133D01*
X019906Y020134D02*
X019457Y020134D01*
X019459Y020135D02*
X019907Y020135D01*
X019907Y020136D02*
X019461Y020136D01*
X019463Y020137D02*
X019908Y020137D01*
X019908Y020138D02*
X019465Y020138D01*
X019467Y020139D02*
X019909Y020139D01*
X019909Y020140D02*
X019469Y020140D01*
X019471Y020141D02*
X019910Y020141D01*
X019910Y020142D02*
X019473Y020142D01*
X019475Y020143D02*
X019911Y020143D01*
X019911Y020144D02*
X019477Y020144D01*
X019479Y020145D02*
X019912Y020145D01*
X019912Y020146D02*
X019481Y020146D01*
X019483Y020146D02*
X019913Y020146D01*
X019913Y020147D02*
X019485Y020147D01*
X019487Y020148D02*
X019914Y020148D01*
X019914Y020149D02*
X019489Y020149D01*
X019492Y020150D02*
X019915Y020150D01*
X019915Y020151D02*
X019494Y020151D01*
X019496Y020152D02*
X019916Y020152D01*
X019916Y020153D02*
X019498Y020153D01*
X019500Y020154D02*
X019917Y020154D01*
X019917Y020155D02*
X019503Y020155D01*
X019505Y020156D02*
X019918Y020156D01*
X019918Y020157D02*
X019508Y020157D01*
X019511Y020158D02*
X019919Y020158D01*
X019919Y020159D02*
X019513Y020159D01*
X019516Y020160D02*
X019920Y020160D01*
X019920Y020161D02*
X019519Y020161D01*
X019521Y020162D02*
X019921Y020162D01*
X019921Y020163D02*
X019524Y020163D01*
X019526Y020163D02*
X019921Y020163D01*
X019922Y020164D02*
X019529Y020164D01*
X019532Y020165D02*
X019922Y020165D01*
X019922Y020166D02*
X019534Y020166D01*
X019537Y020167D02*
X019922Y020167D01*
X019923Y020168D02*
X019540Y020168D01*
X019542Y020169D02*
X019923Y020169D01*
X019923Y020170D02*
X019545Y020170D01*
X019548Y020171D02*
X019924Y020171D01*
X019924Y020172D02*
X019550Y020172D01*
X019553Y020173D02*
X019924Y020173D01*
X019924Y020174D02*
X019556Y020174D01*
X019558Y020175D02*
X019925Y020175D01*
X019925Y020176D02*
X019561Y020176D01*
X019564Y020177D02*
X019925Y020177D01*
X019926Y020178D02*
X019566Y020178D01*
X019569Y020179D02*
X019926Y020179D01*
X019926Y020180D02*
X019571Y020180D01*
X019574Y020180D02*
X019926Y020180D01*
X019927Y020181D02*
X019577Y020181D01*
X019579Y020182D02*
X019927Y020182D01*
X019927Y020183D02*
X019582Y020183D01*
X019585Y020184D02*
X019928Y020184D01*
X019928Y020185D02*
X019587Y020185D01*
X019590Y020186D02*
X019928Y020186D01*
X019928Y020187D02*
X019593Y020187D01*
X019595Y020188D02*
X019929Y020188D01*
X019929Y020189D02*
X019598Y020189D01*
X019601Y020190D02*
X019929Y020190D01*
X019930Y020191D02*
X019603Y020191D01*
X019606Y020192D02*
X019930Y020192D01*
X019930Y020193D02*
X019608Y020193D01*
X019611Y020194D02*
X019930Y020194D01*
X019931Y020195D02*
X019614Y020195D01*
X019616Y020196D02*
X019931Y020196D01*
X019931Y020197D02*
X019619Y020197D01*
X019622Y020197D02*
X019931Y020197D01*
X019932Y020198D02*
X019624Y020198D01*
X019627Y020199D02*
X019932Y020199D01*
X019932Y020200D02*
X019630Y020200D01*
X019632Y020201D02*
X019932Y020201D01*
X019932Y020202D02*
X019635Y020202D01*
X019638Y020203D02*
X019932Y020203D01*
X019932Y020204D02*
X019640Y020204D01*
X019643Y020205D02*
X019932Y020205D01*
X019932Y020206D02*
X019646Y020206D01*
X019648Y020207D02*
X019933Y020207D01*
X019933Y020208D02*
X019651Y020208D01*
X019653Y020209D02*
X019933Y020209D01*
X019933Y020210D02*
X019656Y020210D01*
X019659Y020211D02*
X019933Y020211D01*
X019933Y020212D02*
X019661Y020212D01*
X019664Y020213D02*
X019933Y020213D01*
X019933Y020214D02*
X019667Y020214D01*
X019669Y020214D02*
X019933Y020214D01*
X019933Y020215D02*
X019671Y020215D01*
X019672Y020216D02*
X019933Y020216D01*
X019933Y020217D02*
X019674Y020217D01*
X019675Y020218D02*
X019934Y020218D01*
X019934Y020219D02*
X019677Y020219D01*
X019678Y020220D02*
X019934Y020220D01*
X019934Y020221D02*
X019680Y020221D01*
X019681Y020222D02*
X019934Y020222D01*
X019934Y020223D02*
X019683Y020223D01*
X019684Y020224D02*
X019934Y020224D01*
X019934Y020225D02*
X019686Y020225D01*
X019687Y020226D02*
X019934Y020226D01*
X019934Y020227D02*
X019689Y020227D01*
X019690Y020228D02*
X019934Y020228D01*
X019935Y020229D02*
X019691Y020229D01*
X019691Y020230D02*
X019935Y020230D01*
X019935Y020231D02*
X019692Y020231D01*
X019693Y020231D02*
X019935Y020231D01*
X019935Y020232D02*
X019694Y020232D01*
X019695Y020233D02*
X019935Y020233D01*
X019935Y020234D02*
X019696Y020234D01*
X019696Y020235D02*
X019935Y020235D01*
X019935Y020236D02*
X019697Y020236D01*
X019698Y020237D02*
X019935Y020237D01*
X019935Y020238D02*
X019699Y020238D01*
X019700Y020239D02*
X019936Y020239D01*
X019935Y020240D02*
X019701Y020240D01*
X019702Y020241D02*
X019935Y020241D01*
X019935Y020242D02*
X019702Y020242D01*
X019703Y020243D02*
X019935Y020243D01*
X019935Y020244D02*
X019703Y020244D01*
X019703Y020245D02*
X019935Y020245D01*
X019935Y020246D02*
X019704Y020246D01*
X019704Y020247D02*
X019935Y020247D01*
X019935Y020248D02*
X019704Y020248D01*
X019704Y020249D02*
X019934Y020249D01*
X019705Y020249D01*
X019705Y020250D02*
X019934Y020250D01*
X019934Y020251D02*
X019705Y020251D01*
X019705Y020252D02*
X019934Y020252D01*
X019934Y020253D02*
X019706Y020253D01*
X019706Y020254D02*
X019934Y020254D01*
X019934Y020255D02*
X019706Y020255D01*
X019706Y020256D02*
X019933Y020256D01*
X019933Y020257D02*
X019707Y020257D01*
X019707Y020258D02*
X019933Y020258D01*
X019933Y020259D02*
X019707Y020259D01*
X019707Y020260D02*
X019933Y020260D01*
X019933Y020261D02*
X019707Y020261D01*
X019707Y020262D02*
X019933Y020262D01*
X019933Y020263D02*
X019707Y020263D01*
X019706Y020264D02*
X019933Y020264D01*
X019932Y020265D02*
X019706Y020265D01*
X019706Y020266D02*
X019932Y020266D01*
X019706Y020266D01*
X019706Y020267D02*
X019932Y020267D01*
X019932Y020268D02*
X019706Y020268D01*
X019705Y020269D02*
X019932Y020269D01*
X019932Y020270D02*
X019705Y020270D01*
X019705Y020271D02*
X019932Y020271D01*
X019931Y020272D02*
X019705Y020272D01*
X019705Y020273D02*
X019931Y020273D01*
X019931Y020274D02*
X019704Y020274D01*
X019704Y020275D02*
X019931Y020275D01*
X019931Y020276D02*
X019703Y020276D01*
X019702Y020277D02*
X019931Y020277D01*
X019931Y020278D02*
X019702Y020278D01*
X019701Y020279D02*
X019931Y020279D01*
X019930Y020280D02*
X019701Y020280D01*
X019700Y020281D02*
X019930Y020281D01*
X019930Y020282D02*
X019699Y020282D01*
X019699Y020283D02*
X019930Y020283D01*
X019698Y020283D01*
X019698Y020284D02*
X019930Y020284D01*
X019930Y020285D02*
X019697Y020285D01*
X019696Y020286D02*
X019930Y020286D01*
X019930Y020287D02*
X019694Y020287D01*
X019693Y020288D02*
X019929Y020288D01*
X019929Y020289D02*
X019692Y020289D01*
X019691Y020290D02*
X019929Y020290D01*
X019929Y020291D02*
X019690Y020291D01*
X019689Y020292D02*
X019929Y020292D01*
X019929Y020293D02*
X019688Y020293D01*
X019687Y020294D02*
X019929Y020294D01*
X019929Y020295D02*
X019685Y020295D01*
X019684Y020296D02*
X019928Y020296D01*
X019928Y020297D02*
X019682Y020297D01*
X019680Y020298D02*
X019928Y020298D01*
X019928Y020299D02*
X019679Y020299D01*
X019677Y020300D02*
X019928Y020300D01*
X019675Y020300D01*
X019674Y020301D02*
X019927Y020301D01*
X019927Y020302D02*
X019671Y020302D01*
X019668Y020303D02*
X019926Y020303D01*
X019926Y020304D02*
X019665Y020304D01*
X019662Y020305D02*
X019926Y020305D01*
X019925Y020306D02*
X019659Y020306D01*
X019656Y020307D02*
X019925Y020307D01*
X019925Y020308D02*
X019653Y020308D01*
X019650Y020309D02*
X019924Y020309D01*
X019924Y020310D02*
X019648Y020310D01*
X019644Y020311D02*
X019923Y020311D01*
X019923Y020312D02*
X019636Y020312D01*
X019627Y020313D02*
X019923Y020313D01*
X019922Y020314D02*
X019619Y020314D01*
X019617Y020314D02*
X019365Y020314D01*
X019365Y020315D02*
X019922Y020315D01*
X019921Y020316D02*
X019364Y020316D01*
X019363Y020317D02*
X019921Y020317D01*
X019362Y020317D01*
X019361Y020318D02*
X019920Y020318D01*
X019920Y020319D02*
X019361Y020319D01*
X019360Y020320D02*
X019919Y020320D01*
X019919Y020321D02*
X019359Y020321D01*
X019358Y020322D02*
X019919Y020322D01*
X019918Y020323D02*
X019357Y020323D01*
X019357Y020324D02*
X019918Y020324D01*
X019918Y020325D02*
X019356Y020325D01*
X019355Y020326D02*
X019917Y020326D01*
X019917Y020327D02*
X019354Y020327D01*
X019353Y020328D02*
X019916Y020328D01*
X019916Y020329D02*
X019353Y020329D01*
X019352Y020330D02*
X019916Y020330D01*
X019915Y020331D02*
X019351Y020331D01*
X019350Y020332D02*
X019915Y020332D01*
X019914Y020333D02*
X019349Y020333D01*
X019349Y020334D02*
X019914Y020334D01*
X019348Y020334D01*
X019347Y020335D02*
X019913Y020335D01*
X019913Y020336D02*
X019346Y020336D01*
X019345Y020337D02*
X019912Y020337D01*
X019912Y020338D02*
X019345Y020338D01*
X019344Y020339D02*
X019912Y020339D01*
X019911Y020340D02*
X019343Y020340D01*
X019342Y020341D02*
X019911Y020341D01*
X019911Y020342D02*
X019341Y020342D01*
X019341Y020343D02*
X019910Y020343D01*
X019910Y020344D02*
X019340Y020344D01*
X019339Y020345D02*
X019909Y020345D01*
X019909Y020346D02*
X019338Y020346D01*
X019337Y020347D02*
X019909Y020347D01*
X019908Y020348D02*
X019337Y020348D01*
X019336Y020349D02*
X019908Y020349D01*
X019907Y020350D02*
X019335Y020350D01*
X019334Y020351D02*
X019907Y020351D01*
X019333Y020351D01*
X019333Y020352D02*
X019906Y020352D01*
X019905Y020353D02*
X019332Y020353D01*
X019331Y020354D02*
X019904Y020354D01*
X019904Y020355D02*
X019330Y020355D01*
X019329Y020356D02*
X019903Y020356D01*
X019902Y020357D02*
X019329Y020357D01*
X019328Y020358D02*
X019902Y020358D01*
X019901Y020359D02*
X019327Y020359D01*
X019326Y020360D02*
X019900Y020360D01*
X019899Y020361D02*
X019325Y020361D01*
X019325Y020362D02*
X019899Y020362D01*
X019898Y020363D02*
X019324Y020363D01*
X019323Y020364D02*
X019897Y020364D01*
X019897Y020365D02*
X019322Y020365D01*
X019321Y020366D02*
X019896Y020366D01*
X019895Y020367D02*
X019321Y020367D01*
X019320Y020368D02*
X019894Y020368D01*
X019894Y020369D02*
X019319Y020369D01*
X019318Y020369D02*
X019893Y020369D01*
X019892Y020370D02*
X019317Y020370D01*
X019317Y020371D02*
X019892Y020371D01*
X019891Y020372D02*
X019316Y020372D01*
X019315Y020373D02*
X019890Y020373D01*
X019889Y020374D02*
X019314Y020374D01*
X019313Y020375D02*
X019889Y020375D01*
X019888Y020376D02*
X019313Y020376D01*
X019312Y020377D02*
X019887Y020377D01*
X019887Y020378D02*
X019311Y020378D01*
X019310Y020379D02*
X019886Y020379D01*
X019885Y020380D02*
X019309Y020380D01*
X019309Y020381D02*
X019885Y020381D01*
X019884Y020382D02*
X019308Y020382D01*
X019307Y020383D02*
X019883Y020383D01*
X019882Y020384D02*
X019306Y020384D01*
X019305Y020385D02*
X019882Y020385D01*
X019881Y020386D02*
X019306Y020386D01*
X019308Y020386D02*
X019880Y020386D01*
X019880Y020387D02*
X019309Y020387D01*
X019310Y020388D02*
X019879Y020388D01*
X019878Y020389D02*
X019312Y020389D01*
X019313Y020390D02*
X019877Y020390D01*
X019877Y020391D02*
X019315Y020391D01*
X019316Y020392D02*
X019876Y020392D01*
X019875Y020393D02*
X019318Y020393D01*
X019319Y020394D02*
X019875Y020394D01*
X019874Y020395D02*
X019321Y020395D01*
X019322Y020396D02*
X019873Y020396D01*
X019871Y020397D02*
X019323Y020397D01*
X019325Y020398D02*
X019870Y020398D01*
X019869Y020399D02*
X019326Y020399D01*
X019328Y020400D02*
X019868Y020400D01*
X019867Y020401D02*
X019329Y020401D01*
X019331Y020402D02*
X019866Y020402D01*
X019865Y020403D02*
X019332Y020403D01*
X019334Y020403D02*
X019864Y020403D01*
X019863Y020404D02*
X019335Y020404D01*
X019336Y020405D02*
X019861Y020405D01*
X019860Y020406D02*
X019338Y020406D01*
X019339Y020407D02*
X019859Y020407D01*
X019858Y020408D02*
X019341Y020408D01*
X019342Y020409D02*
X019857Y020409D01*
X019856Y020410D02*
X019344Y020410D01*
X019345Y020411D02*
X019855Y020411D01*
X019854Y020412D02*
X019346Y020412D01*
X019348Y020413D02*
X019852Y020413D01*
X019851Y020414D02*
X019349Y020414D01*
X019351Y020415D02*
X019850Y020415D01*
X019849Y020416D02*
X019352Y020416D01*
X019354Y020417D02*
X019848Y020417D01*
X019847Y020418D02*
X019355Y020418D01*
X019357Y020419D02*
X019846Y020419D01*
X019845Y020420D02*
X019358Y020420D01*
X019359Y020420D02*
X019843Y020420D01*
X019842Y020421D02*
X019361Y020421D01*
X019362Y020422D02*
X019841Y020422D01*
X019840Y020423D02*
X019364Y020423D01*
X019365Y020424D02*
X019839Y020424D01*
X019838Y020425D02*
X019367Y020425D01*
X019368Y020426D02*
X019837Y020426D01*
X019836Y020427D02*
X019370Y020427D01*
X019371Y020428D02*
X019834Y020428D01*
X019833Y020429D02*
X019372Y020429D01*
X019374Y020430D02*
X019832Y020430D01*
X019831Y020431D02*
X019375Y020431D01*
X019377Y020432D02*
X019829Y020432D01*
X019827Y020433D02*
X019380Y020433D01*
X019382Y020434D02*
X019826Y020434D01*
X019824Y020435D02*
X019384Y020435D01*
X019386Y020436D02*
X019822Y020436D01*
X019820Y020437D02*
X019388Y020437D01*
X019390Y020437D02*
X019819Y020437D01*
X019817Y020438D02*
X019392Y020438D01*
X019395Y020439D02*
X019815Y020439D01*
X019814Y020440D02*
X019397Y020440D01*
X019399Y020441D02*
X019812Y020441D01*
X019810Y020442D02*
X019401Y020442D01*
X019403Y020443D02*
X019809Y020443D01*
X019807Y020444D02*
X019405Y020444D01*
X019407Y020445D02*
X019805Y020445D01*
X019804Y020446D02*
X019410Y020446D01*
X019412Y020447D02*
X019802Y020447D01*
X019800Y020448D02*
X019414Y020448D01*
X019416Y020449D02*
X019798Y020449D01*
X019797Y020450D02*
X019418Y020450D01*
X019420Y020451D02*
X019795Y020451D01*
X019793Y020452D02*
X019422Y020452D01*
X019425Y020453D02*
X019792Y020453D01*
X019790Y020454D02*
X019427Y020454D01*
X019429Y020454D02*
X019788Y020454D01*
X019787Y020455D02*
X019431Y020455D01*
X019433Y020456D02*
X019785Y020456D01*
X019783Y020457D02*
X019435Y020457D01*
X019437Y020458D02*
X019781Y020458D01*
X019778Y020459D02*
X019440Y020459D01*
X019442Y020460D02*
X019775Y020460D01*
X019773Y020461D02*
X019444Y020461D01*
X019446Y020462D02*
X019770Y020462D01*
X019768Y020463D02*
X019448Y020463D01*
X019450Y020464D02*
X019765Y020464D01*
X019762Y020465D02*
X019453Y020465D01*
X019457Y020466D02*
X019760Y020466D01*
X019757Y020467D02*
X019460Y020467D01*
X019464Y020468D02*
X019755Y020468D01*
X019752Y020469D02*
X019468Y020469D01*
X019471Y020470D02*
X019749Y020470D01*
X019747Y020471D02*
X019475Y020471D01*
X019479Y020471D02*
X019744Y020471D01*
X019741Y020472D02*
X019483Y020472D01*
X019486Y020473D02*
X019739Y020473D01*
X019736Y020474D02*
X019490Y020474D01*
X019494Y020475D02*
X019734Y020475D01*
X019731Y020476D02*
X019497Y020476D01*
X019501Y020477D02*
X019727Y020477D01*
X019720Y020478D02*
X019505Y020478D01*
X019508Y020479D02*
X019713Y020479D01*
X019706Y020480D02*
X019512Y020480D01*
X019516Y020481D02*
X019699Y020481D01*
X019692Y020482D02*
X019520Y020482D01*
X019523Y020483D02*
X019685Y020483D01*
X019678Y020484D02*
X019527Y020484D01*
X019531Y020485D02*
X019671Y020485D01*
X019664Y020486D02*
X019538Y020486D01*
X019550Y020487D02*
X019657Y020487D01*
X019650Y020488D02*
X019561Y020488D01*
X019572Y020489D02*
X019643Y020489D01*
X019636Y020489D02*
X019584Y020489D01*
X019595Y020490D02*
X019630Y020490D01*
X019623Y020491D02*
X019607Y020491D01*
X019600Y020594D02*
X019030Y020594D01*
X019029Y020593D02*
X019591Y020593D01*
X019581Y020592D02*
X019028Y020592D01*
X019027Y020591D02*
X019572Y020591D01*
X019563Y020591D02*
X019027Y020591D01*
X019026Y020590D02*
X019553Y020590D01*
X019544Y020589D02*
X019025Y020589D01*
X019024Y020588D02*
X019534Y020588D01*
X019526Y020587D02*
X019024Y020587D01*
X019023Y020586D02*
X019523Y020586D01*
X019520Y020585D02*
X019022Y020585D01*
X019021Y020584D02*
X019517Y020584D01*
X019514Y020583D02*
X019020Y020583D01*
X019020Y020582D02*
X019511Y020582D01*
X019508Y020581D02*
X019019Y020581D01*
X019018Y020580D02*
X019505Y020580D01*
X019502Y020579D02*
X019017Y020579D01*
X019017Y020578D02*
X019499Y020578D01*
X019496Y020577D02*
X019016Y020577D01*
X019015Y020576D02*
X019493Y020576D01*
X019490Y020575D02*
X019014Y020575D01*
X019013Y020574D02*
X019487Y020574D01*
X019484Y020574D02*
X019013Y020574D01*
X019012Y020573D02*
X019481Y020573D01*
X019478Y020572D02*
X019011Y020572D01*
X019010Y020571D02*
X019475Y020571D01*
X019472Y020570D02*
X019010Y020570D01*
X019009Y020569D02*
X019469Y020569D01*
X019466Y020568D02*
X019008Y020568D01*
X019007Y020567D02*
X019462Y020567D01*
X019459Y020566D02*
X019006Y020566D01*
X019006Y020565D02*
X019456Y020565D01*
X019453Y020564D02*
X019005Y020564D01*
X019004Y020563D02*
X019450Y020563D01*
X019447Y020562D02*
X019003Y020562D01*
X019003Y020561D02*
X019444Y020561D01*
X019441Y020560D02*
X019002Y020560D01*
X019001Y020559D02*
X019438Y020559D01*
X019435Y020558D02*
X019000Y020558D01*
X018999Y020557D02*
X019432Y020557D01*
X019429Y020557D02*
X018999Y020557D01*
X018998Y020556D02*
X019428Y020556D01*
X019426Y020555D02*
X018997Y020555D01*
X018996Y020554D02*
X019424Y020554D01*
X019423Y020553D02*
X018995Y020553D01*
X018995Y020552D02*
X019421Y020552D01*
X019419Y020551D02*
X018994Y020551D01*
X018993Y020550D02*
X019417Y020550D01*
X019416Y020549D02*
X018992Y020549D01*
X018992Y020548D02*
X019414Y020548D01*
X019412Y020547D02*
X018991Y020547D01*
X018990Y020546D02*
X019410Y020546D01*
X019409Y020545D02*
X018989Y020545D01*
X018988Y020544D02*
X019407Y020544D01*
X019405Y020543D02*
X018988Y020543D01*
X018987Y020542D02*
X019403Y020542D01*
X019402Y020541D02*
X018986Y020541D01*
X018985Y020540D02*
X019400Y020540D01*
X019398Y020540D02*
X018985Y020540D01*
X018984Y020539D02*
X019396Y020539D01*
X019395Y020538D02*
X018983Y020538D01*
X018982Y020537D02*
X019393Y020537D01*
X019391Y020536D02*
X018981Y020536D01*
X018981Y020535D02*
X019389Y020535D01*
X019388Y020534D02*
X018980Y020534D01*
X018979Y020533D02*
X019386Y020533D01*
X019384Y020532D02*
X018978Y020532D01*
X018978Y020531D02*
X019382Y020531D01*
X019381Y020530D02*
X018977Y020530D01*
X018976Y020529D02*
X019379Y020529D01*
X019377Y020528D02*
X018975Y020528D01*
X018974Y020527D02*
X019376Y020527D01*
X019374Y020526D02*
X018974Y020526D01*
X018973Y020525D02*
X019372Y020525D01*
X019370Y020524D02*
X018972Y020524D01*
X018972Y020523D02*
X019369Y020523D01*
X019367Y020523D02*
X018971Y020523D01*
X018971Y020522D02*
X019365Y020522D01*
X019363Y020521D02*
X018970Y020521D01*
X018970Y020520D02*
X019362Y020520D01*
X019360Y020519D02*
X018969Y020519D01*
X018969Y020518D02*
X019358Y020518D01*
X019356Y020517D02*
X018968Y020517D01*
X018968Y020516D02*
X019355Y020516D01*
X019353Y020515D02*
X018967Y020515D01*
X018967Y020514D02*
X019351Y020514D01*
X019349Y020513D02*
X018966Y020513D01*
X018966Y020512D02*
X019348Y020512D01*
X019346Y020511D02*
X018965Y020511D01*
X018965Y020510D02*
X019344Y020510D01*
X019342Y020509D02*
X018964Y020509D01*
X018964Y020508D02*
X019341Y020508D01*
X019340Y020507D02*
X018963Y020507D01*
X018963Y020506D02*
X019339Y020506D01*
X019338Y020506D02*
X018962Y020506D01*
X018962Y020505D02*
X019337Y020505D01*
X019336Y020504D02*
X018961Y020504D01*
X018961Y020503D02*
X019334Y020503D01*
X019333Y020502D02*
X018960Y020502D01*
X018960Y020501D02*
X019332Y020501D01*
X019331Y020500D02*
X018959Y020500D01*
X018959Y020499D02*
X019330Y020499D01*
X019329Y020498D02*
X018958Y020498D01*
X018957Y020497D02*
X019328Y020497D01*
X019326Y020496D02*
X018957Y020496D01*
X018956Y020495D02*
X019325Y020495D01*
X019324Y020494D02*
X018956Y020494D01*
X018955Y020493D02*
X019323Y020493D01*
X019322Y020492D02*
X018955Y020492D01*
X018954Y020491D02*
X019321Y020491D01*
X019320Y020490D02*
X018954Y020490D01*
X018953Y020489D02*
X019318Y020489D01*
X019317Y020489D02*
X018953Y020489D01*
X018952Y020488D02*
X019316Y020488D01*
X019315Y020487D02*
X018952Y020487D01*
X018951Y020486D02*
X019314Y020486D01*
X019313Y020485D02*
X018951Y020485D01*
X018950Y020484D02*
X019312Y020484D01*
X019310Y020483D02*
X018950Y020483D01*
X018949Y020482D02*
X019309Y020482D01*
X019308Y020481D02*
X018949Y020481D01*
X018948Y020480D02*
X019307Y020480D01*
X019306Y020479D02*
X018948Y020479D01*
X018947Y020478D02*
X019305Y020478D01*
X019304Y020477D02*
X018947Y020477D01*
X018946Y020476D02*
X019302Y020476D01*
X019301Y020475D02*
X018946Y020475D01*
X018945Y020474D02*
X019300Y020474D01*
X019299Y020473D02*
X018945Y020473D01*
X018944Y020472D02*
X019298Y020472D01*
X019297Y020471D02*
X018944Y020471D01*
X018943Y020471D02*
X019296Y020471D01*
X019294Y020470D02*
X018943Y020470D01*
X018942Y020469D02*
X019293Y020469D01*
X019292Y020468D02*
X018942Y020468D01*
X018941Y020467D02*
X019291Y020467D01*
X019290Y020466D02*
X018941Y020466D01*
X018940Y020465D02*
X019289Y020465D01*
X019287Y020464D02*
X018940Y020464D01*
X018939Y020463D02*
X019286Y020463D01*
X019285Y020462D02*
X018939Y020462D01*
X018938Y020461D02*
X019284Y020461D01*
X019283Y020460D02*
X018937Y020460D01*
X018937Y020459D02*
X019282Y020459D01*
X019281Y020458D02*
X018936Y020458D01*
X018936Y020457D02*
X019279Y020457D01*
X019278Y020456D02*
X018935Y020456D01*
X018935Y020455D02*
X019277Y020455D01*
X019276Y020454D02*
X018934Y020454D01*
X019275Y020454D01*
X019274Y020453D02*
X018933Y020453D01*
X018933Y020452D02*
X019273Y020452D01*
X019271Y020451D02*
X018932Y020451D01*
X018932Y020450D02*
X019270Y020450D01*
X019269Y020449D02*
X018931Y020449D01*
X018931Y020448D02*
X019268Y020448D01*
X019267Y020447D02*
X018930Y020447D01*
X018930Y020446D02*
X019266Y020446D01*
X019265Y020445D02*
X018929Y020445D01*
X018929Y020444D02*
X019264Y020444D01*
X019264Y020443D02*
X018928Y020443D01*
X018928Y020442D02*
X019263Y020442D01*
X019262Y020441D02*
X018927Y020441D01*
X018927Y020440D02*
X019261Y020440D01*
X019260Y020439D02*
X018926Y020439D01*
X018926Y020438D02*
X019260Y020438D01*
X019259Y020437D02*
X018925Y020437D01*
X019258Y020437D01*
X019257Y020436D02*
X018924Y020436D01*
X018924Y020435D02*
X019257Y020435D01*
X019256Y020434D02*
X018923Y020434D01*
X018923Y020433D02*
X019255Y020433D01*
X019254Y020432D02*
X018922Y020432D01*
X018922Y020431D02*
X019253Y020431D01*
X019253Y020430D02*
X018921Y020430D01*
X018921Y020429D02*
X019252Y020429D01*
X019251Y020428D02*
X018920Y020428D01*
X018919Y020427D02*
X019250Y020427D01*
X019249Y020426D02*
X018919Y020426D01*
X018918Y020425D02*
X019249Y020425D01*
X019248Y020424D02*
X018918Y020424D01*
X018917Y020423D02*
X019247Y020423D01*
X019246Y020422D02*
X018917Y020422D01*
X018916Y020421D02*
X019246Y020421D01*
X019245Y020420D02*
X018916Y020420D01*
X018915Y020420D02*
X019244Y020420D01*
X019243Y020419D02*
X018915Y020419D01*
X018914Y020418D02*
X019242Y020418D01*
X019242Y020417D02*
X018914Y020417D01*
X018913Y020416D02*
X019241Y020416D01*
X019240Y020415D02*
X018913Y020415D01*
X018912Y020414D02*
X019239Y020414D01*
X019239Y020413D02*
X018912Y020413D01*
X018911Y020412D02*
X019238Y020412D01*
X019237Y020411D02*
X018911Y020411D01*
X018910Y020410D02*
X019236Y020410D01*
X019235Y020409D02*
X018910Y020409D01*
X018909Y020408D02*
X019235Y020408D01*
X019234Y020407D02*
X018909Y020407D01*
X018908Y020406D02*
X019233Y020406D01*
X019232Y020405D02*
X018908Y020405D01*
X018907Y020404D02*
X019232Y020404D01*
X019231Y020403D02*
X018907Y020403D01*
X018906Y020403D02*
X019230Y020403D01*
X019229Y020402D02*
X018906Y020402D01*
X018905Y020401D02*
X019228Y020401D01*
X019228Y020400D02*
X018905Y020400D01*
X018904Y020399D02*
X019227Y020399D01*
X019226Y020398D02*
X018904Y020398D01*
X018903Y020397D02*
X019225Y020397D01*
X019225Y020396D02*
X018903Y020396D01*
X018902Y020395D02*
X019224Y020395D01*
X019223Y020394D02*
X018902Y020394D01*
X018901Y020393D02*
X019222Y020393D01*
X019221Y020392D02*
X018901Y020392D01*
X018900Y020391D02*
X019221Y020391D01*
X019220Y020390D02*
X018900Y020390D01*
X018899Y020389D02*
X019219Y020389D01*
X019218Y020388D02*
X018899Y020388D01*
X018899Y020387D02*
X019218Y020387D01*
X019217Y020386D02*
X018898Y020386D01*
X019216Y020386D01*
X019215Y020385D02*
X018898Y020385D01*
X018898Y020384D02*
X019214Y020384D01*
X019214Y020383D02*
X018897Y020383D01*
X018897Y020382D02*
X019213Y020382D01*
X019212Y020381D02*
X018897Y020381D01*
X018896Y020380D02*
X019211Y020380D01*
X019211Y020379D02*
X018896Y020379D01*
X018896Y020378D02*
X019210Y020378D01*
X019209Y020377D02*
X018895Y020377D01*
X018895Y020376D02*
X019208Y020376D01*
X019207Y020375D02*
X018895Y020375D01*
X018895Y020374D02*
X019207Y020374D01*
X019206Y020373D02*
X018894Y020373D01*
X018894Y020372D02*
X019205Y020372D01*
X019204Y020371D02*
X018894Y020371D01*
X018893Y020370D02*
X019204Y020370D01*
X019203Y020369D02*
X018893Y020369D01*
X019202Y020369D01*
X019202Y020368D02*
X018893Y020368D01*
X018892Y020367D02*
X019201Y020367D01*
X019201Y020366D02*
X018892Y020366D01*
X018892Y020365D02*
X019200Y020365D01*
X019200Y020364D02*
X018891Y020364D01*
X018891Y020363D02*
X019199Y020363D01*
X019199Y020362D02*
X018891Y020362D01*
X018890Y020361D02*
X019198Y020361D01*
X019198Y020360D02*
X018890Y020360D01*
X018890Y020359D02*
X019197Y020359D01*
X019197Y020358D02*
X018890Y020358D01*
X018889Y020357D02*
X019196Y020357D01*
X019196Y020356D02*
X018889Y020356D01*
X018889Y020355D02*
X019195Y020355D01*
X019195Y020354D02*
X018888Y020354D01*
X018888Y020353D02*
X019194Y020353D01*
X019194Y020352D02*
X018888Y020352D01*
X018888Y020351D02*
X019193Y020351D01*
X018887Y020351D01*
X018887Y020350D02*
X019192Y020350D01*
X019192Y020349D02*
X018887Y020349D01*
X018886Y020348D02*
X019191Y020348D01*
X019191Y020347D02*
X018886Y020347D01*
X018886Y020346D02*
X019190Y020346D01*
X019190Y020345D02*
X018885Y020345D01*
X018885Y020344D02*
X019189Y020344D01*
X019189Y020343D02*
X018885Y020343D01*
X018885Y020342D02*
X019188Y020342D01*
X019188Y020341D02*
X018884Y020341D01*
X018884Y020340D02*
X019187Y020340D01*
X019186Y020339D02*
X018884Y020339D01*
X018883Y020338D02*
X019186Y020338D01*
X019185Y020337D02*
X018883Y020337D01*
X018883Y020336D02*
X019185Y020336D01*
X019184Y020335D02*
X018883Y020335D01*
X018882Y020334D02*
X019184Y020334D01*
X019183Y020334D02*
X018882Y020334D01*
X018882Y020333D02*
X019183Y020333D01*
X019182Y020332D02*
X018881Y020332D01*
X018881Y020331D02*
X019182Y020331D01*
X019181Y020330D02*
X018881Y020330D01*
X018881Y020329D02*
X019181Y020329D01*
X019180Y020328D02*
X018880Y020328D01*
X018880Y020327D02*
X019180Y020327D01*
X019179Y020326D02*
X018880Y020326D01*
X018879Y020325D02*
X019179Y020325D01*
X019178Y020324D02*
X018879Y020324D01*
X018879Y020323D02*
X019178Y020323D01*
X019177Y020322D02*
X018878Y020322D01*
X018878Y020321D02*
X019177Y020321D01*
X019176Y020320D02*
X018878Y020320D01*
X018878Y020319D02*
X019176Y020319D01*
X019175Y020318D02*
X018877Y020318D01*
X018877Y020317D02*
X019175Y020317D01*
X019174Y020317D02*
X018877Y020317D01*
X018876Y020316D02*
X019174Y020316D01*
X019173Y020315D02*
X018876Y020315D01*
X018876Y020314D02*
X019173Y020314D01*
X019172Y020313D02*
X018876Y020313D01*
X018875Y020312D02*
X019172Y020312D01*
X019171Y020311D02*
X018875Y020311D01*
X018875Y020310D02*
X019171Y020310D01*
X019170Y020309D02*
X018874Y020309D01*
X018874Y020308D02*
X019170Y020308D01*
X019169Y020307D02*
X018874Y020307D01*
X018873Y020306D02*
X019169Y020306D01*
X019168Y020305D02*
X018873Y020305D01*
X018873Y020304D02*
X019167Y020304D01*
X019167Y020303D02*
X018873Y020303D01*
X018872Y020302D02*
X019166Y020302D01*
X019166Y020301D02*
X018872Y020301D01*
X018872Y020300D02*
X019165Y020300D01*
X018871Y020300D01*
X018871Y020299D02*
X019164Y020299D01*
X019164Y020298D02*
X018871Y020298D01*
X018871Y020297D02*
X019163Y020297D01*
X019163Y020296D02*
X018870Y020296D01*
X018870Y020295D02*
X019162Y020295D01*
X019162Y020294D02*
X018870Y020294D01*
X018869Y020293D02*
X019161Y020293D01*
X019161Y020292D02*
X018869Y020292D01*
X018869Y020291D02*
X019160Y020291D01*
X019160Y020290D02*
X018868Y020290D01*
X018868Y020289D02*
X019159Y020289D01*
X019159Y020288D02*
X018868Y020288D01*
X018868Y020287D02*
X019158Y020287D01*
X019158Y020286D02*
X018867Y020286D01*
X018867Y020285D02*
X019157Y020285D01*
X019157Y020284D02*
X018867Y020284D01*
X018866Y020283D02*
X019156Y020283D01*
X018866Y020283D01*
X018866Y020282D02*
X019155Y020282D01*
X019155Y020281D02*
X018866Y020281D01*
X018865Y020280D02*
X019155Y020280D01*
X019154Y020279D02*
X018865Y020279D01*
X018865Y020278D02*
X019154Y020278D01*
X019154Y020277D02*
X018864Y020277D01*
X018864Y020276D02*
X019154Y020276D01*
X019153Y020275D02*
X018864Y020275D01*
X018864Y020274D02*
X019153Y020274D01*
X019153Y020273D02*
X018863Y020273D01*
X018863Y020272D02*
X019152Y020272D01*
X019152Y020271D02*
X018863Y020271D01*
X018862Y020270D02*
X019152Y020270D01*
X019152Y020269D02*
X018862Y020269D01*
X018862Y020268D02*
X019151Y020268D01*
X019151Y020267D02*
X018861Y020267D01*
X018861Y020266D02*
X019151Y020266D01*
X019150Y020266D02*
X018861Y020266D01*
X018861Y020265D02*
X019150Y020265D01*
X019150Y020264D02*
X018860Y020264D01*
X018860Y020263D02*
X019149Y020263D01*
X019149Y020262D02*
X018860Y020262D01*
X018859Y020261D02*
X019149Y020261D01*
X019149Y020260D02*
X018859Y020260D01*
X018859Y020259D02*
X019148Y020259D01*
X019148Y020258D02*
X018859Y020258D01*
X018858Y020257D02*
X019148Y020257D01*
X019147Y020256D02*
X018858Y020256D01*
X018858Y020255D02*
X019147Y020255D01*
X019147Y020254D02*
X018857Y020254D01*
X018857Y020253D02*
X019147Y020253D01*
X019146Y020252D02*
X018857Y020252D01*
X018856Y020251D02*
X019146Y020251D01*
X019146Y020250D02*
X018856Y020250D01*
X018856Y020249D02*
X019145Y020249D01*
X018856Y020249D01*
X018855Y020248D02*
X019145Y020248D01*
X019145Y020247D02*
X018855Y020247D01*
X018855Y020246D02*
X019144Y020246D01*
X019144Y020245D02*
X018854Y020245D01*
X018854Y020244D02*
X019144Y020244D01*
X019143Y020243D02*
X018854Y020243D01*
X018854Y020242D02*
X019143Y020242D01*
X019143Y020241D02*
X018853Y020241D01*
X018853Y020240D02*
X019142Y020240D01*
X019142Y020239D02*
X018853Y020239D01*
X018853Y020238D02*
X019142Y020238D01*
X019142Y020237D02*
X018853Y020237D01*
X018853Y020236D02*
X019141Y020236D01*
X019141Y020235D02*
X018853Y020235D01*
X018853Y020234D02*
X019141Y020234D01*
X019140Y020233D02*
X018853Y020233D01*
X018852Y020232D02*
X019140Y020232D01*
X019140Y020231D02*
X018852Y020231D01*
X019140Y020231D01*
X019139Y020230D02*
X018852Y020230D01*
X018852Y020229D02*
X019139Y020229D01*
X019139Y020228D02*
X018852Y020228D01*
X018852Y020227D02*
X019138Y020227D01*
X019138Y020226D02*
X018852Y020226D01*
X018852Y020225D02*
X019138Y020225D01*
X019137Y020224D02*
X018852Y020224D01*
X018852Y020223D02*
X019137Y020223D01*
X019137Y020222D02*
X018851Y020222D01*
X018851Y020221D02*
X019137Y020221D01*
X019136Y020220D02*
X018851Y020220D01*
X018851Y020219D02*
X019136Y020219D01*
X019136Y020218D02*
X018851Y020218D01*
X018851Y020217D02*
X019135Y020217D01*
X019135Y020216D02*
X018851Y020216D01*
X018851Y020215D02*
X019135Y020215D01*
X019135Y020214D02*
X018851Y020214D01*
X019134Y020214D01*
X019134Y020213D02*
X018850Y020213D01*
X018850Y020212D02*
X019134Y020212D01*
X019133Y020211D02*
X018850Y020211D01*
X018850Y020210D02*
X019133Y020210D01*
X019133Y020209D02*
X018850Y020209D01*
X018850Y020208D02*
X019132Y020208D01*
X019132Y020207D02*
X018850Y020207D01*
X018850Y020206D02*
X019132Y020206D01*
X019132Y020205D02*
X018850Y020205D01*
X018850Y020204D02*
X019131Y020204D01*
X019131Y020203D02*
X018850Y020203D01*
X018849Y020202D02*
X019131Y020202D01*
X019130Y020201D02*
X018849Y020201D01*
X018849Y020200D02*
X019130Y020200D01*
X019130Y020199D02*
X018849Y020199D01*
X018849Y020198D02*
X019130Y020198D01*
X019129Y020197D02*
X018849Y020197D01*
X019129Y020197D01*
X019129Y020196D02*
X018849Y020196D01*
X018849Y020195D02*
X019128Y020195D01*
X019128Y020194D02*
X018849Y020194D01*
X018849Y020193D02*
X019128Y020193D01*
X019128Y020192D02*
X018848Y020192D01*
X018848Y020191D02*
X019127Y020191D01*
X019127Y020190D02*
X018848Y020190D01*
X018848Y020189D02*
X019127Y020189D01*
X019126Y020188D02*
X018848Y020188D01*
X018848Y020187D02*
X019126Y020187D01*
X019126Y020186D02*
X018848Y020186D01*
X018848Y020185D02*
X019126Y020185D01*
X019125Y020184D02*
X018848Y020184D01*
X018848Y020183D02*
X019125Y020183D01*
X019125Y020182D02*
X018847Y020182D01*
X018847Y020181D02*
X019125Y020181D01*
X019125Y020180D02*
X018847Y020180D01*
X019125Y020180D01*
X019125Y020179D02*
X018847Y020179D01*
X018847Y020178D02*
X019125Y020178D01*
X019125Y020177D02*
X018847Y020177D01*
X018847Y020176D02*
X019125Y020176D01*
X019124Y020175D02*
X018847Y020175D01*
X018847Y020174D02*
X019124Y020174D01*
X019124Y020173D02*
X018846Y020173D01*
X018846Y020172D02*
X019124Y020172D01*
X019124Y020171D02*
X018846Y020171D01*
X018846Y020170D02*
X019124Y020170D01*
X019124Y020169D02*
X018846Y020169D01*
X018846Y020168D02*
X019124Y020168D01*
X019124Y020167D02*
X018846Y020167D01*
X018846Y020166D02*
X019124Y020166D01*
X019124Y020165D02*
X018846Y020165D01*
X018846Y020164D02*
X019123Y020164D01*
X019123Y020163D02*
X018846Y020163D01*
X018845Y020163D02*
X019123Y020163D01*
X019123Y020162D02*
X018845Y020162D01*
X018845Y020161D02*
X019123Y020161D01*
X019123Y020160D02*
X018845Y020160D01*
X018845Y020159D02*
X019123Y020159D01*
X019123Y020158D02*
X018845Y020158D01*
X018845Y020157D02*
X019123Y020157D01*
X019123Y020156D02*
X018845Y020156D01*
X018845Y020155D02*
X019122Y020155D01*
X019122Y020154D02*
X018845Y020154D01*
X018844Y020153D02*
X019122Y020153D01*
X019122Y020152D02*
X018844Y020152D01*
X018844Y020151D02*
X019122Y020151D01*
X019122Y020150D02*
X018844Y020150D01*
X018844Y020149D02*
X019122Y020149D01*
X019122Y020148D02*
X018844Y020148D01*
X018844Y020147D02*
X019122Y020147D01*
X019122Y020146D02*
X018844Y020146D01*
X019122Y020146D01*
X019121Y020145D02*
X018844Y020145D01*
X018844Y020144D02*
X019121Y020144D01*
X019121Y020143D02*
X018843Y020143D01*
X018843Y020142D02*
X019121Y020142D01*
X019121Y020141D02*
X018843Y020141D01*
X018843Y020140D02*
X019121Y020140D01*
X019121Y020139D02*
X018843Y020139D01*
X018843Y020138D02*
X019121Y020138D01*
X019121Y020137D02*
X018843Y020137D01*
X018843Y020136D02*
X019121Y020136D01*
X019120Y020135D02*
X018843Y020135D01*
X018843Y020134D02*
X019120Y020134D01*
X019120Y020133D02*
X018842Y020133D01*
X018842Y020132D02*
X019120Y020132D01*
X019120Y020131D02*
X018842Y020131D01*
X018842Y020130D02*
X019120Y020130D01*
X019120Y020129D02*
X018842Y020129D01*
X019120Y020129D01*
X019120Y020128D02*
X018842Y020128D01*
X018842Y020127D02*
X019120Y020127D01*
X019120Y020126D02*
X018842Y020126D01*
X018842Y020125D02*
X019119Y020125D01*
X019119Y020124D02*
X018842Y020124D01*
X018841Y020123D02*
X019119Y020123D01*
X019119Y020122D02*
X018841Y020122D01*
X018841Y020121D02*
X019119Y020121D01*
X019119Y020120D02*
X018841Y020120D01*
X018841Y020119D02*
X019119Y020119D01*
X019119Y020118D02*
X018841Y020118D01*
X018841Y020117D02*
X019119Y020117D01*
X019119Y020116D02*
X018841Y020116D01*
X018841Y020115D02*
X019119Y020115D01*
X019118Y020114D02*
X018841Y020114D01*
X018840Y020113D02*
X019118Y020113D01*
X019118Y020112D02*
X018840Y020112D01*
X018840Y020111D02*
X019118Y020111D01*
X018840Y020111D01*
X018840Y020110D02*
X019118Y020110D01*
X019118Y020109D02*
X018840Y020109D01*
X018840Y020108D02*
X019118Y020108D01*
X019118Y020107D02*
X018840Y020107D01*
X018840Y020106D02*
X019118Y020106D01*
X019117Y020105D02*
X018840Y020105D01*
X018840Y020104D02*
X019117Y020104D01*
X019117Y020103D02*
X018839Y020103D01*
X018839Y020102D02*
X019117Y020102D01*
X019117Y020101D02*
X018839Y020101D01*
X018839Y020100D02*
X019117Y020100D01*
X019117Y020099D02*
X018839Y020099D01*
X018839Y020098D02*
X019117Y020098D01*
X019117Y020097D02*
X018839Y020097D01*
X018839Y020096D02*
X019117Y020096D01*
X019116Y020095D02*
X018839Y020095D01*
X018839Y020094D02*
X019116Y020094D01*
X018838Y020094D01*
X018838Y020093D02*
X019116Y020093D01*
X019116Y020092D02*
X018838Y020092D01*
X018838Y020091D02*
X019116Y020091D01*
X019116Y020090D02*
X018838Y020090D01*
X018838Y020089D02*
X019116Y020089D01*
X019116Y020088D02*
X018838Y020088D01*
X018838Y020087D02*
X019116Y020087D01*
X019116Y020086D02*
X018838Y020086D01*
X018838Y020085D02*
X019115Y020085D01*
X019115Y020084D02*
X018838Y020084D01*
X018837Y020083D02*
X019115Y020083D01*
X019115Y020082D02*
X018837Y020082D01*
X018837Y020081D02*
X019115Y020081D01*
X019115Y020080D02*
X018837Y020080D01*
X018838Y020079D02*
X019115Y020079D01*
X019115Y020078D02*
X018838Y020078D01*
X018838Y020077D02*
X019115Y020077D01*
X019116Y020077D02*
X018838Y020077D01*
X018838Y020076D02*
X019116Y020076D01*
X019116Y020075D02*
X018838Y020075D01*
X018838Y020074D02*
X019116Y020074D01*
X019116Y020073D02*
X018838Y020073D01*
X018838Y020072D02*
X019116Y020072D01*
X019116Y020071D02*
X018838Y020071D01*
X018838Y020070D02*
X019116Y020070D01*
X019116Y020069D02*
X018839Y020069D01*
X018839Y020068D02*
X019116Y020068D01*
X019117Y020067D02*
X018839Y020067D01*
X018839Y020066D02*
X019117Y020066D01*
X019117Y020065D02*
X018839Y020065D01*
X018839Y020064D02*
X019117Y020064D01*
X019117Y020063D02*
X018839Y020063D01*
X018839Y020062D02*
X019117Y020062D01*
X019117Y020061D02*
X018839Y020061D01*
X018839Y020060D02*
X019117Y020060D01*
X018840Y020060D01*
X018840Y020059D02*
X019117Y020059D01*
X019117Y020058D02*
X018840Y020058D01*
X018840Y020057D02*
X019118Y020057D01*
X019118Y020056D02*
X018840Y020056D01*
X018840Y020055D02*
X019118Y020055D01*
X019118Y020054D02*
X018840Y020054D01*
X018840Y020053D02*
X019118Y020053D01*
X019118Y020052D02*
X018840Y020052D01*
X018840Y020051D02*
X019118Y020051D01*
X019118Y020050D02*
X018840Y020050D01*
X018841Y020049D02*
X019118Y020049D01*
X019118Y020048D02*
X018841Y020048D01*
X018841Y020047D02*
X019119Y020047D01*
X019119Y020046D02*
X018841Y020046D01*
X018841Y020045D02*
X019119Y020045D01*
X019119Y020044D02*
X018841Y020044D01*
X018841Y020043D02*
X019119Y020043D01*
X018841Y020043D01*
X018841Y020042D02*
X019119Y020042D01*
X019119Y020041D02*
X018841Y020041D01*
X018842Y020040D02*
X019119Y020040D01*
X019119Y020039D02*
X018842Y020039D01*
X018842Y020038D02*
X019119Y020038D01*
X019120Y020037D02*
X018842Y020037D01*
X018842Y020036D02*
X019120Y020036D01*
X019120Y020035D02*
X018842Y020035D01*
X018842Y020034D02*
X019120Y020034D01*
X019120Y020033D02*
X018842Y020033D01*
X018842Y020032D02*
X019120Y020032D01*
X019120Y020031D02*
X018842Y020031D01*
X018842Y020030D02*
X019120Y020030D01*
X019120Y020029D02*
X018843Y020029D01*
X018843Y020028D02*
X019120Y020028D01*
X019121Y020027D02*
X018843Y020027D01*
X018843Y020026D02*
X019121Y020026D01*
X018843Y020026D01*
X018843Y020025D02*
X019121Y020025D01*
X019121Y020024D02*
X018843Y020024D01*
X018843Y020023D02*
X019121Y020023D01*
X019121Y020022D02*
X018843Y020022D01*
X018843Y020021D02*
X019121Y020021D01*
X019121Y020020D02*
X018844Y020020D01*
X018844Y020019D02*
X019121Y020019D01*
X019121Y020018D02*
X018844Y020018D01*
X018844Y020017D02*
X019122Y020017D01*
X019122Y020016D02*
X018844Y020016D01*
X018844Y020015D02*
X019122Y020015D01*
X019122Y020014D02*
X018844Y020014D01*
X018844Y020013D02*
X019122Y020013D01*
X019122Y020012D02*
X018844Y020012D01*
X018844Y020011D02*
X019122Y020011D01*
X019122Y020010D02*
X018844Y020010D01*
X018845Y020009D02*
X019122Y020009D01*
X018845Y020009D01*
X018845Y020008D02*
X019123Y020008D01*
X019123Y020007D02*
X018845Y020007D01*
X018845Y020006D02*
X019123Y020006D01*
X019123Y020005D02*
X018845Y020005D01*
X018845Y020004D02*
X019123Y020004D01*
X019123Y020003D02*
X018845Y020003D01*
X018845Y020002D02*
X019123Y020002D01*
X019123Y020001D02*
X018845Y020001D01*
X018846Y020000D02*
X019123Y020000D01*
X019123Y019999D02*
X018846Y019999D01*
X018846Y019998D02*
X019123Y019998D01*
X019124Y019997D02*
X018846Y019997D01*
X018846Y019996D02*
X019124Y019996D01*
X019124Y019995D02*
X018846Y019995D01*
X018846Y019994D02*
X019124Y019994D01*
X019124Y019993D02*
X018846Y019993D01*
X018846Y019992D02*
X019124Y019992D01*
X019124Y019991D02*
X018846Y019991D01*
X019124Y019991D01*
X019124Y019990D02*
X018847Y019990D01*
X018847Y019989D02*
X019124Y019989D01*
X019125Y019988D02*
X018847Y019988D01*
X018847Y019987D02*
X019125Y019987D01*
X019125Y019986D02*
X018847Y019986D01*
X018847Y019985D02*
X019125Y019985D01*
X019125Y019984D02*
X018847Y019984D01*
X018847Y019983D02*
X019125Y019983D01*
X019125Y019982D02*
X018847Y019982D01*
X018847Y019981D02*
X019125Y019981D01*
X019125Y019980D02*
X018848Y019980D01*
X018848Y019979D02*
X019125Y019979D01*
X019125Y019978D02*
X018848Y019978D01*
X018848Y019977D02*
X019126Y019977D01*
X019126Y019976D02*
X018848Y019976D01*
X018848Y019975D02*
X019126Y019975D01*
X019126Y019974D02*
X018848Y019974D01*
X019127Y019974D01*
X019127Y019973D02*
X018848Y019973D01*
X018848Y019972D02*
X019127Y019972D01*
X019128Y019971D02*
X018849Y019971D01*
X018849Y019970D02*
X019128Y019970D01*
X019128Y019969D02*
X018849Y019969D01*
X018849Y019968D02*
X019129Y019968D01*
X019129Y019967D02*
X018849Y019967D01*
X018849Y019966D02*
X019129Y019966D01*
X019129Y019965D02*
X018849Y019965D01*
X018849Y019964D02*
X019130Y019964D01*
X019130Y019963D02*
X018849Y019963D01*
X018849Y019962D02*
X019130Y019962D01*
X019131Y019961D02*
X018849Y019961D01*
X018850Y019960D02*
X019131Y019960D01*
X019131Y019959D02*
X018850Y019959D01*
X018850Y019958D02*
X019131Y019958D01*
X019132Y019957D02*
X018850Y019957D01*
X019132Y019957D01*
X019132Y019956D02*
X018850Y019956D01*
X018850Y019955D02*
X019133Y019955D01*
X019133Y019954D02*
X018850Y019954D01*
X018850Y019953D02*
X019133Y019953D01*
X019134Y019952D02*
X018850Y019952D01*
X018851Y019951D02*
X019134Y019951D01*
X019134Y019950D02*
X018851Y019950D01*
X018851Y019949D02*
X019134Y019949D01*
X019135Y019948D02*
X018851Y019948D01*
X018851Y019947D02*
X019135Y019947D01*
X019135Y019946D02*
X018851Y019946D01*
X018851Y019945D02*
X019136Y019945D01*
X019136Y019944D02*
X018851Y019944D01*
X018851Y019943D02*
X019136Y019943D01*
X019136Y019942D02*
X018851Y019942D01*
X018851Y019941D02*
X019137Y019941D01*
X019137Y019940D02*
X018852Y019940D01*
X019137Y019940D01*
X019138Y019939D02*
X018852Y019939D01*
X018852Y019938D02*
X019138Y019938D01*
X019138Y019937D02*
X018852Y019937D01*
X018852Y019936D02*
X019139Y019936D01*
X019139Y019935D02*
X018852Y019935D01*
X018852Y019934D02*
X019139Y019934D01*
X019139Y019933D02*
X018852Y019933D01*
X018852Y019932D02*
X019140Y019932D01*
X019140Y019931D02*
X018852Y019931D01*
X018853Y019930D02*
X019140Y019930D01*
X019141Y019929D02*
X018853Y019929D01*
X018853Y019928D02*
X019141Y019928D01*
X019141Y019927D02*
X018853Y019927D01*
X018853Y019926D02*
X019141Y019926D01*
X019142Y019925D02*
X018853Y019925D01*
X018853Y019924D02*
X019142Y019924D01*
X019142Y019923D02*
X018853Y019923D01*
X019143Y019923D01*
X019143Y019922D02*
X018853Y019922D01*
X018854Y019921D02*
X019143Y019921D01*
X019144Y019920D02*
X018854Y019920D01*
X018854Y019919D02*
X019144Y019919D01*
X019144Y019918D02*
X018855Y019918D01*
X018855Y019917D02*
X019144Y019917D01*
X019145Y019916D02*
X018855Y019916D01*
X018856Y019915D02*
X019145Y019915D01*
X019145Y019914D02*
X018856Y019914D01*
X018856Y019913D02*
X019146Y019913D01*
X019146Y019912D02*
X018856Y019912D01*
X018857Y019911D02*
X019146Y019911D01*
X019146Y019910D02*
X018857Y019910D01*
X018857Y019909D02*
X019147Y019909D01*
X019147Y019908D02*
X018858Y019908D01*
X018858Y019907D02*
X019147Y019907D01*
X019148Y019906D02*
X018858Y019906D01*
X019148Y019906D01*
X019148Y019905D02*
X018859Y019905D01*
X018859Y019904D02*
X019149Y019904D01*
X019149Y019903D02*
X018859Y019903D01*
X018860Y019902D02*
X019149Y019902D01*
X019149Y019901D02*
X018860Y019901D01*
X018860Y019900D02*
X019150Y019900D01*
X019150Y019899D02*
X018861Y019899D01*
X018861Y019898D02*
X019150Y019898D01*
X019151Y019897D02*
X018861Y019897D01*
X018861Y019896D02*
X019151Y019896D01*
X019151Y019895D02*
X018862Y019895D01*
X018862Y019894D02*
X019151Y019894D01*
X019152Y019893D02*
X018862Y019893D01*
X018863Y019892D02*
X019152Y019892D01*
X019152Y019891D02*
X018863Y019891D01*
X018863Y019890D02*
X019153Y019890D01*
X019153Y019889D02*
X018863Y019889D01*
X018864Y019889D02*
X019153Y019889D01*
X019153Y019888D02*
X018864Y019888D01*
X018864Y019887D02*
X019154Y019887D01*
X019154Y019886D02*
X018865Y019886D01*
X018865Y019885D02*
X019154Y019885D01*
X019155Y019884D02*
X018865Y019884D01*
X018865Y019883D02*
X019155Y019883D01*
X019155Y019882D02*
X018866Y019882D01*
X018866Y019881D02*
X019156Y019881D01*
X019156Y019880D02*
X018866Y019880D01*
X018867Y019879D02*
X019156Y019879D01*
X019157Y019878D02*
X018867Y019878D01*
X018867Y019877D02*
X019158Y019877D01*
X019158Y019876D02*
X018868Y019876D01*
X018868Y019875D02*
X019159Y019875D01*
X019159Y019874D02*
X018868Y019874D01*
X018868Y019873D02*
X019160Y019873D01*
X019160Y019872D02*
X018869Y019872D01*
X018869Y019871D02*
X019161Y019871D01*
X018869Y019871D01*
X018870Y019870D02*
X019162Y019870D01*
X019162Y019869D02*
X018870Y019869D01*
X018870Y019868D02*
X019163Y019868D01*
X019163Y019867D02*
X018870Y019867D01*
X018871Y019866D02*
X019164Y019866D01*
X019164Y019865D02*
X018871Y019865D01*
X018871Y019864D02*
X019165Y019864D01*
X019165Y019863D02*
X018872Y019863D01*
X018872Y019862D02*
X019166Y019862D01*
X019166Y019861D02*
X018872Y019861D01*
X018873Y019860D02*
X019167Y019860D01*
X019167Y019859D02*
X018873Y019859D01*
X018873Y019858D02*
X019168Y019858D01*
X019168Y019857D02*
X018873Y019857D01*
X018874Y019856D02*
X019169Y019856D01*
X019169Y019855D02*
X018874Y019855D01*
X018874Y019854D02*
X019170Y019854D01*
X018875Y019854D01*
X018875Y019853D02*
X019171Y019853D01*
X019171Y019852D02*
X018875Y019852D01*
X018875Y019851D02*
X019172Y019851D01*
X019172Y019850D02*
X018876Y019850D01*
X018876Y019849D02*
X019173Y019849D01*
X019173Y019848D02*
X018876Y019848D01*
X018877Y019847D02*
X019174Y019847D01*
X019174Y019846D02*
X018877Y019846D01*
X018877Y019845D02*
X019175Y019845D01*
X019176Y019844D02*
X018878Y019844D01*
X018878Y019843D02*
X019176Y019843D01*
X019177Y019842D02*
X018878Y019842D01*
X018878Y019841D02*
X019177Y019841D01*
X019178Y019840D02*
X018879Y019840D01*
X018879Y019839D02*
X019178Y019839D01*
X019179Y019838D02*
X018879Y019838D01*
X018880Y019837D02*
X019179Y019837D01*
X019180Y019837D02*
X018880Y019837D01*
X018880Y019836D02*
X019180Y019836D01*
X019181Y019835D02*
X018880Y019835D01*
X018881Y019834D02*
X019181Y019834D01*
X019182Y019833D02*
X018881Y019833D01*
X018881Y019832D02*
X019182Y019832D01*
X019183Y019831D02*
X018882Y019831D01*
X018882Y019830D02*
X019183Y019830D01*
X019184Y019829D02*
X018882Y019829D01*
X018882Y019828D02*
X019184Y019828D01*
X019185Y019827D02*
X018883Y019827D01*
X018883Y019826D02*
X019185Y019826D01*
X019186Y019825D02*
X018883Y019825D01*
X018884Y019824D02*
X019186Y019824D01*
X019187Y019823D02*
X018884Y019823D01*
X018884Y019822D02*
X019187Y019822D01*
X019188Y019821D02*
X018885Y019821D01*
X018885Y019820D02*
X019188Y019820D01*
X019189Y019820D02*
X018885Y019820D01*
X018885Y019819D02*
X019189Y019819D01*
X019190Y019818D02*
X018886Y019818D01*
X018886Y019817D02*
X019190Y019817D01*
X019191Y019816D02*
X018886Y019816D01*
X018887Y019815D02*
X019191Y019815D01*
X019192Y019814D02*
X018887Y019814D01*
X018887Y019813D02*
X019192Y019813D01*
X019193Y019812D02*
X018887Y019812D01*
X018888Y019811D02*
X019193Y019811D01*
X019194Y019810D02*
X018888Y019810D01*
X018888Y019809D02*
X019194Y019809D01*
X019195Y019808D02*
X018889Y019808D01*
X018889Y019807D02*
X019196Y019807D01*
X019196Y019806D02*
X018889Y019806D01*
X018890Y019805D02*
X019197Y019805D01*
X019197Y019804D02*
X018890Y019804D01*
X018890Y019803D02*
X019198Y019803D01*
X018890Y019803D01*
X018891Y019802D02*
X019199Y019802D01*
X019199Y019801D02*
X018891Y019801D01*
X018891Y019800D02*
X019200Y019800D01*
X019200Y019799D02*
X018892Y019799D01*
X018892Y019798D02*
X019201Y019798D01*
X019201Y019797D02*
X018892Y019797D01*
X018892Y019796D02*
X019202Y019796D01*
X019202Y019795D02*
X018893Y019795D01*
X018893Y019794D02*
X019203Y019794D01*
X019203Y019793D02*
X018893Y019793D01*
X018894Y019792D02*
X019204Y019792D01*
X019205Y019791D02*
X018894Y019791D01*
X018894Y019790D02*
X019206Y019790D01*
X019206Y019789D02*
X018895Y019789D01*
X018895Y019788D02*
X019207Y019788D01*
X019208Y019787D02*
X018895Y019787D01*
X018895Y019786D02*
X019209Y019786D01*
X018896Y019786D01*
X018896Y019785D02*
X019210Y019785D01*
X019211Y019784D02*
X018896Y019784D01*
X018897Y019783D02*
X019212Y019783D01*
X019213Y019782D02*
X018897Y019782D01*
X018897Y019781D02*
X019213Y019781D01*
X019214Y019780D02*
X018897Y019780D01*
X018898Y019779D02*
X019215Y019779D01*
X019216Y019778D02*
X018898Y019778D01*
X018898Y019777D02*
X019216Y019777D01*
X019217Y019776D02*
X018899Y019776D01*
X018899Y019775D02*
X019218Y019775D01*
X019219Y019774D02*
X018899Y019774D01*
X018899Y019773D02*
X019220Y019773D01*
X019220Y019772D02*
X018900Y019772D01*
X018900Y019771D02*
X019221Y019771D01*
X019222Y019770D02*
X018901Y019770D01*
X018901Y019769D02*
X019223Y019769D01*
X019224Y019769D02*
X018902Y019769D01*
X018902Y019768D02*
X019224Y019768D01*
X019225Y019767D02*
X018903Y019767D01*
X018903Y019766D02*
X019226Y019766D01*
X019227Y019765D02*
X018904Y019765D01*
X018904Y019764D02*
X019227Y019764D01*
X019228Y019763D02*
X018905Y019763D01*
X018906Y019762D02*
X019229Y019762D01*
X019230Y019761D02*
X018906Y019761D01*
X018907Y019760D02*
X019231Y019760D01*
X019231Y019759D02*
X018907Y019759D01*
X018908Y019758D02*
X019232Y019758D01*
X019233Y019757D02*
X018908Y019757D01*
X018909Y019756D02*
X019234Y019756D01*
X019234Y019755D02*
X018909Y019755D01*
X018910Y019754D02*
X019235Y019754D01*
X019236Y019753D02*
X018910Y019753D01*
X018911Y019752D02*
X019237Y019752D01*
X019238Y019751D02*
X018911Y019751D01*
X018912Y019751D02*
X019238Y019751D01*
X019239Y019750D02*
X018912Y019750D01*
X018913Y019749D02*
X019240Y019749D01*
X019241Y019748D02*
X018913Y019748D01*
X018914Y019747D02*
X019241Y019747D01*
X019242Y019746D02*
X018914Y019746D01*
X018915Y019745D02*
X019243Y019745D01*
X019244Y019744D02*
X018915Y019744D01*
X018916Y019743D02*
X019245Y019743D01*
X019245Y019742D02*
X018916Y019742D01*
X018917Y019741D02*
X019246Y019741D01*
X019247Y019740D02*
X018917Y019740D01*
X018918Y019739D02*
X019248Y019739D01*
X019248Y019738D02*
X018918Y019738D01*
X018919Y019737D02*
X019249Y019737D01*
X019250Y019736D02*
X018919Y019736D01*
X018920Y019735D02*
X019251Y019735D01*
X019252Y019734D02*
X018920Y019734D01*
X018921Y019734D02*
X019252Y019734D01*
X019253Y019733D02*
X018921Y019733D01*
X018922Y019732D02*
X019254Y019732D01*
X019255Y019731D02*
X018922Y019731D01*
X018923Y019730D02*
X019255Y019730D01*
X019256Y019729D02*
X018923Y019729D01*
X018924Y019728D02*
X019257Y019728D01*
X019258Y019727D02*
X018924Y019727D01*
X018925Y019726D02*
X019259Y019726D01*
X019259Y019725D02*
X018926Y019725D01*
X018926Y019724D02*
X019260Y019724D01*
X019261Y019723D02*
X018927Y019723D01*
X018927Y019722D02*
X019262Y019722D01*
X019262Y019721D02*
X018928Y019721D01*
X018928Y019720D02*
X019263Y019720D01*
X019264Y019719D02*
X018929Y019719D01*
X018929Y019718D02*
X019265Y019718D01*
X019266Y019717D02*
X018930Y019717D01*
X019266Y019717D01*
X019268Y019716D02*
X018931Y019716D01*
X018931Y019715D02*
X019269Y019715D01*
X019270Y019714D02*
X018932Y019714D01*
X018932Y019713D02*
X019271Y019713D01*
X019272Y019712D02*
X018933Y019712D01*
X018933Y019711D02*
X019273Y019711D01*
X019274Y019710D02*
X018934Y019710D01*
X018934Y019709D02*
X019276Y019709D01*
X019277Y019708D02*
X018935Y019708D01*
X018935Y019707D02*
X019278Y019707D01*
X019279Y019706D02*
X018936Y019706D01*
X018936Y019705D02*
X019280Y019705D01*
X019281Y019704D02*
X018937Y019704D01*
X018937Y019703D02*
X019282Y019703D01*
X019284Y019702D02*
X018938Y019702D01*
X018938Y019701D02*
X019285Y019701D01*
X019286Y019700D02*
X018939Y019700D01*
X019287Y019700D01*
X019288Y019699D02*
X018940Y019699D01*
X018940Y019698D02*
X019289Y019698D01*
X019291Y019697D02*
X018941Y019697D01*
X018941Y019696D02*
X019292Y019696D01*
X019293Y019695D02*
X018942Y019695D01*
X018942Y019694D02*
X019294Y019694D01*
X019295Y019693D02*
X018943Y019693D01*
X018943Y019692D02*
X019296Y019692D01*
X019297Y019691D02*
X018944Y019691D01*
X018944Y019690D02*
X019299Y019690D01*
X019300Y019689D02*
X018945Y019689D01*
X018946Y019688D02*
X019301Y019688D01*
X019302Y019687D02*
X018946Y019687D01*
X018947Y019686D02*
X019303Y019686D01*
X019304Y019685D02*
X018947Y019685D01*
X018948Y019684D02*
X019305Y019684D01*
X019307Y019683D02*
X018948Y019683D01*
X018949Y019683D02*
X019308Y019683D01*
X019309Y019682D02*
X018949Y019682D01*
X018950Y019681D02*
X019310Y019681D01*
X019311Y019680D02*
X018950Y019680D01*
X018951Y019679D02*
X019312Y019679D01*
X019313Y019678D02*
X018951Y019678D01*
X018952Y019677D02*
X019315Y019677D01*
X019316Y019676D02*
X018952Y019676D01*
X018953Y019675D02*
X019317Y019675D01*
X019318Y019674D02*
X018953Y019674D01*
X018954Y019673D02*
X019319Y019673D01*
X019320Y019672D02*
X018954Y019672D01*
X018955Y019671D02*
X019321Y019671D01*
X019323Y019670D02*
X018955Y019670D01*
X018956Y019669D02*
X019324Y019669D01*
X019325Y019668D02*
X018956Y019668D01*
X018957Y019667D02*
X019326Y019667D01*
X019327Y019666D02*
X018957Y019666D01*
X018958Y019666D02*
X019328Y019666D01*
X019329Y019665D02*
X018958Y019665D01*
X018959Y019664D02*
X019331Y019664D01*
X019332Y019663D02*
X018959Y019663D01*
X018960Y019662D02*
X019333Y019662D01*
X019334Y019661D02*
X018960Y019661D01*
X018961Y019660D02*
X019335Y019660D01*
X019336Y019659D02*
X018961Y019659D01*
X018962Y019658D02*
X019337Y019658D01*
X019339Y019657D02*
X018962Y019657D01*
X018963Y019656D02*
X019340Y019656D01*
X019341Y019655D02*
X018963Y019655D01*
X018964Y019654D02*
X019342Y019654D01*
X019344Y019653D02*
X018964Y019653D01*
X018965Y019652D02*
X019345Y019652D01*
X019347Y019651D02*
X018966Y019651D01*
X018966Y019650D02*
X019349Y019650D01*
X019351Y019649D02*
X018967Y019649D01*
X019352Y019649D01*
X019354Y019648D02*
X018968Y019648D01*
X018968Y019647D02*
X019356Y019647D01*
X019358Y019646D02*
X018969Y019646D01*
X018969Y019645D02*
X019359Y019645D01*
X019361Y019644D02*
X018970Y019644D01*
X018970Y019643D02*
X019363Y019643D01*
X019364Y019642D02*
X018971Y019642D01*
X018971Y019641D02*
X019366Y019641D01*
X019368Y019640D02*
X018972Y019640D01*
X018972Y019639D02*
X019370Y019639D01*
X019371Y019638D02*
X018973Y019638D01*
X018973Y019637D02*
X019373Y019637D01*
X019375Y019636D02*
X018974Y019636D01*
X018975Y019635D02*
X019377Y019635D01*
X019378Y019634D02*
X018976Y019634D01*
X018977Y019633D02*
X019380Y019633D01*
X019382Y019632D02*
X018977Y019632D01*
X018978Y019631D02*
X019384Y019631D01*
X019385Y019631D02*
X018979Y019631D01*
X018980Y019630D02*
X019387Y019630D01*
X019389Y019629D02*
X018980Y019629D01*
X018981Y019628D02*
X019391Y019628D01*
X019392Y019627D02*
X018982Y019627D01*
X018983Y019626D02*
X019394Y019626D01*
X019396Y019625D02*
X018984Y019625D01*
X018984Y019624D02*
X019398Y019624D01*
X019399Y019623D02*
X018985Y019623D01*
X018986Y019622D02*
X019401Y019622D01*
X019403Y019621D02*
X018987Y019621D01*
X018987Y019620D02*
X019404Y019620D01*
X019406Y019619D02*
X018988Y019619D01*
X018989Y019618D02*
X019408Y019618D01*
X019410Y019617D02*
X018990Y019617D01*
X018991Y019616D02*
X019411Y019616D01*
X019413Y019615D02*
X018991Y019615D01*
X018992Y019614D02*
X019415Y019614D01*
X019417Y019614D02*
X018993Y019614D01*
X018994Y019613D02*
X019418Y019613D01*
X019420Y019612D02*
X018994Y019612D01*
X018995Y019611D02*
X019422Y019611D01*
X019424Y019610D02*
X018996Y019610D01*
X018997Y019609D02*
X019425Y019609D01*
X019427Y019608D02*
X018998Y019608D01*
X018998Y019607D02*
X019429Y019607D01*
X019431Y019606D02*
X018999Y019606D01*
X019000Y019605D02*
X019434Y019605D01*
X019437Y019604D02*
X019001Y019604D01*
X019001Y019603D02*
X019440Y019603D01*
X019443Y019602D02*
X019002Y019602D01*
X019003Y019601D02*
X019446Y019601D01*
X019449Y019600D02*
X019004Y019600D01*
X019005Y019599D02*
X019452Y019599D01*
X019455Y019598D02*
X019005Y019598D01*
X019006Y019597D02*
X019458Y019597D01*
X019461Y019597D02*
X019007Y019597D01*
X019008Y019596D02*
X019464Y019596D01*
X019467Y019595D02*
X019009Y019595D01*
X019009Y019594D02*
X019471Y019594D01*
X019474Y019593D02*
X019010Y019593D01*
X019011Y019592D02*
X019477Y019592D01*
X019480Y019591D02*
X019012Y019591D01*
X019012Y019590D02*
X019483Y019590D01*
X019486Y019589D02*
X019013Y019589D01*
X019014Y019588D02*
X019489Y019588D01*
X019492Y019587D02*
X019015Y019587D01*
X019016Y019586D02*
X019495Y019586D01*
X019498Y019585D02*
X019016Y019585D01*
X019017Y019584D02*
X019501Y019584D01*
X019504Y019583D02*
X019018Y019583D01*
X019019Y019582D02*
X019507Y019582D01*
X019510Y019581D02*
X019019Y019581D01*
X019020Y019580D02*
X019513Y019580D01*
X019516Y019580D02*
X019021Y019580D01*
X019022Y019579D02*
X019519Y019579D01*
X019522Y019578D02*
X019023Y019578D01*
X019023Y019577D02*
X019525Y019577D01*
X019531Y019576D02*
X019024Y019576D01*
X019025Y019575D02*
X019541Y019575D01*
X019550Y019574D02*
X019026Y019574D01*
X019026Y019573D02*
X019559Y019573D01*
X019569Y019572D02*
X019027Y019572D01*
X019028Y019571D02*
X019578Y019571D01*
X019588Y019570D02*
X019029Y019570D01*
X019030Y019569D02*
X019597Y019569D01*
X019606Y019568D02*
X019030Y019568D01*
X019031Y019567D02*
X019616Y019567D01*
X019625Y019566D02*
X019032Y019566D01*
X019033Y019565D02*
X019631Y019565D01*
X020229Y019565D01*
X020228Y019564D02*
X019631Y019564D01*
X019033Y019564D01*
X019034Y019563D02*
X019631Y019563D01*
X020228Y019563D01*
X020227Y019563D02*
X019631Y019563D01*
X019035Y019563D01*
X019036Y019562D02*
X019631Y019562D01*
X020226Y019562D01*
X020225Y019561D02*
X019631Y019561D01*
X019037Y019561D01*
X019037Y019560D02*
X019631Y019560D01*
X020225Y019560D01*
X020224Y019559D02*
X019631Y019559D01*
X019038Y019559D01*
X019039Y019558D02*
X019631Y019558D01*
X020223Y019558D01*
X020222Y019557D02*
X019631Y019557D01*
X019040Y019557D01*
X019040Y019556D02*
X019631Y019556D01*
X020221Y019556D01*
X020221Y019555D02*
X019631Y019555D01*
X019041Y019555D01*
X019042Y019554D02*
X019631Y019554D01*
X020220Y019554D01*
X020219Y019553D02*
X019631Y019553D01*
X019043Y019553D01*
X019044Y019552D02*
X019631Y019552D01*
X020218Y019552D01*
X020218Y019551D02*
X019631Y019551D01*
X019044Y019551D01*
X019045Y019550D02*
X019631Y019550D01*
X020217Y019550D01*
X020216Y019549D02*
X019631Y019549D01*
X019046Y019549D01*
X019047Y019548D02*
X019631Y019548D01*
X020215Y019548D01*
X020214Y019547D02*
X019631Y019547D01*
X019047Y019547D01*
X019048Y019546D02*
X019631Y019546D01*
X020214Y019546D01*
X020213Y019546D02*
X019631Y019546D01*
X019049Y019546D01*
X019050Y019545D02*
X019631Y019545D01*
X020212Y019545D01*
X020211Y019544D02*
X019631Y019544D01*
X019051Y019544D01*
X019051Y019543D02*
X019631Y019543D01*
X020211Y019543D01*
X020210Y019542D02*
X019631Y019542D01*
X019052Y019542D01*
X019053Y019541D02*
X019631Y019541D01*
X020209Y019541D01*
X020208Y019540D02*
X019631Y019540D01*
X019054Y019540D01*
X019054Y019539D02*
X019631Y019539D01*
X020207Y019539D01*
X020207Y019538D02*
X019631Y019538D01*
X019055Y019538D01*
X019056Y019537D02*
X019631Y019537D01*
X020206Y019537D01*
X020205Y019536D02*
X019631Y019536D01*
X019057Y019536D01*
X019058Y019535D02*
X019631Y019535D01*
X020204Y019535D01*
X020204Y019534D02*
X019631Y019534D01*
X019058Y019534D01*
X019059Y019533D02*
X019631Y019533D01*
X020203Y019533D01*
X020202Y019532D02*
X019631Y019532D01*
X019060Y019532D01*
X019061Y019531D02*
X019631Y019531D01*
X020201Y019531D01*
X020200Y019530D02*
X019631Y019530D01*
X019061Y019530D01*
X019062Y019529D02*
X019631Y019529D01*
X020200Y019529D01*
X020199Y019529D02*
X019631Y019529D01*
X019063Y019529D01*
X019064Y019528D02*
X019631Y019528D01*
X020198Y019528D01*
X020197Y019527D02*
X019631Y019527D01*
X019065Y019527D01*
X019065Y019526D02*
X019631Y019526D01*
X020196Y019526D01*
X020196Y019525D02*
X019631Y019525D01*
X019066Y019525D01*
X019067Y019524D02*
X019631Y019524D01*
X020195Y019524D01*
X020194Y019523D02*
X019631Y019523D01*
X019068Y019523D01*
X019069Y019522D02*
X019631Y019522D01*
X020193Y019522D01*
X020193Y019521D02*
X019631Y019521D01*
X019069Y019521D01*
X019070Y019520D02*
X019631Y019520D01*
X020192Y019520D01*
X020191Y019519D02*
X019631Y019519D01*
X019071Y019519D01*
X019073Y019518D02*
X019631Y019518D01*
X020189Y019518D01*
X020188Y019517D02*
X019631Y019517D01*
X019074Y019517D01*
X019075Y019516D02*
X019631Y019516D01*
X020187Y019516D01*
X020186Y019515D02*
X019631Y019515D01*
X019076Y019515D01*
X019077Y019514D02*
X019631Y019514D01*
X020185Y019514D01*
X020184Y019513D02*
X019631Y019513D01*
X019078Y019513D01*
X019079Y019512D02*
X019631Y019512D01*
X020183Y019512D01*
X020181Y019511D02*
X019631Y019511D01*
X020180Y019511D01*
X020179Y019510D02*
X019631Y019510D01*
X019083Y019510D01*
X019082Y019511D02*
X019631Y019511D01*
X019081Y019511D01*
X019084Y019509D02*
X019631Y019509D01*
X020178Y019509D01*
X020177Y019508D02*
X019631Y019508D01*
X019085Y019508D01*
X019086Y019507D02*
X019631Y019507D01*
X020176Y019507D01*
X020174Y019506D02*
X019631Y019506D01*
X019087Y019506D01*
X019089Y019505D02*
X019631Y019505D01*
X020173Y019505D01*
X020172Y019504D02*
X019631Y019504D01*
X019090Y019504D01*
X019091Y019503D02*
X019631Y019503D01*
X020171Y019503D01*
X020170Y019502D02*
X019631Y019502D01*
X019092Y019502D01*
X019093Y019501D02*
X019631Y019501D01*
X020169Y019501D01*
X020168Y019500D02*
X019631Y019500D01*
X019094Y019500D01*
X019095Y019499D02*
X019631Y019499D01*
X020166Y019499D01*
X020165Y019498D02*
X019631Y019498D01*
X019097Y019498D01*
X019098Y019497D02*
X019631Y019497D01*
X020164Y019497D01*
X020163Y019496D02*
X019631Y019496D01*
X019099Y019496D01*
X019100Y019495D02*
X019631Y019495D01*
X020162Y019495D01*
X020161Y019494D02*
X019631Y019494D01*
X019101Y019494D01*
X019102Y019494D02*
X019631Y019494D01*
X020160Y019494D01*
X020158Y019493D02*
X019631Y019493D01*
X019103Y019493D01*
X019105Y019492D02*
X019631Y019492D01*
X020157Y019492D01*
X020156Y019491D02*
X019631Y019491D01*
X019106Y019491D01*
X019107Y019490D02*
X019631Y019490D01*
X020155Y019490D01*
X020154Y019489D02*
X019631Y019489D01*
X019108Y019489D01*
X019109Y019488D02*
X019631Y019488D01*
X020153Y019488D01*
X020152Y019487D02*
X019631Y019487D01*
X019110Y019487D01*
X019111Y019486D02*
X019631Y019486D01*
X020150Y019486D01*
X020149Y019485D02*
X019631Y019485D01*
X019113Y019485D01*
X019114Y019484D02*
X019631Y019484D01*
X020148Y019484D01*
X020147Y019483D02*
X019631Y019483D01*
X019115Y019483D01*
X019116Y019482D02*
X019631Y019482D01*
X020146Y019482D01*
X020145Y019481D02*
X019631Y019481D01*
X019117Y019481D01*
X019118Y019480D02*
X019631Y019480D01*
X020144Y019480D01*
X020142Y019479D02*
X019631Y019479D01*
X019119Y019479D01*
X019121Y019478D02*
X019631Y019478D01*
X020141Y019478D01*
X020140Y019477D02*
X019631Y019477D01*
X019122Y019477D01*
X019123Y019477D02*
X019631Y019477D01*
X020139Y019477D01*
X020138Y019476D02*
X019631Y019476D01*
X019124Y019476D01*
X019125Y019475D02*
X019631Y019475D01*
X020137Y019475D01*
X020136Y019474D02*
X019631Y019474D01*
X019126Y019474D01*
X019127Y019473D02*
X019631Y019473D01*
X020134Y019473D01*
X020133Y019472D02*
X019631Y019472D01*
X019129Y019472D01*
X019130Y019471D02*
X019631Y019471D01*
X020132Y019471D01*
X020131Y019470D02*
X019631Y019470D01*
X019131Y019470D01*
X019132Y019469D02*
X019631Y019469D01*
X020130Y019469D01*
X020129Y019468D02*
X019631Y019468D01*
X019133Y019468D01*
X019134Y019467D02*
X019631Y019467D01*
X020128Y019467D01*
X020126Y019466D02*
X019631Y019466D01*
X019136Y019466D01*
X019137Y019465D02*
X019631Y019465D01*
X020125Y019465D01*
X020124Y019464D02*
X019631Y019464D01*
X019138Y019464D01*
X019139Y019463D02*
X019631Y019463D01*
X020123Y019463D01*
X020122Y019462D02*
X019631Y019462D01*
X019140Y019462D01*
X019141Y019461D02*
X019631Y019461D01*
X020121Y019461D01*
X020120Y019460D02*
X019631Y019460D01*
X019142Y019460D01*
X019144Y019460D02*
X019631Y019460D01*
X020118Y019460D01*
X020117Y019459D02*
X019631Y019459D01*
X019145Y019459D01*
X019146Y019458D02*
X019631Y019458D01*
X020116Y019458D01*
X020115Y019457D02*
X019631Y019457D01*
X019147Y019457D01*
X019148Y019456D02*
X019631Y019456D01*
X020114Y019456D01*
X020113Y019455D02*
X019631Y019455D01*
X019149Y019455D01*
X019150Y019454D02*
X019631Y019454D01*
X020111Y019454D01*
X020110Y019453D02*
X019631Y019453D01*
X019152Y019453D01*
X019153Y019452D02*
X019631Y019452D01*
X020109Y019452D01*
X020108Y019451D02*
X019631Y019451D01*
X019154Y019451D01*
X019155Y019450D02*
X019631Y019450D01*
X020107Y019450D01*
X020106Y019449D02*
X019631Y019449D01*
X019156Y019449D01*
X019157Y019448D02*
X019631Y019448D01*
X020105Y019448D01*
X020104Y019447D02*
X019631Y019447D01*
X019158Y019447D01*
X019160Y019446D02*
X019631Y019446D01*
X020102Y019446D01*
X020101Y019445D02*
X019631Y019445D01*
X019161Y019445D01*
X019162Y019444D02*
X019631Y019444D01*
X020100Y019444D01*
X020099Y019443D02*
X019631Y019443D01*
X019163Y019443D01*
X019164Y019443D02*
X019631Y019443D01*
X020098Y019443D01*
X020097Y019442D02*
X019631Y019442D01*
X019165Y019442D01*
X019166Y019441D02*
X019631Y019441D01*
X020095Y019441D01*
X020094Y019440D02*
X019631Y019440D01*
X019168Y019440D01*
X019169Y019439D02*
X019631Y019439D01*
X020093Y019439D01*
X020092Y019438D02*
X019631Y019438D01*
X019170Y019438D01*
X019171Y019437D02*
X019631Y019437D01*
X020091Y019437D01*
X020090Y019436D02*
X019631Y019436D01*
X019172Y019436D01*
X019173Y019435D02*
X019631Y019435D01*
X020089Y019435D01*
X020087Y019434D02*
X019631Y019434D01*
X019174Y019434D01*
X019176Y019433D02*
X019631Y019433D01*
X020086Y019433D01*
X020085Y019432D02*
X019631Y019432D01*
X019177Y019432D01*
X019178Y019431D02*
X019631Y019431D01*
X020084Y019431D01*
X020083Y019430D02*
X019631Y019430D01*
X019179Y019430D01*
X019180Y019429D02*
X019631Y019429D01*
X020082Y019429D01*
X020081Y019428D02*
X019631Y019428D01*
X019181Y019428D01*
X019182Y019427D02*
X019631Y019427D01*
X020079Y019427D01*
X020078Y019426D02*
X019631Y019426D01*
X019184Y019426D01*
X019185Y019426D02*
X019631Y019426D01*
X020077Y019426D01*
X020076Y019425D02*
X019631Y019425D01*
X019186Y019425D01*
X019187Y019424D02*
X019631Y019424D01*
X020075Y019424D01*
X020073Y019423D02*
X019631Y019423D01*
X019189Y019423D01*
X019190Y019422D02*
X019631Y019422D01*
X020071Y019422D01*
X020070Y019421D02*
X019631Y019421D01*
X019192Y019421D01*
X019194Y019420D02*
X019631Y019420D01*
X020068Y019420D01*
X020066Y019419D02*
X019631Y019419D01*
X019196Y019419D01*
X019197Y019418D02*
X019631Y019418D01*
X020065Y019418D01*
X020063Y019417D02*
X019631Y019417D01*
X019199Y019417D01*
X019201Y019416D02*
X019631Y019416D01*
X020061Y019416D01*
X020059Y019415D02*
X019631Y019415D01*
X019203Y019415D01*
X019204Y019414D02*
X019631Y019414D01*
X020058Y019414D01*
X020056Y019413D02*
X019631Y019413D01*
X019206Y019413D01*
X019208Y019412D02*
X019631Y019412D01*
X020054Y019412D01*
X020052Y019411D02*
X019631Y019411D01*
X019210Y019411D01*
X019211Y019410D02*
X019631Y019410D01*
X020051Y019410D01*
X020049Y019409D02*
X019631Y019409D01*
X019213Y019409D01*
X019215Y019409D02*
X019631Y019409D01*
X020047Y019409D01*
X020045Y019408D02*
X019631Y019408D01*
X019217Y019408D01*
X019218Y019407D02*
X019631Y019407D01*
X020044Y019407D01*
X020042Y019406D02*
X019631Y019406D01*
X019220Y019406D01*
X019222Y019405D02*
X019631Y019405D01*
X020040Y019405D01*
X020038Y019404D02*
X019631Y019404D01*
X019224Y019404D01*
X019225Y019403D02*
X019631Y019403D01*
X020037Y019403D01*
X020035Y019402D02*
X019631Y019402D01*
X019227Y019402D01*
X019229Y019401D02*
X019631Y019401D01*
X020033Y019401D01*
X020031Y019400D02*
X019631Y019400D01*
X019230Y019400D01*
X019232Y019399D02*
X019631Y019399D01*
X020030Y019399D01*
X020028Y019398D02*
X019631Y019398D01*
X019234Y019398D01*
X019236Y019397D02*
X019631Y019397D01*
X020026Y019397D01*
X020024Y019396D02*
X019631Y019396D01*
X019237Y019396D01*
X019239Y019395D02*
X019631Y019395D01*
X020023Y019395D01*
X020021Y019394D02*
X019631Y019394D01*
X019241Y019394D01*
X019243Y019393D02*
X019631Y019393D01*
X020019Y019393D01*
X020017Y019392D02*
X019631Y019392D01*
X019244Y019392D01*
X019246Y019391D02*
X019631Y019391D01*
X020014Y019391D01*
X020016Y019391D02*
X019631Y019391D01*
X019248Y019391D01*
X019250Y019390D02*
X019631Y019390D01*
X020012Y019390D01*
X020011Y019389D02*
X019631Y019389D01*
X019251Y019389D01*
X019253Y019388D02*
X019631Y019388D01*
X020009Y019388D01*
X020007Y019387D02*
X019631Y019387D01*
X019255Y019387D01*
X019257Y019386D02*
X019631Y019386D01*
X020005Y019386D01*
X020004Y019385D02*
X019631Y019385D01*
X019258Y019385D01*
X019260Y019384D02*
X019631Y019384D01*
X020002Y019384D01*
X020000Y019383D02*
X019631Y019383D01*
X019262Y019383D01*
X019264Y019382D02*
X019631Y019382D01*
X019998Y019382D01*
X019997Y019381D02*
X019631Y019381D01*
X019265Y019381D01*
X019267Y019380D02*
X019631Y019380D01*
X019995Y019380D01*
X019993Y019379D02*
X019631Y019379D01*
X019269Y019379D01*
X019271Y019378D02*
X019631Y019378D01*
X019991Y019378D01*
X019990Y019377D02*
X019631Y019377D01*
X019272Y019377D01*
X019274Y019376D02*
X019631Y019376D01*
X019988Y019376D01*
X019986Y019375D02*
X019631Y019375D01*
X019276Y019375D01*
X019277Y019374D02*
X019631Y019374D01*
X019984Y019374D01*
X019983Y019374D02*
X019631Y019374D01*
X019279Y019374D01*
X019281Y019373D02*
X019631Y019373D01*
X019981Y019373D01*
X019979Y019372D02*
X019631Y019372D01*
X019283Y019372D01*
X019284Y019371D02*
X019631Y019371D01*
X019977Y019371D01*
X019976Y019370D02*
X019631Y019370D01*
X019286Y019370D01*
X019288Y019369D02*
X019631Y019369D01*
X019974Y019369D01*
X019972Y019368D02*
X019631Y019368D01*
X019290Y019368D01*
X019291Y019367D02*
X019631Y019367D01*
X019970Y019367D01*
X019969Y019366D02*
X019631Y019366D01*
X019293Y019366D01*
X019295Y019365D02*
X019631Y019365D01*
X019967Y019365D01*
X019965Y019364D02*
X019631Y019364D01*
X019297Y019364D01*
X019298Y019363D02*
X019631Y019363D01*
X019964Y019363D01*
X019962Y019362D02*
X019631Y019362D01*
X019300Y019362D01*
X019302Y019361D02*
X019631Y019361D01*
X019960Y019361D01*
X019958Y019360D02*
X019631Y019360D01*
X019304Y019360D01*
X019305Y019359D02*
X019631Y019359D01*
X019957Y019359D01*
X019955Y019358D02*
X019631Y019358D01*
X019307Y019358D01*
X019309Y019357D02*
X019631Y019357D01*
X019953Y019357D01*
X019951Y019357D02*
X019631Y019357D01*
X019311Y019357D01*
X019312Y019356D02*
X019631Y019356D01*
X019950Y019356D01*
X019948Y019355D02*
X019631Y019355D01*
X019314Y019355D01*
X019316Y019354D02*
X019631Y019354D01*
X019946Y019354D01*
X019944Y019353D02*
X019631Y019353D01*
X019318Y019353D01*
X019319Y019352D02*
X019631Y019352D01*
X019943Y019352D01*
X019941Y019351D02*
X019631Y019351D01*
X019321Y019351D01*
X019323Y019350D02*
X019631Y019350D01*
X019939Y019350D01*
X019936Y019349D02*
X019631Y019349D01*
X019326Y019349D01*
X019329Y019348D02*
X019631Y019348D01*
X019933Y019348D01*
X019929Y019347D02*
X019631Y019347D01*
X019332Y019347D01*
X019335Y019346D02*
X019631Y019346D01*
X019926Y019346D01*
X019923Y019345D02*
X019631Y019345D01*
X019339Y019345D01*
X019342Y019344D02*
X019631Y019344D01*
X019920Y019344D01*
X019917Y019343D02*
X019631Y019343D01*
X019345Y019343D01*
X019348Y019342D02*
X019631Y019342D01*
X019914Y019342D01*
X019911Y019341D02*
X019631Y019341D01*
X019351Y019341D01*
X019354Y019340D02*
X019631Y019340D01*
X019908Y019340D01*
X019905Y019340D02*
X019631Y019340D01*
X019357Y019340D01*
X019360Y019339D02*
X019631Y019339D01*
X019902Y019339D01*
X019899Y019338D02*
X019631Y019338D01*
X019363Y019338D01*
X019366Y019337D02*
X019631Y019337D01*
X019896Y019337D01*
X019893Y019336D02*
X019631Y019336D01*
X019369Y019336D01*
X019372Y019335D02*
X019631Y019335D01*
X019890Y019335D01*
X019887Y019334D02*
X019631Y019334D01*
X019375Y019334D01*
X019378Y019333D02*
X019631Y019333D01*
X019884Y019333D01*
X019881Y019332D02*
X019631Y019332D01*
X019381Y019332D01*
X019384Y019331D02*
X019631Y019331D01*
X019878Y019331D01*
X019875Y019330D02*
X019631Y019330D01*
X019387Y019330D01*
X019390Y019329D02*
X019631Y019329D01*
X019872Y019329D01*
X019869Y019328D02*
X019631Y019328D01*
X019393Y019328D01*
X019396Y019327D02*
X019631Y019327D01*
X019866Y019327D01*
X019863Y019326D02*
X019631Y019326D01*
X019399Y019326D01*
X019402Y019325D02*
X019631Y019325D01*
X019859Y019325D01*
X019856Y019324D02*
X019631Y019324D01*
X019405Y019324D01*
X019409Y019323D02*
X019631Y019323D01*
X019853Y019323D01*
X019850Y019323D02*
X019631Y019323D01*
X019412Y019323D01*
X019415Y019322D02*
X019631Y019322D01*
X019847Y019322D01*
X019844Y019321D02*
X019631Y019321D01*
X019418Y019321D01*
X019421Y019320D02*
X019631Y019320D01*
X019841Y019320D01*
X019838Y019319D02*
X019631Y019319D01*
X019424Y019319D01*
X019427Y019318D02*
X019631Y019318D01*
X019835Y019318D01*
X019832Y019317D02*
X019631Y019317D01*
X019430Y019317D01*
X019433Y019316D02*
X019631Y019316D01*
X019829Y019316D01*
X019826Y019315D02*
X019631Y019315D01*
X019436Y019315D01*
X019439Y019314D02*
X019631Y019314D01*
X019823Y019314D01*
X019820Y019313D02*
X019631Y019313D01*
X019442Y019313D01*
X019445Y019312D02*
X019631Y019312D01*
X019817Y019312D01*
X019814Y019311D02*
X019631Y019311D01*
X019448Y019311D01*
X019451Y019310D02*
X019631Y019310D01*
X019811Y019310D01*
X019808Y019309D02*
X019631Y019309D01*
X019454Y019309D01*
X019457Y019308D02*
X019631Y019308D01*
X019805Y019308D01*
X019802Y019307D02*
X019631Y019307D01*
X019460Y019307D01*
X019463Y019306D02*
X019631Y019306D01*
X019799Y019306D01*
X019796Y019306D02*
X019631Y019306D01*
X019466Y019306D01*
X019469Y019305D02*
X019631Y019305D01*
X019793Y019305D01*
X019787Y019304D02*
X019631Y019304D01*
X019475Y019304D01*
X019485Y019303D02*
X019631Y019303D01*
X019777Y019303D01*
X019768Y019302D02*
X019631Y019302D01*
X019494Y019302D01*
X019503Y019301D02*
X019631Y019301D01*
X019758Y019301D01*
X019749Y019300D02*
X019631Y019300D01*
X019513Y019300D01*
X019522Y019299D02*
X019631Y019299D01*
X019740Y019299D01*
X019730Y019298D02*
X019631Y019298D01*
X019532Y019298D01*
X019541Y019297D02*
X019631Y019297D01*
X019721Y019297D01*
X019711Y019296D02*
X019631Y019296D01*
X019550Y019296D01*
X019560Y019295D02*
X019631Y019295D01*
X019702Y019295D01*
X019693Y019294D02*
X019631Y019294D01*
X019569Y019294D01*
X019579Y019293D02*
X019631Y019293D01*
X019683Y019293D01*
X019674Y019292D02*
X019631Y019292D01*
X019588Y019292D01*
X019597Y019291D02*
X019631Y019291D01*
X019665Y019291D01*
X019655Y019290D02*
X019631Y019290D01*
X019607Y019290D01*
X019616Y019289D02*
X019631Y019289D01*
X019646Y019289D01*
X019636Y019289D02*
X019631Y019289D01*
X019625Y019289D01*
X019637Y019566D02*
X020230Y019566D01*
X020231Y019567D02*
X019646Y019567D01*
X019656Y019568D02*
X020232Y019568D01*
X020232Y019569D02*
X019665Y019569D01*
X019674Y019570D02*
X020233Y019570D01*
X020234Y019571D02*
X019684Y019571D01*
X019693Y019572D02*
X020235Y019572D01*
X020235Y019573D02*
X019702Y019573D01*
X019712Y019574D02*
X020236Y019574D01*
X020237Y019575D02*
X019721Y019575D01*
X019731Y019576D02*
X020238Y019576D01*
X020239Y019577D02*
X019736Y019577D01*
X019740Y019578D02*
X020239Y019578D01*
X020240Y019579D02*
X019743Y019579D01*
X019746Y019580D02*
X020241Y019580D01*
X020242Y019580D02*
X019749Y019580D01*
X019752Y019581D02*
X020242Y019581D01*
X020243Y019582D02*
X019755Y019582D01*
X019758Y019583D02*
X020244Y019583D01*
X020245Y019584D02*
X019761Y019584D01*
X019764Y019585D02*
X020246Y019585D01*
X020246Y019586D02*
X019767Y019586D01*
X019770Y019587D02*
X020247Y019587D01*
X020248Y019588D02*
X019773Y019588D01*
X019776Y019589D02*
X020249Y019589D01*
X020249Y019590D02*
X019779Y019590D01*
X019782Y019591D02*
X020250Y019591D01*
X020251Y019592D02*
X019785Y019592D01*
X019788Y019593D02*
X020252Y019593D01*
X020253Y019594D02*
X019791Y019594D01*
X019794Y019595D02*
X020253Y019595D01*
X020254Y019596D02*
X019797Y019596D01*
X019800Y019597D02*
X020255Y019597D01*
X020256Y019597D02*
X019803Y019597D01*
X019806Y019598D02*
X020257Y019598D01*
X020257Y019599D02*
X019810Y019599D01*
X019813Y019600D02*
X020258Y019600D01*
X020259Y019601D02*
X019816Y019601D01*
X019819Y019602D02*
X020260Y019602D01*
X020260Y019603D02*
X019822Y019603D01*
X019825Y019604D02*
X020261Y019604D01*
X020262Y019605D02*
X019828Y019605D01*
X019831Y019606D02*
X020263Y019606D01*
X020264Y019607D02*
X019833Y019607D01*
X019835Y019608D02*
X020264Y019608D01*
X020265Y019609D02*
X019836Y019609D01*
X019838Y019610D02*
X020266Y019610D01*
X020267Y019611D02*
X019840Y019611D01*
X019842Y019612D02*
X020267Y019612D01*
X020268Y019613D02*
X019843Y019613D01*
X019845Y019614D02*
X020269Y019614D01*
X020270Y019614D02*
X019847Y019614D01*
X019849Y019615D02*
X020271Y019615D01*
X020271Y019616D02*
X019850Y019616D01*
X019852Y019617D02*
X020272Y019617D01*
X020273Y019618D02*
X019854Y019618D01*
X019856Y019619D02*
X020274Y019619D01*
X020274Y019620D02*
X019857Y019620D01*
X019859Y019621D02*
X020275Y019621D01*
X020276Y019622D02*
X019861Y019622D01*
X019863Y019623D02*
X020277Y019623D01*
X020278Y019624D02*
X019864Y019624D01*
X019866Y019625D02*
X020278Y019625D01*
X020279Y019626D02*
X019868Y019626D01*
X019870Y019627D02*
X020280Y019627D01*
X020281Y019628D02*
X019871Y019628D01*
X019873Y019629D02*
X020281Y019629D01*
X020282Y019630D02*
X019875Y019630D01*
X019876Y019631D02*
X020283Y019631D01*
X020284Y019631D02*
X019878Y019631D01*
X019880Y019632D02*
X020285Y019632D01*
X020285Y019633D02*
X019882Y019633D01*
X019883Y019634D02*
X020286Y019634D01*
X020287Y019635D02*
X019885Y019635D01*
X019887Y019636D02*
X020288Y019636D01*
X020288Y019637D02*
X019889Y019637D01*
X019890Y019638D02*
X020289Y019638D01*
X020290Y019639D02*
X019892Y019639D01*
X019894Y019640D02*
X020290Y019640D01*
X020291Y019641D02*
X019896Y019641D01*
X019897Y019642D02*
X020291Y019642D01*
X020292Y019643D02*
X019899Y019643D01*
X019901Y019644D02*
X020292Y019644D01*
X020293Y019645D02*
X019903Y019645D01*
X019904Y019646D02*
X020293Y019646D01*
X020294Y019647D02*
X019906Y019647D01*
X019908Y019648D02*
X020294Y019648D01*
X020295Y019649D02*
X019910Y019649D01*
X019911Y019649D02*
X020295Y019649D01*
X020296Y019650D02*
X019913Y019650D01*
X019915Y019651D02*
X020296Y019651D01*
X020297Y019652D02*
X019917Y019652D01*
X019918Y019653D02*
X020297Y019653D01*
X020298Y019654D02*
X019920Y019654D01*
X019921Y019655D02*
X020298Y019655D01*
X020299Y019656D02*
X019922Y019656D01*
X019923Y019657D02*
X020299Y019657D01*
X020300Y019658D02*
X019924Y019658D01*
X019926Y019659D02*
X020300Y019659D01*
X020301Y019660D02*
X019927Y019660D01*
X019928Y019661D02*
X020301Y019661D01*
X020302Y019662D02*
X019929Y019662D01*
X019930Y019663D02*
X020303Y019663D01*
X020303Y019664D02*
X019931Y019664D01*
X019932Y019665D02*
X020304Y019665D01*
X020304Y019666D02*
X019934Y019666D01*
X019935Y019666D02*
X020305Y019666D01*
X020305Y019667D02*
X019936Y019667D01*
X019937Y019668D02*
X020306Y019668D01*
X020306Y019669D02*
X019938Y019669D01*
X019939Y019670D02*
X020307Y019670D01*
X020307Y019671D02*
X019940Y019671D01*
X019942Y019672D02*
X020308Y019672D01*
X020308Y019673D02*
X019943Y019673D01*
X019944Y019674D02*
X020309Y019674D01*
X020309Y019675D02*
X019945Y019675D01*
X019946Y019676D02*
X020310Y019676D01*
X020310Y019677D02*
X019947Y019677D01*
X019948Y019678D02*
X020311Y019678D01*
X020311Y019679D02*
X019950Y019679D01*
X019951Y019680D02*
X020312Y019680D01*
X020312Y019681D02*
X019952Y019681D01*
X019953Y019682D02*
X020313Y019682D01*
X020313Y019683D02*
X019954Y019683D01*
X019955Y019683D02*
X020314Y019683D01*
X020314Y019684D02*
X019956Y019684D01*
X019958Y019685D02*
X020315Y019685D01*
X020315Y019686D02*
X019959Y019686D01*
X019960Y019687D02*
X020316Y019687D01*
X020316Y019688D02*
X019961Y019688D01*
X019962Y019689D02*
X020317Y019689D01*
X020317Y019690D02*
X019963Y019690D01*
X019964Y019691D02*
X020318Y019691D01*
X020318Y019692D02*
X019966Y019692D01*
X019967Y019693D02*
X020319Y019693D01*
X020319Y019694D02*
X019968Y019694D01*
X019969Y019695D02*
X020320Y019695D01*
X020320Y019696D02*
X019970Y019696D01*
X019971Y019697D02*
X020321Y019697D01*
X020321Y019698D02*
X019972Y019698D01*
X019974Y019699D02*
X020322Y019699D01*
X020323Y019700D02*
X019975Y019700D01*
X019976Y019700D02*
X020323Y019700D01*
X020324Y019701D02*
X019977Y019701D01*
X019978Y019702D02*
X020324Y019702D01*
X020325Y019703D02*
X019979Y019703D01*
X019980Y019704D02*
X020325Y019704D01*
X020326Y019705D02*
X019982Y019705D01*
X019983Y019706D02*
X020326Y019706D01*
X020327Y019707D02*
X019984Y019707D01*
X019985Y019708D02*
X020327Y019708D01*
X020328Y019709D02*
X019986Y019709D01*
X019987Y019710D02*
X020328Y019710D01*
X020329Y019711D02*
X019989Y019711D01*
X019990Y019712D02*
X020329Y019712D01*
X020330Y019713D02*
X019991Y019713D01*
X019992Y019714D02*
X020330Y019714D01*
X020331Y019715D02*
X019993Y019715D01*
X019994Y019716D02*
X020331Y019716D01*
X020332Y019717D02*
X019995Y019717D01*
X019996Y019717D02*
X020332Y019717D01*
X020333Y019718D02*
X019997Y019718D01*
X019998Y019719D02*
X020333Y019719D01*
X020334Y019720D02*
X019999Y019720D01*
X019999Y019721D02*
X020334Y019721D01*
X020335Y019722D02*
X020000Y019722D01*
X020001Y019723D02*
X020335Y019723D01*
X020336Y019724D02*
X020002Y019724D01*
X020002Y019725D02*
X020336Y019725D01*
X020337Y019726D02*
X020003Y019726D01*
X020004Y019727D02*
X020337Y019727D01*
X020338Y019728D02*
X020005Y019728D01*
X020006Y019729D02*
X020338Y019729D01*
X020339Y019730D02*
X020006Y019730D01*
X020007Y019731D02*
X020339Y019731D01*
X020340Y019732D02*
X020008Y019732D01*
X020009Y019733D02*
X020340Y019733D01*
X020341Y019734D02*
X020009Y019734D01*
X020010Y019734D02*
X020341Y019734D01*
X020342Y019735D02*
X020011Y019735D01*
X020012Y019736D02*
X020343Y019736D01*
X020343Y019737D02*
X020013Y019737D01*
X020013Y019738D02*
X020344Y019738D01*
X020344Y019739D02*
X020014Y019739D01*
X020015Y019740D02*
X020345Y019740D01*
X020345Y019741D02*
X020016Y019741D01*
X020016Y019742D02*
X020346Y019742D01*
X020346Y019743D02*
X020017Y019743D01*
X020018Y019744D02*
X020347Y019744D01*
X020347Y019745D02*
X020019Y019745D01*
X020020Y019746D02*
X020348Y019746D01*
X020348Y019747D02*
X020020Y019747D01*
X020021Y019748D02*
X020349Y019748D01*
X020349Y019749D02*
X020022Y019749D01*
X020023Y019750D02*
X020350Y019750D01*
X020350Y019751D02*
X020024Y019751D01*
X020351Y019751D01*
X020351Y019752D02*
X020025Y019752D01*
X020026Y019753D02*
X020352Y019753D01*
X020352Y019754D02*
X020027Y019754D01*
X020027Y019755D02*
X020353Y019755D01*
X020353Y019756D02*
X020028Y019756D01*
X020029Y019757D02*
X020354Y019757D01*
X020354Y019758D02*
X020030Y019758D01*
X020031Y019759D02*
X020355Y019759D01*
X020355Y019760D02*
X020031Y019760D01*
X020032Y019761D02*
X020356Y019761D01*
X020356Y019762D02*
X020033Y019762D01*
X020034Y019763D02*
X020357Y019763D01*
X020357Y019764D02*
X020034Y019764D01*
X020035Y019765D02*
X020358Y019765D01*
X020358Y019766D02*
X020036Y019766D01*
X020037Y019767D02*
X020359Y019767D01*
X020359Y019768D02*
X020038Y019768D01*
X020038Y019769D02*
X020360Y019769D01*
X020039Y019769D01*
X020040Y019770D02*
X020361Y019770D01*
X020361Y019771D02*
X020041Y019771D01*
X020041Y019772D02*
X020362Y019772D01*
X020362Y019773D02*
X020042Y019773D01*
X020043Y019774D02*
X020363Y019774D01*
X020363Y019775D02*
X020044Y019775D01*
X020045Y019776D02*
X020363Y019776D01*
X020364Y019777D02*
X020045Y019777D01*
X020046Y019778D02*
X020364Y019778D01*
X020364Y019779D02*
X020047Y019779D01*
X020048Y019780D02*
X020364Y019780D01*
X020365Y019781D02*
X020048Y019781D01*
X020049Y019782D02*
X020365Y019782D01*
X020365Y019783D02*
X020050Y019783D01*
X020051Y019784D02*
X020366Y019784D01*
X020366Y019785D02*
X020052Y019785D01*
X020052Y019786D02*
X020366Y019786D01*
X020053Y019786D01*
X020054Y019787D02*
X020367Y019787D01*
X020367Y019788D02*
X020055Y019788D01*
X020056Y019789D02*
X020367Y019789D01*
X020368Y019790D02*
X020056Y019790D01*
X020057Y019791D02*
X020368Y019791D01*
X020368Y019792D02*
X020058Y019792D01*
X020059Y019793D02*
X020369Y019793D01*
X020369Y019794D02*
X020059Y019794D01*
X020060Y019795D02*
X020369Y019795D01*
X020369Y019796D02*
X020060Y019796D01*
X020061Y019797D02*
X020370Y019797D01*
X020370Y019798D02*
X020061Y019798D01*
X020062Y019799D02*
X020370Y019799D01*
X020371Y019800D02*
X020062Y019800D01*
X020063Y019801D02*
X020371Y019801D01*
X020371Y019802D02*
X020063Y019802D01*
X020064Y019803D02*
X020371Y019803D01*
X020372Y019803D02*
X020064Y019803D01*
X020065Y019804D02*
X020372Y019804D01*
X020372Y019805D02*
X020065Y019805D01*
X020066Y019806D02*
X020373Y019806D01*
X020373Y019807D02*
X020066Y019807D01*
X020067Y019808D02*
X020373Y019808D01*
X020374Y019809D02*
X020067Y019809D01*
X020068Y019810D02*
X020374Y019810D01*
X020374Y019811D02*
X020068Y019811D01*
X020069Y019812D02*
X020374Y019812D01*
X020375Y019813D02*
X020069Y019813D01*
X020070Y019814D02*
X020375Y019814D01*
X020375Y019815D02*
X020070Y019815D01*
X020071Y019816D02*
X020376Y019816D01*
X020376Y019817D02*
X020071Y019817D01*
X020072Y019818D02*
X020376Y019818D01*
X020376Y019819D02*
X020072Y019819D01*
X020073Y019820D02*
X020377Y019820D01*
X020074Y019820D01*
X020074Y019821D02*
X020377Y019821D01*
X020378Y019822D02*
X020075Y019822D01*
X020075Y019823D02*
X020378Y019823D01*
X020378Y019824D02*
X020076Y019824D01*
X020076Y019825D02*
X020379Y019825D01*
X020379Y019826D02*
X020077Y019826D01*
X020077Y019827D02*
X020379Y019827D01*
X020379Y019828D02*
X020078Y019828D01*
X020078Y019829D02*
X020380Y019829D01*
X020380Y019830D02*
X020079Y019830D01*
X020079Y019831D02*
X020380Y019831D01*
X020381Y019832D02*
X020080Y019832D01*
X020080Y019833D02*
X020381Y019833D01*
X020381Y019834D02*
X020081Y019834D01*
X020081Y019835D02*
X020381Y019835D01*
X020382Y019836D02*
X020082Y019836D01*
X020082Y019837D02*
X020382Y019837D01*
X020083Y019837D01*
X020083Y019838D02*
X020383Y019838D01*
X020383Y019839D02*
X020084Y019839D01*
X020084Y019840D02*
X020383Y019840D01*
X020384Y019841D02*
X020085Y019841D01*
X020085Y019842D02*
X020384Y019842D01*
X020384Y019843D02*
X020086Y019843D01*
X020086Y019844D02*
X020384Y019844D01*
X020385Y019845D02*
X020087Y019845D01*
X020087Y019846D02*
X020385Y019846D01*
X020385Y019847D02*
X020088Y019847D01*
X020088Y019848D02*
X020386Y019848D01*
X020386Y019849D02*
X020089Y019849D01*
X020089Y019850D02*
X020386Y019850D01*
X020386Y019851D02*
X020090Y019851D01*
X020090Y019852D02*
X020387Y019852D01*
X020387Y019853D02*
X020091Y019853D01*
X020091Y019854D02*
X020387Y019854D01*
X020388Y019854D02*
X020092Y019854D01*
X020092Y019855D02*
X020388Y019855D01*
X020388Y019856D02*
X020093Y019856D01*
X020094Y019857D02*
X020389Y019857D01*
X020389Y019858D02*
X020094Y019858D01*
X020095Y019859D02*
X020389Y019859D01*
X020389Y019860D02*
X020095Y019860D01*
X020096Y019861D02*
X020390Y019861D01*
X020390Y019862D02*
X020096Y019862D01*
X020097Y019863D02*
X020390Y019863D01*
X020391Y019864D02*
X020097Y019864D01*
X020098Y019865D02*
X020391Y019865D01*
X020391Y019866D02*
X020098Y019866D01*
X020099Y019867D02*
X020391Y019867D01*
X020392Y019868D02*
X020099Y019868D01*
X020100Y019869D02*
X020392Y019869D01*
X020392Y019870D02*
X020100Y019870D01*
X020101Y019871D02*
X020393Y019871D01*
X020101Y019871D01*
X020102Y019872D02*
X020393Y019872D01*
X020393Y019873D02*
X020102Y019873D01*
X020103Y019874D02*
X020394Y019874D01*
X020394Y019875D02*
X020103Y019875D01*
X020104Y019876D02*
X020394Y019876D01*
X020395Y019877D02*
X020104Y019877D01*
X020105Y019878D02*
X020395Y019878D01*
X020395Y019879D02*
X020105Y019879D01*
X020106Y019880D02*
X020396Y019880D01*
X020396Y019881D02*
X020106Y019881D01*
X020107Y019882D02*
X020396Y019882D01*
X020396Y019883D02*
X020107Y019883D01*
X020107Y019884D02*
X020397Y019884D01*
X020397Y019885D02*
X020107Y019885D01*
X020108Y019886D02*
X020397Y019886D01*
X020398Y019887D02*
X020108Y019887D01*
X020108Y019888D02*
X020398Y019888D01*
X020398Y019889D02*
X020109Y019889D01*
X020398Y019889D01*
X020399Y019890D02*
X020109Y019890D01*
X020110Y019891D02*
X020399Y019891D01*
X020399Y019892D02*
X020110Y019892D01*
X020110Y019893D02*
X020400Y019893D01*
X020400Y019894D02*
X020110Y019894D01*
X020111Y019895D02*
X020400Y019895D01*
X020401Y019896D02*
X020111Y019896D01*
X020111Y019897D02*
X020401Y019897D01*
X020401Y019898D02*
X020112Y019898D01*
X020112Y019899D02*
X020401Y019899D01*
X020402Y019900D02*
X020112Y019900D01*
X020112Y019901D02*
X020402Y019901D01*
X020402Y019902D02*
X020113Y019902D01*
X020113Y019903D02*
X020403Y019903D01*
X020403Y019904D02*
X020113Y019904D01*
X020114Y019905D02*
X020403Y019905D01*
X020403Y019906D02*
X020114Y019906D01*
X020404Y019906D01*
X020404Y019907D02*
X020114Y019907D01*
X020115Y019908D02*
X020404Y019908D01*
X020405Y019909D02*
X020115Y019909D01*
X020115Y019910D02*
X020405Y019910D01*
X020405Y019911D02*
X020116Y019911D01*
X020116Y019912D02*
X020406Y019912D01*
X020406Y019913D02*
X020116Y019913D01*
X020117Y019914D02*
X020406Y019914D01*
X020406Y019915D02*
X020117Y019915D01*
X020117Y019916D02*
X020407Y019916D01*
X020407Y019917D02*
X020117Y019917D01*
X020118Y019918D02*
X020407Y019918D01*
X020408Y019919D02*
X020118Y019919D01*
X020118Y019920D02*
X020408Y019920D01*
X020408Y019921D02*
X020119Y019921D01*
X020119Y019922D02*
X020408Y019922D01*
X020409Y019923D02*
X020119Y019923D01*
X020409Y019923D01*
X020409Y019924D02*
X020120Y019924D01*
X020120Y019925D02*
X020409Y019925D01*
X020409Y019926D02*
X020120Y019926D01*
X020121Y019927D02*
X020409Y019927D01*
X020409Y019928D02*
X020121Y019928D01*
X020121Y019929D02*
X020409Y019929D01*
X020409Y019930D02*
X020122Y019930D01*
X020122Y019931D02*
X020409Y019931D01*
X020409Y019932D02*
X020122Y019932D01*
X020122Y019933D02*
X020410Y019933D01*
X020410Y019934D02*
X020123Y019934D01*
X020123Y019935D02*
X020410Y019935D01*
X020410Y019936D02*
X020123Y019936D01*
X020124Y019937D02*
X020410Y019937D01*
X020410Y019938D02*
X020124Y019938D01*
X020124Y019939D02*
X020410Y019939D01*
X020410Y019940D02*
X020124Y019940D01*
X020125Y019940D02*
X020410Y019940D01*
X020410Y019941D02*
X020125Y019941D01*
X020125Y019942D02*
X020411Y019942D01*
X020411Y019943D02*
X020126Y019943D01*
X020126Y019944D02*
X020411Y019944D01*
X020411Y019945D02*
X020126Y019945D01*
X020127Y019946D02*
X020411Y019946D01*
X020411Y019947D02*
X020127Y019947D01*
X020127Y019948D02*
X020411Y019948D01*
X020411Y019949D02*
X020127Y019949D01*
X020128Y019950D02*
X020411Y019950D01*
X020411Y019951D02*
X020128Y019951D01*
X020128Y019952D02*
X020411Y019952D01*
X020412Y019953D02*
X020129Y019953D01*
X020129Y019954D02*
X020412Y019954D01*
X020412Y019955D02*
X020129Y019955D01*
X020129Y019956D02*
X020412Y019956D01*
X020412Y019957D02*
X020130Y019957D01*
X020412Y019957D01*
X020412Y019958D02*
X020130Y019958D01*
X020131Y019959D02*
X020412Y019959D01*
X020412Y019960D02*
X020131Y019960D01*
X020131Y019961D02*
X020412Y019961D01*
X020413Y019962D02*
X020131Y019962D01*
X020132Y019963D02*
X020413Y019963D01*
X020413Y019964D02*
X020132Y019964D01*
X020132Y019965D02*
X020413Y019965D01*
X020413Y019966D02*
X020133Y019966D01*
X020133Y019967D02*
X020413Y019967D01*
X020413Y019968D02*
X020133Y019968D01*
X020134Y019969D02*
X020413Y019969D01*
X020413Y019970D02*
X020134Y019970D01*
X020134Y019971D02*
X020413Y019971D01*
X020414Y019972D02*
X020134Y019972D01*
X020135Y019973D02*
X020414Y019973D01*
X020414Y019974D02*
X020135Y019974D01*
X020414Y019974D01*
X020414Y019975D02*
X020136Y019975D01*
X020136Y019976D02*
X020414Y019976D01*
X020414Y019977D02*
X020136Y019977D01*
X020136Y019978D02*
X020414Y019978D01*
X020414Y019979D02*
X020136Y019979D01*
X020137Y019980D02*
X020414Y019980D01*
X020414Y019981D02*
X020137Y019981D01*
X020137Y019982D02*
X020415Y019982D01*
X020415Y019983D02*
X020137Y019983D01*
X020137Y019984D02*
X020415Y019984D01*
X020415Y019985D02*
X020137Y019985D01*
X020137Y019986D02*
X020415Y019986D01*
X020415Y019987D02*
X020137Y019987D01*
X020137Y019988D02*
X020415Y019988D01*
X020415Y019989D02*
X020137Y019989D01*
X020137Y019990D02*
X020415Y019990D01*
X020415Y019991D02*
X020138Y019991D01*
X020416Y019991D01*
X020416Y019992D02*
X020138Y019992D01*
X020138Y019993D02*
X020416Y019993D01*
X020416Y019994D02*
X020138Y019994D01*
X020138Y019995D02*
X020416Y019995D01*
X020416Y019996D02*
X020138Y019996D01*
X020138Y019997D02*
X020416Y019997D01*
X020416Y019998D02*
X020138Y019998D01*
X020138Y019999D02*
X020416Y019999D01*
X020416Y020000D02*
X020139Y020000D01*
X020139Y020001D02*
X020416Y020001D01*
X020417Y020002D02*
X020139Y020002D01*
X020139Y020003D02*
X020417Y020003D01*
X020417Y020004D02*
X020139Y020004D01*
X020139Y020005D02*
X020417Y020005D01*
X020417Y020006D02*
X020139Y020006D01*
X020139Y020007D02*
X020417Y020007D01*
X020417Y020008D02*
X020139Y020008D01*
X020139Y020009D02*
X020417Y020009D01*
X020139Y020009D01*
X020140Y020010D02*
X020417Y020010D01*
X020417Y020011D02*
X020140Y020011D01*
X020140Y020012D02*
X020418Y020012D01*
X020418Y020013D02*
X020140Y020013D01*
X020140Y020014D02*
X020418Y020014D01*
X020418Y020015D02*
X020140Y020015D01*
X020140Y020016D02*
X020418Y020016D01*
X020418Y020017D02*
X020140Y020017D01*
X020140Y020018D02*
X020418Y020018D01*
X020418Y020019D02*
X020140Y020019D01*
X020141Y020020D02*
X020418Y020020D01*
X020418Y020021D02*
X020141Y020021D01*
X020141Y020022D02*
X020419Y020022D01*
X020419Y020023D02*
X020141Y020023D01*
X020141Y020024D02*
X020419Y020024D01*
X020419Y020025D02*
X020141Y020025D01*
X020141Y020026D02*
X020419Y020026D01*
X020141Y020026D01*
X020141Y020027D02*
X020419Y020027D01*
X020419Y020028D02*
X020141Y020028D01*
X020141Y020029D02*
X020419Y020029D01*
X020419Y020030D02*
X020142Y020030D01*
X020142Y020031D02*
X020419Y020031D01*
X020420Y020032D02*
X020142Y020032D01*
X020142Y020033D02*
X020420Y020033D01*
X020420Y020034D02*
X020142Y020034D01*
X020142Y020035D02*
X020420Y020035D01*
X020420Y020036D02*
X020142Y020036D01*
X020142Y020037D02*
X020420Y020037D01*
X020420Y020038D02*
X020142Y020038D01*
X020142Y020039D02*
X020420Y020039D01*
X020420Y020040D02*
X020143Y020040D01*
X020143Y020041D02*
X020420Y020041D01*
X020421Y020042D02*
X020143Y020042D01*
X020143Y020043D02*
X020421Y020043D01*
X020143Y020043D01*
X020143Y020044D02*
X020421Y020044D01*
X020421Y020045D02*
X020143Y020045D01*
X020143Y020046D02*
X020421Y020046D01*
X020421Y020047D02*
X020143Y020047D01*
X020143Y020048D02*
X020421Y020048D01*
X020421Y020049D02*
X020144Y020049D01*
X020144Y020050D02*
X020421Y020050D01*
X020421Y020051D02*
X020144Y020051D01*
X020144Y020052D02*
X020422Y020052D01*
X020422Y020053D02*
X020144Y020053D01*
X020144Y020054D02*
X020422Y020054D01*
X020422Y020055D02*
X020144Y020055D01*
X020144Y020056D02*
X020422Y020056D01*
X020422Y020057D02*
X020144Y020057D01*
X020144Y020058D02*
X020422Y020058D01*
X020422Y020059D02*
X020144Y020059D01*
X020145Y020060D02*
X020422Y020060D01*
X020145Y020060D01*
X020145Y020061D02*
X020423Y020061D01*
X020423Y020062D02*
X020145Y020062D01*
X020145Y020063D02*
X020423Y020063D01*
X020423Y020064D02*
X020145Y020064D01*
X020145Y020065D02*
X020423Y020065D01*
X020423Y020066D02*
X020145Y020066D01*
X020145Y020067D02*
X020423Y020067D01*
X020423Y020068D02*
X020145Y020068D01*
X020145Y020069D02*
X020423Y020069D01*
X020423Y020070D02*
X020146Y020070D01*
X020146Y020071D02*
X020424Y020071D01*
X020424Y020072D02*
X020146Y020072D01*
X020146Y020073D02*
X020424Y020073D01*
X020424Y020074D02*
X020146Y020074D01*
X020146Y020075D02*
X020424Y020075D01*
X020424Y020076D02*
X020146Y020076D01*
X020146Y020077D02*
X020424Y020077D01*
X020146Y020077D01*
X020146Y020078D02*
X020424Y020078D01*
X020424Y020079D02*
X020147Y020079D01*
X020147Y020080D02*
X020424Y020080D01*
X020425Y020081D02*
X020147Y020081D01*
X020147Y020082D02*
X020424Y020082D01*
X020424Y020083D02*
X020147Y020083D01*
X020147Y020084D02*
X020424Y020084D01*
X020424Y020085D02*
X020146Y020085D01*
X020146Y020086D02*
X020424Y020086D01*
X020424Y020087D02*
X020146Y020087D01*
X020146Y020088D02*
X020424Y020088D01*
X020424Y020089D02*
X020146Y020089D01*
X020146Y020090D02*
X020424Y020090D01*
X020424Y020091D02*
X020146Y020091D01*
X020146Y020092D02*
X020424Y020092D01*
X020423Y020093D02*
X020146Y020093D01*
X020146Y020094D02*
X020423Y020094D01*
X020145Y020094D01*
X020145Y020095D02*
X020423Y020095D01*
X020423Y020096D02*
X020145Y020096D01*
X020145Y020097D02*
X020423Y020097D01*
X020423Y020098D02*
X020145Y020098D01*
X020145Y020099D02*
X020423Y020099D01*
X020423Y020100D02*
X020145Y020100D01*
X020145Y020101D02*
X020423Y020101D01*
X020422Y020102D02*
X020145Y020102D01*
X020145Y020103D02*
X020422Y020103D01*
X020422Y020104D02*
X020145Y020104D01*
X020144Y020105D02*
X020422Y020105D01*
X020422Y020106D02*
X020144Y020106D01*
X020144Y020107D02*
X020422Y020107D01*
X020422Y020108D02*
X020144Y020108D01*
X020144Y020109D02*
X020422Y020109D01*
X020422Y020110D02*
X020144Y020110D01*
X020144Y020111D02*
X020422Y020111D01*
X020144Y020111D01*
X020144Y020112D02*
X020421Y020112D01*
X020421Y020113D02*
X020144Y020113D01*
X020144Y020114D02*
X020421Y020114D01*
X020421Y020115D02*
X020143Y020115D01*
X020143Y020116D02*
X020421Y020116D01*
X020421Y020117D02*
X020143Y020117D01*
X020143Y020118D02*
X020421Y020118D01*
X020421Y020119D02*
X020143Y020119D01*
X020143Y020120D02*
X020421Y020120D01*
X020421Y020121D02*
X020143Y020121D01*
X020143Y020122D02*
X020420Y020122D01*
X020420Y020123D02*
X020143Y020123D01*
X020143Y020124D02*
X020420Y020124D01*
X020420Y020125D02*
X020142Y020125D01*
X020142Y020126D02*
X020420Y020126D01*
X020420Y020127D02*
X020142Y020127D01*
X020142Y020128D02*
X020420Y020128D01*
X020420Y020129D02*
X020142Y020129D01*
X020420Y020129D01*
X020420Y020130D02*
X020142Y020130D01*
X020142Y020131D02*
X020420Y020131D01*
X020419Y020132D02*
X020142Y020132D01*
X020142Y020133D02*
X020419Y020133D01*
X020419Y020134D02*
X020141Y020134D01*
X020141Y020135D02*
X020419Y020135D01*
X020419Y020136D02*
X020141Y020136D01*
X020141Y020137D02*
X020419Y020137D01*
X020419Y020138D02*
X020141Y020138D01*
X020141Y020139D02*
X020419Y020139D01*
X020419Y020140D02*
X020141Y020140D01*
X020141Y020141D02*
X020419Y020141D01*
X020418Y020142D02*
X020141Y020142D01*
X020141Y020143D02*
X020418Y020143D01*
X020418Y020144D02*
X020141Y020144D01*
X020140Y020145D02*
X020418Y020145D01*
X020418Y020146D02*
X020140Y020146D01*
X020418Y020146D01*
X020418Y020147D02*
X020140Y020147D01*
X020140Y020148D02*
X020418Y020148D01*
X020418Y020149D02*
X020140Y020149D01*
X020140Y020150D02*
X020418Y020150D01*
X020418Y020151D02*
X020140Y020151D01*
X020140Y020152D02*
X020417Y020152D01*
X020417Y020153D02*
X020140Y020153D01*
X020139Y020154D02*
X020417Y020154D01*
X020417Y020155D02*
X020139Y020155D01*
X020139Y020156D02*
X020417Y020156D01*
X020417Y020157D02*
X020139Y020157D01*
X020139Y020158D02*
X020417Y020158D01*
X020417Y020159D02*
X020139Y020159D01*
X020139Y020160D02*
X020417Y020160D01*
X020417Y020161D02*
X020139Y020161D01*
X020139Y020162D02*
X020416Y020162D01*
X020416Y020163D02*
X020139Y020163D01*
X020416Y020163D01*
X020416Y020164D02*
X020138Y020164D01*
X020138Y020165D02*
X020416Y020165D01*
X020416Y020166D02*
X020138Y020166D01*
X020138Y020167D02*
X020416Y020167D01*
X020416Y020168D02*
X020138Y020168D01*
X020138Y020169D02*
X020416Y020169D01*
X020416Y020170D02*
X020138Y020170D01*
X020138Y020171D02*
X020416Y020171D01*
X020415Y020172D02*
X020138Y020172D01*
X020138Y020173D02*
X020415Y020173D01*
X020415Y020174D02*
X020137Y020174D01*
X020137Y020175D02*
X020415Y020175D01*
X020415Y020176D02*
X020137Y020176D01*
X020137Y020177D02*
X020415Y020177D01*
X020415Y020178D02*
X020137Y020178D01*
X020137Y020179D02*
X020415Y020179D01*
X020415Y020180D02*
X020137Y020180D01*
X020415Y020180D01*
X020414Y020181D02*
X020137Y020181D01*
X020137Y020182D02*
X020414Y020182D01*
X020414Y020183D02*
X020137Y020183D01*
X020136Y020184D02*
X020414Y020184D01*
X020414Y020185D02*
X020136Y020185D01*
X020136Y020186D02*
X020414Y020186D01*
X020414Y020187D02*
X020136Y020187D01*
X020136Y020188D02*
X020414Y020188D01*
X020414Y020189D02*
X020135Y020189D01*
X020135Y020190D02*
X020414Y020190D01*
X020414Y020191D02*
X020135Y020191D01*
X020134Y020192D02*
X020413Y020192D01*
X020413Y020193D02*
X020134Y020193D01*
X020134Y020194D02*
X020413Y020194D01*
X020413Y020195D02*
X020134Y020195D01*
X020133Y020196D02*
X020413Y020196D01*
X020413Y020197D02*
X020133Y020197D01*
X020413Y020197D01*
X020413Y020198D02*
X020132Y020198D01*
X020132Y020199D02*
X020413Y020199D01*
X020413Y020200D02*
X020132Y020200D01*
X020131Y020201D02*
X020412Y020201D01*
X020412Y020202D02*
X020131Y020202D01*
X020131Y020203D02*
X020412Y020203D01*
X020412Y020204D02*
X020131Y020204D01*
X020130Y020205D02*
X020412Y020205D01*
X020412Y020206D02*
X020130Y020206D01*
X020130Y020207D02*
X020412Y020207D01*
X020412Y020208D02*
X020129Y020208D01*
X020129Y020209D02*
X020412Y020209D01*
X020412Y020210D02*
X020129Y020210D01*
X020129Y020211D02*
X020411Y020211D01*
X020411Y020212D02*
X020128Y020212D01*
X020128Y020213D02*
X020411Y020213D01*
X020411Y020214D02*
X020128Y020214D01*
X020127Y020214D02*
X020411Y020214D01*
X020411Y020215D02*
X020127Y020215D01*
X020127Y020216D02*
X020411Y020216D01*
X020411Y020217D02*
X020126Y020217D01*
X020126Y020218D02*
X020411Y020218D01*
X020411Y020219D02*
X020126Y020219D01*
X020126Y020220D02*
X020411Y020220D01*
X020410Y020221D02*
X020125Y020221D01*
X020125Y020222D02*
X020410Y020222D01*
X020410Y020223D02*
X020125Y020223D01*
X020124Y020224D02*
X020410Y020224D01*
X020410Y020225D02*
X020124Y020225D01*
X020124Y020226D02*
X020410Y020226D01*
X020410Y020227D02*
X020124Y020227D01*
X020123Y020228D02*
X020410Y020228D01*
X020410Y020229D02*
X020123Y020229D01*
X020123Y020230D02*
X020410Y020230D01*
X020410Y020231D02*
X020122Y020231D01*
X020409Y020231D01*
X020409Y020232D02*
X020122Y020232D01*
X020121Y020233D02*
X020409Y020233D01*
X020409Y020234D02*
X020121Y020234D01*
X020121Y020235D02*
X020409Y020235D01*
X020409Y020236D02*
X020121Y020236D01*
X020120Y020237D02*
X020409Y020237D01*
X020409Y020238D02*
X020120Y020238D01*
X020120Y020239D02*
X020409Y020239D01*
X020409Y020240D02*
X020119Y020240D01*
X020119Y020241D02*
X020408Y020241D01*
X020408Y020242D02*
X020119Y020242D01*
X020119Y020243D02*
X020408Y020243D01*
X020408Y020244D02*
X020118Y020244D01*
X020118Y020245D02*
X020407Y020245D01*
X020407Y020246D02*
X020118Y020246D01*
X020117Y020247D02*
X020407Y020247D01*
X020407Y020248D02*
X020117Y020248D01*
X020117Y020249D02*
X020406Y020249D01*
X020116Y020249D01*
X020116Y020250D02*
X020406Y020250D01*
X020405Y020251D02*
X020116Y020251D01*
X020116Y020252D02*
X020405Y020252D01*
X020405Y020253D02*
X020115Y020253D01*
X020115Y020254D02*
X020404Y020254D01*
X020404Y020255D02*
X020115Y020255D01*
X020114Y020256D02*
X020404Y020256D01*
X020404Y020257D02*
X020114Y020257D01*
X020114Y020258D02*
X020403Y020258D01*
X020403Y020259D02*
X020114Y020259D01*
X020113Y020260D02*
X020403Y020260D01*
X020402Y020261D02*
X020113Y020261D01*
X020113Y020262D02*
X020402Y020262D01*
X020402Y020263D02*
X020112Y020263D01*
X020112Y020264D02*
X020402Y020264D01*
X020401Y020265D02*
X020112Y020265D01*
X020111Y020266D02*
X020401Y020266D01*
X020111Y020266D01*
X020111Y020267D02*
X020400Y020267D01*
X020400Y020268D02*
X020111Y020268D01*
X020110Y020269D02*
X020400Y020269D01*
X020399Y020270D02*
X020110Y020270D01*
X020110Y020271D02*
X020399Y020271D01*
X020399Y020272D02*
X020109Y020272D01*
X020109Y020273D02*
X020399Y020273D01*
X020398Y020274D02*
X020109Y020274D01*
X020109Y020275D02*
X020398Y020275D01*
X020398Y020276D02*
X020108Y020276D01*
X020108Y020277D02*
X020397Y020277D01*
X020397Y020278D02*
X020108Y020278D01*
X020107Y020279D02*
X020397Y020279D01*
X020397Y020280D02*
X020107Y020280D01*
X020107Y020281D02*
X020396Y020281D01*
X020396Y020282D02*
X020107Y020282D01*
X020106Y020283D02*
X020396Y020283D01*
X020395Y020283D02*
X020106Y020283D01*
X020105Y020284D02*
X020395Y020284D01*
X020395Y020285D02*
X020105Y020285D01*
X020104Y020286D02*
X020394Y020286D01*
X020394Y020287D02*
X020104Y020287D01*
X020103Y020288D02*
X020394Y020288D01*
X020394Y020289D02*
X020103Y020289D01*
X020102Y020290D02*
X020393Y020290D01*
X020393Y020291D02*
X020102Y020291D01*
X020101Y020292D02*
X020393Y020292D01*
X020392Y020293D02*
X020101Y020293D01*
X020100Y020294D02*
X020392Y020294D01*
X020392Y020295D02*
X020100Y020295D01*
X020099Y020296D02*
X020392Y020296D01*
X020391Y020297D02*
X020099Y020297D01*
X020098Y020298D02*
X020391Y020298D01*
X020391Y020299D02*
X020097Y020299D01*
X020097Y020300D02*
X020390Y020300D01*
X020096Y020300D01*
X020096Y020301D02*
X020390Y020301D01*
X020390Y020302D02*
X020095Y020302D01*
X020095Y020303D02*
X020389Y020303D01*
X020389Y020304D02*
X020094Y020304D01*
X020094Y020305D02*
X020389Y020305D01*
X020388Y020306D02*
X020093Y020306D01*
X020093Y020307D02*
X020388Y020307D01*
X020388Y020308D02*
X020092Y020308D01*
X020092Y020309D02*
X020387Y020309D01*
X020387Y020310D02*
X020091Y020310D01*
X020091Y020311D02*
X020387Y020311D01*
X020387Y020312D02*
X020090Y020312D01*
X020090Y020313D02*
X020386Y020313D01*
X020386Y020314D02*
X020089Y020314D01*
X020089Y020315D02*
X020386Y020315D01*
X020385Y020316D02*
X020088Y020316D01*
X020088Y020317D02*
X020385Y020317D01*
X020087Y020317D01*
X020087Y020318D02*
X020385Y020318D01*
X020384Y020319D02*
X020086Y020319D01*
X020086Y020320D02*
X020384Y020320D01*
X020384Y020321D02*
X020085Y020321D01*
X020085Y020322D02*
X020383Y020322D01*
X020383Y020323D02*
X020084Y020323D01*
X020084Y020324D02*
X020383Y020324D01*
X020382Y020325D02*
X020083Y020325D01*
X020083Y020326D02*
X020382Y020326D01*
X020382Y020327D02*
X020082Y020327D01*
X020082Y020328D02*
X020382Y020328D01*
X020381Y020329D02*
X020081Y020329D01*
X020081Y020330D02*
X020381Y020330D01*
X020381Y020331D02*
X020080Y020331D01*
X020080Y020332D02*
X020380Y020332D01*
X020380Y020333D02*
X020079Y020333D01*
X020079Y020334D02*
X020380Y020334D01*
X020078Y020334D01*
X020077Y020335D02*
X020379Y020335D01*
X020379Y020336D02*
X020077Y020336D01*
X020076Y020337D02*
X020379Y020337D01*
X020378Y020338D02*
X020076Y020338D01*
X020075Y020339D02*
X020378Y020339D01*
X020378Y020340D02*
X020075Y020340D01*
X020074Y020341D02*
X020378Y020341D01*
X020377Y020342D02*
X020074Y020342D01*
X020073Y020343D02*
X020377Y020343D01*
X020377Y020344D02*
X020073Y020344D01*
X020072Y020345D02*
X020376Y020345D01*
X020376Y020346D02*
X020072Y020346D01*
X020071Y020347D02*
X020376Y020347D01*
X020375Y020348D02*
X020071Y020348D01*
X020070Y020349D02*
X020375Y020349D01*
X020375Y020350D02*
X020070Y020350D01*
X020069Y020351D02*
X020375Y020351D01*
X020374Y020351D02*
X020069Y020351D01*
X020068Y020352D02*
X020374Y020352D01*
X020374Y020353D02*
X020068Y020353D01*
X020067Y020354D02*
X020373Y020354D01*
X020373Y020355D02*
X020067Y020355D01*
X020066Y020356D02*
X020373Y020356D01*
X020373Y020357D02*
X020066Y020357D01*
X020065Y020358D02*
X020372Y020358D01*
X020372Y020359D02*
X020065Y020359D01*
X020064Y020360D02*
X020372Y020360D01*
X020371Y020361D02*
X020064Y020361D01*
X020063Y020362D02*
X020371Y020362D01*
X020371Y020363D02*
X020063Y020363D01*
X020062Y020364D02*
X020370Y020364D01*
X020370Y020365D02*
X020062Y020365D01*
X020061Y020366D02*
X020370Y020366D01*
X020370Y020367D02*
X020061Y020367D01*
X020060Y020368D02*
X020369Y020368D01*
X020369Y020369D02*
X020060Y020369D01*
X020059Y020369D02*
X020369Y020369D01*
X020368Y020370D02*
X020058Y020370D01*
X020058Y020371D02*
X020368Y020371D01*
X020368Y020372D02*
X020057Y020372D01*
X020056Y020373D02*
X020368Y020373D01*
X020367Y020374D02*
X020055Y020374D01*
X020054Y020375D02*
X020367Y020375D01*
X020367Y020376D02*
X020054Y020376D01*
X020053Y020377D02*
X020366Y020377D01*
X020366Y020378D02*
X020052Y020378D01*
X020051Y020379D02*
X020366Y020379D01*
X020365Y020380D02*
X020051Y020380D01*
X020050Y020381D02*
X020365Y020381D01*
X020365Y020382D02*
X020049Y020382D01*
X020048Y020383D02*
X020365Y020383D01*
X020364Y020384D02*
X020047Y020384D01*
X020047Y020385D02*
X020364Y020385D01*
X020364Y020386D02*
X020046Y020386D01*
X020045Y020386D02*
X020363Y020386D01*
X020363Y020387D02*
X020044Y020387D01*
X020044Y020388D02*
X020363Y020388D01*
X020363Y020389D02*
X020043Y020389D01*
X020042Y020390D02*
X020362Y020390D01*
X020362Y020391D02*
X020041Y020391D01*
X020040Y020392D02*
X020361Y020392D01*
X020361Y020393D02*
X020040Y020393D01*
X020039Y020394D02*
X020360Y020394D01*
X020360Y020395D02*
X020038Y020395D01*
X020037Y020396D02*
X020359Y020396D01*
X020359Y020397D02*
X020037Y020397D01*
X020036Y020398D02*
X020358Y020398D01*
X020358Y020399D02*
X020035Y020399D01*
X020034Y020400D02*
X020357Y020400D01*
X020357Y020401D02*
X020033Y020401D01*
X020033Y020402D02*
X020356Y020402D01*
X020356Y020403D02*
X020032Y020403D01*
X020031Y020403D02*
X020355Y020403D01*
X020355Y020404D02*
X020030Y020404D01*
X020030Y020405D02*
X020354Y020405D01*
X020354Y020406D02*
X020029Y020406D01*
X020028Y020407D02*
X020353Y020407D01*
X020353Y020408D02*
X020027Y020408D01*
X020026Y020409D02*
X020352Y020409D01*
X020352Y020410D02*
X020026Y020410D01*
X020025Y020411D02*
X020351Y020411D01*
X020351Y020412D02*
X020024Y020412D01*
X020023Y020413D02*
X020350Y020413D01*
X020349Y020414D02*
X020023Y020414D01*
X020022Y020415D02*
X020349Y020415D01*
X020348Y020416D02*
X020021Y020416D01*
X020020Y020417D02*
X020348Y020417D01*
X020347Y020418D02*
X020019Y020418D01*
X020019Y020419D02*
X020347Y020419D01*
X020346Y020420D02*
X020018Y020420D01*
X020017Y020420D02*
X020346Y020420D01*
X020345Y020421D02*
X020016Y020421D01*
X020016Y020422D02*
X020345Y020422D01*
X020344Y020423D02*
X020015Y020423D01*
X020014Y020424D02*
X020344Y020424D01*
X020343Y020425D02*
X020013Y020425D01*
X020012Y020426D02*
X020343Y020426D01*
X020342Y020427D02*
X020012Y020427D01*
X020011Y020428D02*
X020342Y020428D01*
X020341Y020429D02*
X020010Y020429D01*
X020009Y020430D02*
X020341Y020430D01*
X020340Y020431D02*
X020009Y020431D01*
X020008Y020432D02*
X020340Y020432D01*
X020339Y020433D02*
X020007Y020433D01*
X020006Y020434D02*
X020339Y020434D01*
X020338Y020435D02*
X020005Y020435D01*
X020005Y020436D02*
X020338Y020436D01*
X020337Y020437D02*
X020004Y020437D01*
X020003Y020437D02*
X020337Y020437D01*
X020336Y020438D02*
X020002Y020438D01*
X020001Y020439D02*
X020336Y020439D01*
X020335Y020440D02*
X020001Y020440D01*
X020000Y020441D02*
X020335Y020441D01*
X020334Y020442D02*
X019999Y020442D01*
X019998Y020443D02*
X020334Y020443D01*
X020333Y020444D02*
X019998Y020444D01*
X019997Y020445D02*
X020333Y020445D01*
X020332Y020446D02*
X019996Y020446D01*
X019995Y020447D02*
X020332Y020447D01*
X020331Y020448D02*
X019994Y020448D01*
X019993Y020449D02*
X020331Y020449D01*
X020330Y020450D02*
X019992Y020450D01*
X019990Y020451D02*
X020329Y020451D01*
X020329Y020452D02*
X019989Y020452D01*
X019988Y020453D02*
X020328Y020453D01*
X020328Y020454D02*
X019987Y020454D01*
X019986Y020454D02*
X020327Y020454D01*
X020327Y020455D02*
X019985Y020455D01*
X019984Y020456D02*
X020326Y020456D01*
X020326Y020457D02*
X019982Y020457D01*
X019981Y020458D02*
X020325Y020458D01*
X020325Y020459D02*
X019980Y020459D01*
X019979Y020460D02*
X020324Y020460D01*
X020324Y020461D02*
X019978Y020461D01*
X019977Y020462D02*
X020323Y020462D01*
X020323Y020463D02*
X019976Y020463D01*
X019974Y020464D02*
X020322Y020464D01*
X020322Y020465D02*
X019973Y020465D01*
X019972Y020466D02*
X020321Y020466D01*
X020321Y020467D02*
X019971Y020467D01*
X019970Y020468D02*
X020320Y020468D01*
X020320Y020469D02*
X019969Y020469D01*
X019968Y020470D02*
X020319Y020470D01*
X020319Y020471D02*
X019966Y020471D01*
X019965Y020471D02*
X020318Y020471D01*
X020318Y020472D02*
X019964Y020472D01*
X019963Y020473D02*
X020317Y020473D01*
X020317Y020474D02*
X019962Y020474D01*
X019961Y020475D02*
X020316Y020475D01*
X020316Y020476D02*
X019960Y020476D01*
X019958Y020477D02*
X020315Y020477D01*
X020315Y020478D02*
X019957Y020478D01*
X019956Y020479D02*
X020314Y020479D01*
X020314Y020480D02*
X019955Y020480D01*
X019954Y020481D02*
X020313Y020481D01*
X020313Y020482D02*
X019953Y020482D01*
X019951Y020483D02*
X020312Y020483D01*
X020312Y020484D02*
X019950Y020484D01*
X019949Y020485D02*
X020311Y020485D01*
X020311Y020486D02*
X019948Y020486D01*
X019947Y020487D02*
X020310Y020487D01*
X020309Y020488D02*
X019946Y020488D01*
X019945Y020489D02*
X020309Y020489D01*
X020308Y020489D02*
X019943Y020489D01*
X019942Y020490D02*
X020308Y020490D01*
X020307Y020491D02*
X019941Y020491D01*
X019940Y020492D02*
X020307Y020492D01*
X020306Y020493D02*
X019939Y020493D01*
X019938Y020494D02*
X020306Y020494D01*
X020305Y020495D02*
X019937Y020495D01*
X019935Y020496D02*
X020305Y020496D01*
X020304Y020497D02*
X019934Y020497D01*
X019933Y020498D02*
X020304Y020498D01*
X020303Y020499D02*
X019932Y020499D01*
X019931Y020500D02*
X020303Y020500D01*
X020302Y020501D02*
X019930Y020501D01*
X019929Y020502D02*
X020302Y020502D01*
X020301Y020503D02*
X019927Y020503D01*
X019926Y020504D02*
X020301Y020504D01*
X020300Y020505D02*
X019925Y020505D01*
X019924Y020506D02*
X020300Y020506D01*
X020299Y020506D02*
X019923Y020506D01*
X019922Y020507D02*
X020299Y020507D01*
X020298Y020508D02*
X019921Y020508D01*
X019919Y020509D02*
X020298Y020509D01*
X020297Y020510D02*
X019918Y020510D01*
X019916Y020511D02*
X020297Y020511D01*
X020296Y020512D02*
X019914Y020512D01*
X019912Y020513D02*
X020296Y020513D01*
X020295Y020514D02*
X019911Y020514D01*
X019909Y020515D02*
X020295Y020515D01*
X020294Y020516D02*
X019907Y020516D01*
X019906Y020517D02*
X020294Y020517D01*
X020293Y020518D02*
X019904Y020518D01*
X019902Y020519D02*
X020293Y020519D01*
X020292Y020520D02*
X019900Y020520D01*
X019899Y020521D02*
X020292Y020521D01*
X020291Y020522D02*
X019897Y020522D01*
X019895Y020523D02*
X020291Y020523D01*
X020290Y020523D02*
X019893Y020523D01*
X019892Y020524D02*
X020289Y020524D01*
X020289Y020525D02*
X019890Y020525D01*
X019888Y020526D02*
X020288Y020526D01*
X020287Y020527D02*
X019886Y020527D01*
X019885Y020528D02*
X020287Y020528D01*
X020286Y020529D02*
X019883Y020529D01*
X019881Y020530D02*
X020285Y020530D01*
X020284Y020531D02*
X019879Y020531D01*
X019878Y020532D02*
X020283Y020532D01*
X020283Y020533D02*
X019876Y020533D01*
X019874Y020534D02*
X020282Y020534D01*
X020281Y020535D02*
X019872Y020535D01*
X019871Y020536D02*
X020280Y020536D01*
X020280Y020537D02*
X019869Y020537D01*
X019867Y020538D02*
X020279Y020538D01*
X020278Y020539D02*
X019865Y020539D01*
X019864Y020540D02*
X020277Y020540D01*
X020276Y020540D02*
X019862Y020540D01*
X019860Y020541D02*
X020276Y020541D01*
X020275Y020542D02*
X019859Y020542D01*
X019857Y020543D02*
X020274Y020543D01*
X020273Y020544D02*
X019855Y020544D01*
X019853Y020545D02*
X020273Y020545D01*
X020272Y020546D02*
X019852Y020546D01*
X019850Y020547D02*
X020271Y020547D01*
X020270Y020548D02*
X019848Y020548D01*
X019846Y020549D02*
X020269Y020549D01*
X020269Y020550D02*
X019845Y020550D01*
X019843Y020551D02*
X020268Y020551D01*
X020267Y020552D02*
X019841Y020552D01*
X019839Y020553D02*
X020266Y020553D01*
X020266Y020554D02*
X019838Y020554D01*
X019836Y020555D02*
X020265Y020555D01*
X020264Y020556D02*
X019834Y020556D01*
X019832Y020557D02*
X020263Y020557D01*
X020262Y020557D02*
X019830Y020557D01*
X019827Y020558D02*
X020262Y020558D01*
X020261Y020559D02*
X019824Y020559D01*
X019821Y020560D02*
X020260Y020560D01*
X020259Y020561D02*
X019818Y020561D01*
X019815Y020562D02*
X020259Y020562D01*
X020258Y020563D02*
X019812Y020563D01*
X019809Y020564D02*
X020257Y020564D01*
X020256Y020565D02*
X019806Y020565D01*
X019802Y020566D02*
X020255Y020566D01*
X020255Y020567D02*
X019799Y020567D01*
X019796Y020568D02*
X020254Y020568D01*
X020253Y020569D02*
X019793Y020569D01*
X019790Y020570D02*
X020252Y020570D01*
X020252Y020571D02*
X019787Y020571D01*
X019784Y020572D02*
X020251Y020572D01*
X020250Y020573D02*
X019781Y020573D01*
X019778Y020574D02*
X020249Y020574D01*
X020248Y020574D02*
X019775Y020574D01*
X019772Y020575D02*
X020248Y020575D01*
X020247Y020576D02*
X019769Y020576D01*
X019766Y020577D02*
X020246Y020577D01*
X020245Y020578D02*
X019763Y020578D01*
X019760Y020579D02*
X020245Y020579D01*
X020244Y020580D02*
X019757Y020580D01*
X019754Y020581D02*
X020243Y020581D01*
X020242Y020582D02*
X019751Y020582D01*
X019748Y020583D02*
X020241Y020583D01*
X020241Y020584D02*
X019745Y020584D01*
X019742Y020585D02*
X020240Y020585D01*
X020239Y020586D02*
X019739Y020586D01*
X019736Y020587D02*
X020238Y020587D01*
X020237Y020588D02*
X019727Y020588D01*
X019718Y020589D02*
X020237Y020589D01*
X020236Y020590D02*
X019709Y020590D01*
X019699Y020591D02*
X020235Y020591D01*
X020234Y020591D02*
X019690Y020591D01*
X019681Y020592D02*
X020234Y020592D01*
X020233Y020593D02*
X019671Y020593D01*
X019662Y020594D02*
X020232Y020594D01*
X020231Y020595D02*
X019652Y020595D01*
X019643Y020596D02*
X020230Y020596D01*
X020230Y020597D02*
X019634Y020597D01*
X019628Y020597D02*
X019032Y020597D01*
X019031Y020596D02*
X019619Y020596D01*
X019609Y020595D02*
X019031Y020595D01*
X019033Y020598D02*
X020229Y020598D01*
X020228Y020599D02*
X019034Y020599D01*
X019034Y020600D02*
X020227Y020600D01*
X020227Y020601D02*
X019035Y020601D01*
X019036Y020602D02*
X020226Y020602D01*
X020225Y020603D02*
X019037Y020603D01*
X019038Y020604D02*
X020224Y020604D01*
X020223Y020605D02*
X019038Y020605D01*
X019039Y020606D02*
X020223Y020606D01*
X020222Y020607D02*
X019040Y020607D01*
X019041Y020608D02*
X020221Y020608D01*
X020220Y020609D02*
X019041Y020609D01*
X019042Y020609D02*
X020220Y020609D01*
X020219Y020610D02*
X019043Y020610D01*
X019044Y020611D02*
X020218Y020611D01*
X020217Y020612D02*
X019045Y020612D01*
X019045Y020613D02*
X020216Y020613D01*
X020216Y020614D02*
X019046Y020614D01*
X019047Y020615D02*
X020215Y020615D01*
X020214Y020616D02*
X019048Y020616D01*
X019049Y020617D02*
X020213Y020617D01*
X020213Y020618D02*
X019049Y020618D01*
X019050Y020619D02*
X020212Y020619D01*
X020211Y020620D02*
X019051Y020620D01*
X019052Y020621D02*
X020210Y020621D01*
X020209Y020622D02*
X019052Y020622D01*
X019053Y020623D02*
X020209Y020623D01*
X020208Y020624D02*
X019054Y020624D01*
X019055Y020625D02*
X020207Y020625D01*
X020206Y020626D02*
X019056Y020626D01*
X020206Y020626D01*
X020205Y020627D02*
X019057Y020627D01*
X019058Y020628D02*
X020204Y020628D01*
X020203Y020629D02*
X019059Y020629D01*
X019059Y020630D02*
X020202Y020630D01*
X020202Y020631D02*
X019060Y020631D01*
X019061Y020632D02*
X020201Y020632D01*
X020200Y020633D02*
X019062Y020633D01*
X019063Y020634D02*
X020199Y020634D01*
X020199Y020635D02*
X019063Y020635D01*
X019064Y020636D02*
X020198Y020636D01*
X020197Y020637D02*
X019065Y020637D01*
X019066Y020638D02*
X020196Y020638D01*
X020195Y020639D02*
X019066Y020639D01*
X019067Y020640D02*
X020195Y020640D01*
X020194Y020641D02*
X019068Y020641D01*
X019069Y020642D02*
X020193Y020642D01*
X020192Y020643D02*
X019070Y020643D01*
X019071Y020643D02*
X020191Y020643D01*
X020190Y020644D02*
X019072Y020644D01*
X019073Y020645D02*
X020189Y020645D01*
X020188Y020646D02*
X019074Y020646D01*
X019075Y020647D02*
X020187Y020647D01*
X020186Y020648D02*
X019076Y020648D01*
X019077Y020649D02*
X020184Y020649D01*
X020183Y020650D02*
X019079Y020650D01*
X019080Y020651D02*
X020182Y020651D01*
X020181Y020652D02*
X019081Y020652D01*
X019082Y020653D02*
X020180Y020653D01*
X020179Y020654D02*
X019083Y020654D01*
X019084Y020655D02*
X020177Y020655D01*
X020176Y020656D02*
X019085Y020656D01*
X019087Y020657D02*
X020175Y020657D01*
X020174Y020658D02*
X019088Y020658D01*
X019089Y020659D02*
X020173Y020659D01*
X020172Y020660D02*
X019090Y020660D01*
X019091Y020660D02*
X020171Y020660D01*
X020169Y020661D02*
X019092Y020661D01*
X019094Y020662D02*
X020168Y020662D01*
X020167Y020663D02*
X019095Y020663D01*
X019096Y020664D02*
X020166Y020664D01*
X020165Y020665D02*
X019097Y020665D01*
X019098Y020666D02*
X020164Y020666D01*
X020163Y020667D02*
X019099Y020667D01*
X019100Y020668D02*
X020161Y020668D01*
X020160Y020669D02*
X019102Y020669D01*
X019103Y020670D02*
X020159Y020670D01*
X020158Y020671D02*
X019104Y020671D01*
X019105Y020672D02*
X020157Y020672D01*
X020156Y020673D02*
X019106Y020673D01*
X019107Y020674D02*
X020155Y020674D01*
X020153Y020675D02*
X019108Y020675D01*
X019110Y020676D02*
X020152Y020676D01*
X020151Y020677D02*
X019111Y020677D01*
X019112Y020677D02*
X020150Y020677D01*
X020149Y020678D02*
X019113Y020678D01*
X019114Y020679D02*
X020148Y020679D01*
X020147Y020680D02*
X019115Y020680D01*
X019116Y020681D02*
X020145Y020681D01*
X020144Y020682D02*
X019118Y020682D01*
X019119Y020683D02*
X020143Y020683D01*
X020142Y020684D02*
X019120Y020684D01*
X019121Y020685D02*
X020141Y020685D01*
X020140Y020686D02*
X019122Y020686D01*
X019123Y020687D02*
X020139Y020687D01*
X020137Y020688D02*
X019124Y020688D01*
X019126Y020689D02*
X020136Y020689D01*
X020135Y020690D02*
X019127Y020690D01*
X019128Y020691D02*
X020134Y020691D01*
X020133Y020692D02*
X019129Y020692D01*
X019130Y020693D02*
X020132Y020693D01*
X020131Y020694D02*
X019131Y020694D01*
X019132Y020694D02*
X020129Y020694D01*
X020128Y020695D02*
X019134Y020695D01*
X019135Y020696D02*
X020127Y020696D01*
X020126Y020697D02*
X019136Y020697D01*
X019137Y020698D02*
X020125Y020698D01*
X020124Y020699D02*
X019138Y020699D01*
X019139Y020700D02*
X020123Y020700D01*
X020121Y020701D02*
X019140Y020701D01*
X019142Y020702D02*
X020120Y020702D01*
X020119Y020703D02*
X019143Y020703D01*
X019144Y020704D02*
X020118Y020704D01*
X020117Y020705D02*
X019145Y020705D01*
X019146Y020706D02*
X020116Y020706D01*
X020114Y020707D02*
X019147Y020707D01*
X019148Y020708D02*
X020113Y020708D01*
X020112Y020709D02*
X019150Y020709D01*
X019151Y020710D02*
X020111Y020710D01*
X020110Y020711D02*
X019152Y020711D01*
X019153Y020711D02*
X020109Y020711D01*
X020108Y020712D02*
X019154Y020712D01*
X019155Y020713D02*
X020106Y020713D01*
X020105Y020714D02*
X019156Y020714D01*
X019158Y020715D02*
X020104Y020715D01*
X020103Y020716D02*
X019159Y020716D01*
X019160Y020717D02*
X020102Y020717D01*
X020101Y020718D02*
X019161Y020718D01*
X019162Y020719D02*
X020100Y020719D01*
X020098Y020720D02*
X019163Y020720D01*
X019165Y020721D02*
X020097Y020721D01*
X020096Y020722D02*
X019166Y020722D01*
X019167Y020723D02*
X020095Y020723D01*
X020094Y020724D02*
X019168Y020724D01*
X019169Y020725D02*
X020093Y020725D01*
X020092Y020726D02*
X019170Y020726D01*
X019171Y020727D02*
X020090Y020727D01*
X020089Y020728D02*
X019173Y020728D01*
X019174Y020729D02*
X020088Y020729D01*
X020087Y020729D02*
X019175Y020729D01*
X019176Y020730D02*
X020086Y020730D01*
X020085Y020731D02*
X019177Y020731D01*
X019178Y020732D02*
X020084Y020732D01*
X020082Y020733D02*
X019179Y020733D01*
X019181Y020734D02*
X020081Y020734D01*
X020080Y020735D02*
X019182Y020735D01*
X019183Y020736D02*
X020079Y020736D01*
X020078Y020737D02*
X019184Y020737D01*
X019185Y020738D02*
X020077Y020738D01*
X020076Y020739D02*
X019186Y020739D01*
X019188Y020740D02*
X020074Y020740D01*
X020073Y020741D02*
X019189Y020741D01*
X019191Y020742D02*
X020071Y020742D01*
X020069Y020743D02*
X019193Y020743D01*
X019195Y020744D02*
X020067Y020744D01*
X020066Y020745D02*
X019196Y020745D01*
X019198Y020746D02*
X020064Y020746D01*
X020062Y020746D02*
X019200Y020746D01*
X019201Y020747D02*
X020060Y020747D01*
X020059Y020748D02*
X019203Y020748D01*
X019205Y020749D02*
X020057Y020749D01*
X020055Y020750D02*
X019207Y020750D01*
X019208Y020751D02*
X020053Y020751D01*
X020052Y020752D02*
X019210Y020752D01*
X019212Y020753D02*
X020050Y020753D01*
X020048Y020754D02*
X019214Y020754D01*
X019215Y020755D02*
X020046Y020755D01*
X020045Y020756D02*
X019217Y020756D01*
X019219Y020757D02*
X020043Y020757D01*
X020041Y020758D02*
X019221Y020758D01*
X019222Y020759D02*
X020039Y020759D01*
X020038Y020760D02*
X019224Y020760D01*
X019226Y020761D02*
X020036Y020761D01*
X020034Y020762D02*
X019228Y020762D01*
X019229Y020763D02*
X020032Y020763D01*
X020031Y020763D02*
X019231Y020763D01*
X019233Y020764D02*
X020029Y020764D01*
X020027Y020765D02*
X019235Y020765D01*
X019236Y020766D02*
X020026Y020766D01*
X020024Y020767D02*
X019238Y020767D01*
X019240Y020768D02*
X020022Y020768D01*
X020020Y020769D02*
X019241Y020769D01*
X019243Y020770D02*
X020019Y020770D01*
X020017Y020771D02*
X019245Y020771D01*
X019247Y020772D02*
X020015Y020772D01*
X020013Y020773D02*
X019248Y020773D01*
X019250Y020774D02*
X020012Y020774D01*
X020010Y020775D02*
X019252Y020775D01*
X019254Y020776D02*
X020008Y020776D01*
X020006Y020777D02*
X019255Y020777D01*
X019257Y020778D02*
X020005Y020778D01*
X020003Y020779D02*
X019259Y020779D01*
X019261Y020780D02*
X020001Y020780D01*
X019999Y020780D02*
X019262Y020780D01*
X019264Y020781D02*
X019998Y020781D01*
X019996Y020782D02*
X019266Y020782D01*
X019268Y020783D02*
X019994Y020783D01*
X019992Y020784D02*
X019269Y020784D01*
X019271Y020785D02*
X019991Y020785D01*
X019989Y020786D02*
X019273Y020786D01*
X019275Y020787D02*
X019987Y020787D01*
X019986Y020788D02*
X019276Y020788D01*
X019278Y020789D02*
X019984Y020789D01*
X019982Y020790D02*
X019280Y020790D01*
X019282Y020791D02*
X019980Y020791D01*
X019979Y020792D02*
X019283Y020792D01*
X019285Y020793D02*
X019977Y020793D01*
X019975Y020794D02*
X019287Y020794D01*
X019289Y020795D02*
X019973Y020795D01*
X019972Y020796D02*
X019290Y020796D01*
X019292Y020797D02*
X019970Y020797D01*
X019968Y020797D02*
X019294Y020797D01*
X019295Y020798D02*
X019966Y020798D01*
X019965Y020799D02*
X019297Y020799D01*
X019299Y020800D02*
X019963Y020800D01*
X019961Y020801D02*
X019301Y020801D01*
X019302Y020802D02*
X019959Y020802D01*
X019958Y020803D02*
X019304Y020803D01*
X019306Y020804D02*
X019956Y020804D01*
X019954Y020805D02*
X019308Y020805D01*
X019309Y020806D02*
X019952Y020806D01*
X019951Y020807D02*
X019311Y020807D01*
X019313Y020808D02*
X019949Y020808D01*
X019947Y020809D02*
X019315Y020809D01*
X019316Y020810D02*
X019945Y020810D01*
X019944Y020811D02*
X019318Y020811D01*
X019320Y020812D02*
X019942Y020812D01*
X019940Y020813D02*
X019322Y020813D01*
X019324Y020814D02*
X019938Y020814D01*
X019934Y020814D02*
X019327Y020814D01*
X019330Y020815D02*
X019931Y020815D01*
X019928Y020816D02*
X019333Y020816D01*
X019336Y020817D02*
X019925Y020817D01*
X019922Y020818D02*
X019339Y020818D01*
X019343Y020819D02*
X019919Y020819D01*
X019916Y020820D02*
X019346Y020820D01*
X019349Y020821D02*
X019913Y020821D01*
X019910Y020822D02*
X019352Y020822D01*
X019355Y020823D02*
X019907Y020823D01*
X019904Y020824D02*
X019358Y020824D01*
X019361Y020825D02*
X019901Y020825D01*
X019898Y020826D02*
X019364Y020826D01*
X019367Y020827D02*
X019895Y020827D01*
X019892Y020828D02*
X019370Y020828D01*
X019373Y020829D02*
X019889Y020829D01*
X019886Y020830D02*
X019376Y020830D01*
X019379Y020831D02*
X019883Y020831D01*
X019880Y020831D02*
X019382Y020831D01*
X019385Y020832D02*
X019877Y020832D01*
X019874Y020833D02*
X019388Y020833D01*
X019391Y020834D02*
X019871Y020834D01*
X019868Y020835D02*
X019394Y020835D01*
X019397Y020836D02*
X019865Y020836D01*
X019861Y020837D02*
X019400Y020837D01*
X019403Y020838D02*
X019858Y020838D01*
X019855Y020839D02*
X019406Y020839D01*
X019409Y020840D02*
X019852Y020840D01*
X019849Y020841D02*
X019413Y020841D01*
X019416Y020842D02*
X019846Y020842D01*
X019843Y020843D02*
X019419Y020843D01*
X019422Y020844D02*
X019840Y020844D01*
X019837Y020845D02*
X019425Y020845D01*
X019428Y020846D02*
X019834Y020846D01*
X019831Y020847D02*
X019431Y020847D01*
X019434Y020848D02*
X019828Y020848D01*
X019825Y020849D02*
X019437Y020849D01*
X019440Y020849D02*
X019822Y020849D01*
X019819Y020850D02*
X019443Y020850D01*
X019446Y020851D02*
X019816Y020851D01*
X019813Y020852D02*
X019449Y020852D01*
X019452Y020853D02*
X019810Y020853D01*
X019807Y020854D02*
X019455Y020854D01*
X019458Y020855D02*
X019804Y020855D01*
X019801Y020856D02*
X019461Y020856D01*
X019464Y020857D02*
X019798Y020857D01*
X019795Y020858D02*
X019467Y020858D01*
X019470Y020859D02*
X019791Y020859D01*
X019783Y020860D02*
X019478Y020860D01*
X019488Y020861D02*
X019774Y020861D01*
X019765Y020862D02*
X019497Y020862D01*
X019507Y020863D02*
X019755Y020863D01*
X019746Y020864D02*
X019516Y020864D01*
X019525Y020865D02*
X019736Y020865D01*
X019727Y020866D02*
X019535Y020866D01*
X019544Y020866D02*
X019718Y020866D01*
X019708Y020867D02*
X019554Y020867D01*
X019563Y020868D02*
X019699Y020868D01*
X019690Y020869D02*
X019572Y020869D01*
X019582Y020870D02*
X019680Y020870D01*
X019671Y020871D02*
X019591Y020871D01*
X019600Y020872D02*
X019661Y020872D01*
X019652Y020873D02*
X019610Y020873D01*
X019619Y020874D02*
X019643Y020874D01*
X019633Y020875D02*
X019629Y020875D01*
X019609Y020313D02*
X019366Y020313D01*
X019367Y020312D02*
X019600Y020312D01*
X019592Y020311D02*
X019368Y020311D01*
X019369Y020310D02*
X019583Y020310D01*
X019574Y020309D02*
X019369Y020309D01*
X019370Y020308D02*
X019566Y020308D01*
X019562Y020307D02*
X019371Y020307D01*
X019372Y020306D02*
X019560Y020306D01*
X019557Y020305D02*
X019373Y020305D01*
X019373Y020304D02*
X019554Y020304D01*
X019551Y020303D02*
X019374Y020303D01*
X019375Y020302D02*
X019549Y020302D01*
X019546Y020301D02*
X019376Y020301D01*
X019377Y020300D02*
X019543Y020300D01*
X019541Y020300D02*
X019377Y020300D01*
X019378Y020299D02*
X019538Y020299D01*
X019535Y020298D02*
X019379Y020298D01*
X019380Y020297D02*
X019532Y020297D01*
X019530Y020296D02*
X019381Y020296D01*
X019381Y020295D02*
X019527Y020295D01*
X019524Y020294D02*
X019382Y020294D01*
X019383Y020293D02*
X019522Y020293D01*
X019519Y020292D02*
X019384Y020292D01*
X019385Y020291D02*
X019517Y020291D01*
X019516Y020290D02*
X019385Y020290D01*
X019386Y020289D02*
X019514Y020289D01*
X019513Y020288D02*
X019387Y020288D01*
X019388Y020287D02*
X019511Y020287D01*
X019510Y020286D02*
X019389Y020286D01*
X019389Y020285D02*
X019508Y020285D01*
X019506Y020284D02*
X019390Y020284D01*
X019391Y020283D02*
X019505Y020283D01*
X019504Y020283D02*
X019392Y020283D01*
X019393Y020282D02*
X019502Y020282D01*
X019501Y020281D02*
X019393Y020281D01*
X019394Y020280D02*
X019499Y020280D01*
X019498Y020279D02*
X019395Y020279D01*
X019396Y020278D02*
X019496Y020278D01*
X019494Y020277D02*
X019397Y020277D01*
X019397Y020276D02*
X019493Y020276D01*
X019491Y020275D02*
X019398Y020275D01*
X019399Y020274D02*
X019490Y020274D01*
X019489Y020273D02*
X019400Y020273D01*
X019401Y020272D02*
X019487Y020272D01*
X019485Y020271D02*
X019401Y020271D01*
X019402Y020270D02*
X019484Y020270D01*
X019482Y020269D02*
X019403Y020269D01*
X019404Y020268D02*
X019481Y020268D01*
X019479Y020267D02*
X019405Y020267D01*
X019405Y020266D02*
X019478Y020266D01*
X019476Y020266D02*
X019406Y020266D01*
X019407Y020265D02*
X019475Y020265D01*
X019473Y020264D02*
X019408Y020264D01*
X019409Y020263D02*
X019472Y020263D01*
X019470Y020262D02*
X019409Y020262D01*
X019410Y020261D02*
X019469Y020261D01*
X019467Y020260D02*
X019411Y020260D01*
X019412Y020259D02*
X019466Y020259D01*
X019464Y020258D02*
X019413Y020258D01*
X019413Y020257D02*
X019463Y020257D01*
X019461Y020256D02*
X019414Y020256D01*
X019415Y020255D02*
X019460Y020255D01*
X019458Y020254D02*
X019416Y020254D01*
X019417Y020253D02*
X019457Y020253D01*
X019455Y020252D02*
X019417Y020252D01*
X019418Y020251D02*
X019454Y020251D01*
X019452Y020250D02*
X019419Y020250D01*
X019420Y020249D02*
X019451Y020249D01*
X019449Y020249D02*
X019421Y020249D01*
X019421Y020248D02*
X019448Y020248D01*
X019446Y020247D02*
X019422Y020247D01*
X019423Y020246D02*
X019445Y020246D01*
X019443Y020245D02*
X019424Y020245D01*
X019425Y020244D02*
X019442Y020244D01*
X019440Y020243D02*
X019425Y020243D01*
X019426Y020242D02*
X019439Y020242D01*
X019437Y020241D02*
X019427Y020241D01*
X019428Y020240D02*
X019436Y020240D01*
X019434Y020239D02*
X019429Y020239D01*
X019429Y020238D02*
X019433Y020238D01*
X019431Y020237D02*
X019430Y020237D01*
X019332Y020037D02*
X019783Y020037D01*
X019781Y020036D02*
X019331Y020036D01*
X019331Y020035D02*
X019779Y020035D01*
X019776Y020034D02*
X019330Y020034D01*
X019330Y020033D02*
X019774Y020033D01*
X019772Y020032D02*
X019329Y020032D01*
X019329Y020031D02*
X019770Y020031D01*
X019767Y020030D02*
X019328Y020030D01*
X019327Y020029D02*
X019765Y020029D01*
X019763Y020028D02*
X019327Y020028D01*
X019326Y020027D02*
X019761Y020027D01*
X019759Y020026D02*
X019326Y020026D01*
X019325Y020026D02*
X019756Y020026D01*
X019754Y020025D02*
X019325Y020025D01*
X019324Y020024D02*
X019752Y020024D01*
X019750Y020023D02*
X019324Y020023D01*
X019323Y020022D02*
X019748Y020022D01*
X019745Y020021D02*
X019323Y020021D01*
X019322Y020020D02*
X019743Y020020D01*
X019741Y020019D02*
X019322Y020019D01*
X019321Y020018D02*
X019739Y020018D01*
X019736Y020017D02*
X019321Y020017D01*
X019320Y020016D02*
X019734Y020016D01*
X019732Y020015D02*
X019320Y020015D01*
X019319Y020014D02*
X019730Y020014D01*
X019728Y020013D02*
X019319Y020013D01*
X019318Y020012D02*
X019725Y020012D01*
X019723Y020011D02*
X019317Y020011D01*
X019317Y020010D02*
X019721Y020010D01*
X019719Y020009D02*
X019316Y020009D01*
X019717Y020009D01*
X019714Y020008D02*
X019315Y020008D01*
X019315Y020007D02*
X019712Y020007D01*
X019710Y020006D02*
X019314Y020006D01*
X019314Y020005D02*
X019708Y020005D01*
X019706Y020004D02*
X019314Y020004D01*
X019314Y020003D02*
X019703Y020003D01*
X019701Y020002D02*
X019313Y020002D01*
X019313Y020001D02*
X019699Y020001D01*
X019697Y020000D02*
X019313Y020000D01*
X019312Y019999D02*
X019694Y019999D01*
X019692Y019998D02*
X019312Y019998D01*
X019312Y019997D02*
X019690Y019997D01*
X019688Y019996D02*
X019312Y019996D01*
X019311Y019995D02*
X019686Y019995D01*
X019683Y019994D02*
X019311Y019994D01*
X019311Y019993D02*
X019681Y019993D01*
X019679Y019992D02*
X019310Y019992D01*
X019310Y019991D02*
X019677Y019991D01*
X019675Y019991D02*
X019310Y019991D01*
X019310Y019990D02*
X019672Y019990D01*
X019670Y019989D02*
X019309Y019989D01*
X019309Y019988D02*
X019668Y019988D01*
X019666Y019987D02*
X019309Y019987D01*
X019308Y019986D02*
X019664Y019986D01*
X019661Y019985D02*
X019308Y019985D01*
X019308Y019984D02*
X019659Y019984D01*
X019657Y019983D02*
X019307Y019983D01*
X019307Y019982D02*
X019655Y019982D01*
X019652Y019981D02*
X019307Y019981D01*
X019307Y019980D02*
X019650Y019980D01*
X019648Y019979D02*
X019306Y019979D01*
X019306Y019978D02*
X019646Y019978D01*
X019644Y019977D02*
X019306Y019977D01*
X019305Y019976D02*
X019641Y019976D01*
X019639Y019975D02*
X019305Y019975D01*
X019305Y019974D02*
X019637Y019974D01*
X019635Y019974D02*
X019305Y019974D01*
X019304Y019973D02*
X019633Y019973D01*
X019630Y019972D02*
X019304Y019972D01*
X019304Y019971D02*
X019628Y019971D01*
X019626Y019970D02*
X019303Y019970D01*
X019303Y019969D02*
X019624Y019969D01*
X019621Y019968D02*
X019303Y019968D01*
X019303Y019967D02*
X019619Y019967D01*
X019617Y019966D02*
X019302Y019966D01*
X019302Y019965D02*
X019615Y019965D01*
X019613Y019964D02*
X019302Y019964D01*
X019302Y019963D02*
X019610Y019963D01*
X019608Y019962D02*
X019302Y019962D01*
X019302Y019961D02*
X019606Y019961D01*
X019604Y019960D02*
X019302Y019960D01*
X019301Y019959D02*
X019602Y019959D01*
X019599Y019958D02*
X019301Y019958D01*
X019301Y019957D02*
X019597Y019957D01*
X019595Y019957D02*
X019301Y019957D01*
X019301Y019956D02*
X019593Y019956D01*
X019591Y019955D02*
X019301Y019955D01*
X019301Y019954D02*
X019588Y019954D01*
X019586Y019953D02*
X019301Y019953D01*
X019301Y019952D02*
X019584Y019952D01*
X019582Y019951D02*
X019301Y019951D01*
X019301Y019950D02*
X019579Y019950D01*
X019577Y019949D02*
X019300Y019949D01*
X019300Y019948D02*
X019575Y019948D01*
X019573Y019947D02*
X019300Y019947D01*
X019300Y019946D02*
X019571Y019946D01*
X019568Y019945D02*
X019300Y019945D01*
X019300Y019944D02*
X019566Y019944D01*
X019564Y019943D02*
X019300Y019943D01*
X019300Y019942D02*
X019562Y019942D01*
X019560Y019941D02*
X019300Y019941D01*
X019300Y019940D02*
X019557Y019940D01*
X019555Y019940D02*
X019300Y019940D01*
X019300Y019939D02*
X019553Y019939D01*
X019551Y019938D02*
X019299Y019938D01*
X019299Y019937D02*
X019548Y019937D01*
X019546Y019936D02*
X019299Y019936D01*
X019299Y019935D02*
X019545Y019935D01*
X019544Y019934D02*
X019299Y019934D01*
X019299Y019933D02*
X019543Y019933D01*
X019542Y019932D02*
X019299Y019932D01*
X019299Y019931D02*
X019541Y019931D01*
X019540Y019930D02*
X019299Y019930D01*
X019299Y019929D02*
X019539Y019929D01*
X019538Y019928D02*
X019299Y019928D01*
X019298Y019927D02*
X019537Y019927D01*
X019536Y019926D02*
X019298Y019926D01*
X019298Y019925D02*
X019535Y019925D01*
X019534Y019924D02*
X019298Y019924D01*
X019298Y019923D02*
X019533Y019923D01*
X019532Y019923D02*
X019298Y019923D01*
X019298Y019922D02*
X019531Y019922D01*
X019530Y019921D02*
X019298Y019921D01*
X019298Y019920D02*
X019530Y019920D01*
X019529Y019919D02*
X019298Y019919D01*
X019298Y019918D02*
X019529Y019918D01*
X019529Y019917D02*
X019298Y019917D01*
X019298Y019916D02*
X019529Y019916D01*
X019528Y019915D02*
X019298Y019915D01*
X019298Y019914D02*
X019528Y019914D01*
X019528Y019913D02*
X019298Y019913D01*
X019298Y019912D02*
X019527Y019912D01*
X019527Y019911D02*
X019298Y019911D01*
X019299Y019910D02*
X019527Y019910D01*
X019526Y019909D02*
X019299Y019909D01*
X019299Y019908D02*
X019526Y019908D01*
X019526Y019907D02*
X019299Y019907D01*
X019299Y019906D02*
X019526Y019906D01*
X019525Y019906D02*
X019299Y019906D01*
X019299Y019905D02*
X019525Y019905D01*
X019525Y019904D02*
X019299Y019904D01*
X019299Y019903D02*
X019524Y019903D01*
X019524Y019902D02*
X019300Y019902D01*
X019300Y019901D02*
X019525Y019901D01*
X019525Y019900D02*
X019300Y019900D01*
X019300Y019899D02*
X019525Y019899D01*
X019525Y019898D02*
X019300Y019898D01*
X019300Y019897D02*
X019525Y019897D01*
X019526Y019896D02*
X019300Y019896D01*
X019300Y019895D02*
X019526Y019895D01*
X019526Y019894D02*
X019301Y019894D01*
X019301Y019893D02*
X019526Y019893D01*
X019526Y019892D02*
X019301Y019892D01*
X019301Y019891D02*
X019527Y019891D01*
X019527Y019890D02*
X019301Y019890D01*
X019301Y019889D02*
X019527Y019889D01*
X019301Y019889D01*
X019301Y019888D02*
X019527Y019888D01*
X019528Y019887D02*
X019301Y019887D01*
X019302Y019886D02*
X019528Y019886D01*
X019529Y019885D02*
X019302Y019885D01*
X019302Y019884D02*
X019529Y019884D01*
X019530Y019883D02*
X019302Y019883D01*
X019302Y019882D02*
X019531Y019882D01*
X019531Y019881D02*
X019302Y019881D01*
X019302Y019880D02*
X019532Y019880D01*
X019533Y019879D02*
X019302Y019879D01*
X019303Y019878D02*
X019533Y019878D01*
X019534Y019877D02*
X019303Y019877D01*
X019303Y019876D02*
X019535Y019876D01*
X019535Y019875D02*
X019303Y019875D01*
X019303Y019874D02*
X019536Y019874D01*
X019537Y019873D02*
X019303Y019873D01*
X019303Y019872D02*
X019538Y019872D01*
X019540Y019871D02*
X019303Y019871D01*
X019304Y019871D02*
X019541Y019871D01*
X019542Y019870D02*
X019304Y019870D01*
X019304Y019869D02*
X019543Y019869D01*
X019544Y019868D02*
X019304Y019868D01*
X019304Y019867D02*
X019546Y019867D01*
X019547Y019866D02*
X019304Y019866D01*
X019304Y019865D02*
X019548Y019865D01*
X019550Y019864D02*
X019304Y019864D01*
X019304Y019863D02*
X019552Y019863D01*
X019554Y019862D02*
X019305Y019862D01*
X019305Y019861D02*
X019556Y019861D01*
X019558Y019860D02*
X019305Y019860D01*
X019305Y019859D02*
X019560Y019859D01*
X019562Y019858D02*
X019305Y019858D01*
X019305Y019857D02*
X019564Y019857D01*
X019567Y019856D02*
X019305Y019856D01*
X019306Y019855D02*
X019571Y019855D01*
X019575Y019854D02*
X019306Y019854D01*
X019579Y019854D01*
X019583Y019853D02*
X019307Y019853D01*
X019307Y019852D02*
X019587Y019852D01*
X019591Y019851D02*
X019308Y019851D01*
X019308Y019850D02*
X019595Y019850D01*
X019599Y019849D02*
X019308Y019849D01*
X019309Y019848D02*
X019612Y019848D01*
X019626Y019847D02*
X019309Y019847D01*
X019456Y019698D02*
X019805Y019698D01*
X019802Y019697D02*
X019459Y019697D01*
X019462Y019696D02*
X019799Y019696D01*
X019795Y019695D02*
X019464Y019695D01*
X019467Y019694D02*
X019792Y019694D01*
X019789Y019693D02*
X019470Y019693D01*
X019473Y019692D02*
X019785Y019692D01*
X019782Y019691D02*
X019475Y019691D01*
X019478Y019690D02*
X019779Y019690D01*
X019775Y019689D02*
X019481Y019689D01*
X019484Y019688D02*
X019772Y019688D01*
X019768Y019687D02*
X019486Y019687D01*
X019489Y019686D02*
X019765Y019686D01*
X019762Y019685D02*
X019492Y019685D01*
X019494Y019684D02*
X019758Y019684D01*
X019755Y019683D02*
X019497Y019683D01*
X019500Y019683D02*
X019752Y019683D01*
X019748Y019682D02*
X019503Y019682D01*
X019505Y019681D02*
X019745Y019681D01*
X019741Y019680D02*
X019510Y019680D01*
X019517Y019679D02*
X019738Y019679D01*
X019735Y019678D02*
X019524Y019678D01*
X019532Y019677D02*
X019731Y019677D01*
X019728Y019676D02*
X019539Y019676D01*
X019546Y019675D02*
X019725Y019675D01*
X019721Y019674D02*
X019554Y019674D01*
X019561Y019673D02*
X019713Y019673D01*
X019702Y019672D02*
X019569Y019672D01*
X019576Y019671D02*
X019691Y019671D01*
X019680Y019670D02*
X019583Y019670D01*
X019591Y019669D02*
X019670Y019669D01*
X019659Y019668D02*
X019598Y019668D01*
X019605Y019667D02*
X019648Y019667D01*
X019637Y019666D02*
X019613Y019666D01*
X019620Y019666D02*
X019626Y019666D01*
D12*
X018034Y020308D02*
X017947Y020221D01*
X017860Y020308D01*
X017773Y020221D01*
X017687Y020308D01*
X017687Y020568D01*
X017518Y020568D02*
X017518Y020308D01*
X017431Y020221D01*
X017344Y020308D01*
X017258Y020221D01*
X017171Y020308D01*
X017171Y020568D01*
X017002Y020568D02*
X017002Y020308D01*
X016916Y020221D01*
X016829Y020308D01*
X016742Y020221D01*
X016655Y020308D01*
X016655Y020568D01*
X016487Y020308D02*
X016487Y020221D01*
X016400Y020221D01*
X016400Y020308D01*
X016487Y020308D01*
X016229Y020221D02*
X015969Y020221D01*
X015882Y020308D01*
X015969Y020394D01*
X016142Y020394D01*
X016229Y020481D01*
X016142Y020568D01*
X015882Y020568D01*
X015713Y020568D02*
X015626Y020568D01*
X015626Y020221D01*
X015540Y020221D02*
X015713Y020221D01*
X015369Y020308D02*
X015283Y020221D01*
X015023Y020221D01*
X015023Y020134D02*
X015023Y020568D01*
X015283Y020568D01*
X015369Y020481D01*
X015369Y020308D01*
X015196Y020047D02*
X015109Y020047D01*
X015023Y020134D01*
X014854Y020221D02*
X014854Y020568D01*
X014594Y020568D01*
X014507Y020481D01*
X014507Y020221D01*
X014338Y020308D02*
X014251Y020221D01*
X013991Y020221D01*
X013991Y020481D01*
X014078Y020568D01*
X014251Y020568D01*
X014251Y020394D02*
X013991Y020394D01*
X013823Y020221D02*
X013649Y020221D01*
X013736Y020221D02*
X013736Y020741D01*
X013823Y020741D01*
X013479Y020568D02*
X013479Y020308D01*
X013392Y020221D01*
X013305Y020308D01*
X013219Y020221D01*
X013132Y020308D01*
X013132Y020568D01*
X012963Y020481D02*
X012876Y020568D01*
X012703Y020568D01*
X012616Y020481D01*
X012616Y020394D01*
X012963Y020394D01*
X012963Y020308D02*
X012963Y020481D01*
X012963Y020308D02*
X012876Y020221D01*
X012703Y020221D01*
X012448Y020221D02*
X012448Y020568D01*
X012448Y020394D02*
X012274Y020568D01*
X012187Y020568D01*
X012018Y020741D02*
X012018Y020221D01*
X012018Y020394D02*
X011758Y020568D01*
X011588Y020308D02*
X011501Y020308D01*
X011501Y020221D01*
X011588Y020221D01*
X011588Y020308D01*
X011758Y020221D02*
X012018Y020394D01*
X011330Y020308D02*
X011244Y020221D01*
X010984Y020221D01*
X010815Y020221D02*
X010815Y020741D01*
X010728Y020568D02*
X010555Y020568D01*
X010468Y020481D01*
X010468Y020221D01*
X010815Y020481D02*
X010728Y020568D01*
X010984Y020568D02*
X011244Y020568D01*
X011330Y020481D01*
X011330Y020308D01*
X014251Y020394D02*
X014338Y020308D01*
X015626Y020741D02*
X015626Y020828D01*
X018034Y020568D02*
X018034Y020308D01*
D13*
X017696Y019900D02*
X017696Y019852D01*
X017696Y019755D02*
X017696Y019561D01*
X017744Y019561D02*
X017647Y019561D01*
X017547Y019561D02*
X017547Y019755D01*
X017499Y019755D01*
X017451Y019707D01*
X017402Y019755D01*
X017354Y019707D01*
X017354Y019561D01*
X017451Y019561D02*
X017451Y019707D01*
X017253Y019755D02*
X017253Y019465D01*
X017253Y019561D02*
X017108Y019561D01*
X017059Y019610D01*
X017059Y019707D01*
X017108Y019755D01*
X017253Y019755D01*
X016958Y019852D02*
X016910Y019852D01*
X016910Y019561D01*
X016958Y019561D02*
X016861Y019561D01*
X016762Y019610D02*
X016713Y019561D01*
X016568Y019561D01*
X016568Y019755D01*
X016467Y019755D02*
X016419Y019755D01*
X016419Y019561D01*
X016467Y019561D02*
X016370Y019561D01*
X016271Y019561D02*
X016271Y019755D01*
X016126Y019755D01*
X016077Y019707D01*
X016077Y019561D01*
X015976Y019610D02*
X015928Y019561D01*
X015831Y019561D01*
X015783Y019610D01*
X015783Y019707D01*
X015831Y019755D01*
X015928Y019755D01*
X015976Y019707D01*
X015976Y019610D01*
X016419Y019852D02*
X016419Y019900D01*
X016762Y019755D02*
X016762Y019610D01*
X017696Y019755D02*
X017744Y019755D01*
X017845Y019755D02*
X017990Y019755D01*
X018039Y019707D01*
X017990Y019658D01*
X017893Y019658D01*
X017845Y019610D01*
X017893Y019561D01*
X018039Y019561D01*
X015387Y019755D02*
X015290Y019561D01*
X015193Y019755D01*
X015092Y019755D02*
X014995Y019852D01*
X014995Y019561D01*
X014899Y019561D02*
X015092Y019561D01*
X014797Y019561D02*
X014749Y019561D01*
X014749Y019610D01*
X014797Y019610D01*
X014797Y019561D01*
X014650Y019610D02*
X014457Y019803D01*
X014457Y019610D01*
X014505Y019561D01*
X014602Y019561D01*
X014650Y019610D01*
X014650Y019803D01*
X014602Y019852D01*
X014505Y019852D01*
X014457Y019803D01*
X014405Y022461D02*
X014454Y022510D01*
X014454Y022607D01*
X014405Y022655D01*
X014309Y022655D01*
X014260Y022607D01*
X014260Y022510D01*
X014309Y022461D01*
X014405Y022461D01*
X014555Y022461D02*
X014555Y022607D01*
X014603Y022655D01*
X014652Y022607D01*
X014652Y022461D01*
X014748Y022461D02*
X014748Y022655D01*
X014700Y022655D01*
X014652Y022607D01*
X014850Y022607D02*
X014850Y022461D01*
X014946Y022461D02*
X014946Y022607D01*
X014898Y022655D01*
X014850Y022607D01*
X014946Y022607D02*
X014995Y022655D01*
X015043Y022655D01*
X015043Y022461D01*
X015144Y022510D02*
X015193Y022461D01*
X015289Y022461D01*
X015338Y022510D01*
X015338Y022607D01*
X015289Y022655D01*
X015193Y022655D01*
X015144Y022607D01*
X015144Y022510D01*
X015439Y022510D02*
X015487Y022461D01*
X015584Y022461D01*
X015632Y022510D01*
X015632Y022703D01*
X015584Y022752D01*
X015487Y022752D01*
X015439Y022703D01*
X016028Y022607D02*
X016028Y022558D01*
X016222Y022558D01*
X016222Y022510D02*
X016222Y022607D01*
X016173Y022655D01*
X016076Y022655D01*
X016028Y022607D01*
X016076Y022461D02*
X016173Y022461D01*
X016222Y022510D01*
X016323Y022655D02*
X016420Y022461D01*
X016516Y022655D01*
X016664Y022655D02*
X016664Y022461D01*
X016616Y022461D02*
X016713Y022461D01*
X016812Y022461D02*
X016861Y022510D01*
X016861Y022703D01*
X016909Y022655D02*
X016812Y022655D01*
X016713Y022655D02*
X016664Y022655D01*
X016664Y022752D02*
X016664Y022800D01*
X017010Y022607D02*
X017010Y022461D01*
X017155Y022461D01*
X017204Y022510D01*
X017155Y022558D01*
X017010Y022558D01*
X017010Y022607D02*
X017059Y022655D01*
X017155Y022655D01*
X017305Y022607D02*
X017305Y022558D01*
X017498Y022558D01*
X017498Y022510D02*
X017498Y022607D01*
X017450Y022655D01*
X017353Y022655D01*
X017305Y022607D01*
X017353Y022461D02*
X017450Y022461D01*
X017498Y022510D01*
X017599Y022655D02*
X017647Y022655D01*
X017744Y022558D01*
X017744Y022461D02*
X017744Y022655D01*
X017845Y022703D02*
X017893Y022752D01*
X017990Y022752D01*
X018039Y022703D01*
X018039Y022510D01*
X017990Y022461D01*
X017893Y022461D01*
X017845Y022510D01*
X014159Y022461D02*
X014159Y022655D01*
X014014Y022655D01*
X013966Y022607D01*
X013966Y022461D01*
X013864Y022461D02*
X013719Y022461D01*
X013671Y022510D01*
X013719Y022558D01*
X013816Y022558D01*
X013864Y022607D01*
X013816Y022655D01*
X013671Y022655D01*
X012686Y022703D02*
X012686Y022510D01*
X012638Y022461D01*
X012541Y022461D01*
X012492Y022510D01*
X012391Y022510D02*
X012343Y022461D01*
X012246Y022461D01*
X012198Y022510D01*
X012097Y022607D02*
X011903Y022607D01*
X011802Y022607D02*
X011657Y022607D01*
X011608Y022558D01*
X011608Y022510D01*
X011657Y022461D01*
X011802Y022461D01*
X011802Y022752D01*
X011657Y022752D01*
X011608Y022703D01*
X011608Y022655D01*
X011657Y022607D01*
X011507Y022703D02*
X011411Y022607D01*
X011411Y022461D01*
X011411Y022607D02*
X011314Y022703D01*
X011314Y022752D01*
X011213Y022607D02*
X011019Y022607D01*
X010918Y022655D02*
X010870Y022607D01*
X010773Y022607D01*
X010725Y022558D01*
X010725Y022510D01*
X010773Y022461D01*
X010870Y022461D01*
X010918Y022510D01*
X010918Y022655D02*
X010918Y022703D01*
X010870Y022752D01*
X010773Y022752D01*
X010725Y022703D01*
X010623Y022655D02*
X010623Y022461D01*
X010623Y022607D02*
X010430Y022607D01*
X010430Y022655D02*
X010430Y022461D01*
X010430Y022655D02*
X010527Y022752D01*
X010623Y022655D01*
X011507Y022703D02*
X011507Y022752D01*
X012198Y022703D02*
X012246Y022752D01*
X012343Y022752D01*
X012391Y022703D01*
X012391Y022510D01*
X012492Y022703D02*
X012541Y022752D01*
X012638Y022752D01*
X012686Y022703D01*
M02*
