G75*
G70*
%OFA0B0*%
%FSLAX24Y24*%
%IPPOS*%
%LPD*%
%AMOC8*
5,1,8,0,0,1.08239X$1,22.5*
%
%ADD10C,0.1182*%
%ADD11OC8,0.0710*%
%ADD12OC8,0.0740*%
%ADD13C,0.0680*%
%ADD14OC8,0.0780*%
%ADD15C,0.0780*%
%ADD16C,0.0600*%
%ADD17OC8,0.0600*%
%ADD18OC8,0.0680*%
D10*
X003101Y016851D03*
X003101Y023351D03*
X025101Y023351D03*
X025101Y018201D03*
D11*
X022601Y018601D03*
X021601Y018601D03*
X020601Y018601D03*
X019601Y018601D03*
X018601Y018601D03*
X017601Y018601D03*
X016601Y018601D03*
X015601Y018601D03*
X014601Y018601D03*
X013601Y018601D03*
X012601Y018601D03*
X011601Y018601D03*
X010601Y018601D03*
X009601Y018601D03*
X009601Y021601D03*
X010601Y021601D03*
X011601Y021601D03*
X012601Y021601D03*
X013601Y021601D03*
X014601Y021601D03*
X015601Y021601D03*
X016601Y021601D03*
X017601Y021601D03*
X018601Y021601D03*
X019601Y021601D03*
X020601Y021601D03*
X021601Y021601D03*
X022601Y021601D03*
D12*
X024601Y021601D03*
X025601Y021601D03*
X025601Y020601D03*
X024601Y020601D03*
X024601Y019601D03*
X025601Y019601D03*
X024601Y016601D03*
X023601Y016601D03*
X022601Y016601D03*
X014951Y016501D03*
X014951Y017501D03*
X008101Y021101D03*
X006101Y021101D03*
X004601Y019601D03*
X003601Y019601D03*
X003601Y018601D03*
X004601Y018601D03*
D13*
X005711Y017121D02*
X005711Y016521D01*
X007491Y016521D02*
X007491Y017121D01*
X007491Y019081D02*
X007491Y019681D01*
X005711Y019681D02*
X005711Y019081D01*
X005601Y022801D02*
X005601Y023401D01*
X006601Y023401D02*
X006601Y022801D01*
X007601Y022801D02*
X007601Y023401D01*
D14*
X009601Y023601D03*
X010601Y023601D03*
X011601Y023601D03*
X012601Y023601D03*
X013601Y023601D03*
X014601Y023601D03*
X015601Y023601D03*
X016601Y023601D03*
X017601Y023601D03*
X018601Y023601D03*
X019601Y023601D03*
X020601Y023601D03*
X021601Y023601D03*
X022601Y023601D03*
X013601Y016601D03*
X012601Y016601D03*
X011601Y016601D03*
X010601Y016601D03*
X009601Y016601D03*
X008601Y016601D03*
X004201Y021451D03*
D15*
X003201Y021451D03*
D16*
X017901Y017101D03*
X019801Y017101D03*
D17*
X021601Y017601D03*
X021601Y016601D03*
X016101Y016601D03*
X016101Y017601D03*
D18*
X001601Y017601D03*
X001601Y018601D03*
X001601Y019601D03*
X001601Y020601D03*
X001601Y021601D03*
X001601Y022601D03*
M02*
