G75*
G70*
%OFA0B0*%
%FSLAX24Y24*%
%IPPOS*%
%LPD*%
%AMOC8*
5,1,8,0,0,1.08239X$1,22.5*
%
%ADD10C,0.0000*%
%ADD11C,0.0160*%
%ADD12OC8,0.0630*%
%ADD13OC8,0.0660*%
%ADD14C,0.0600*%
%ADD15OC8,0.0700*%
%ADD16C,0.0700*%
%ADD17C,0.0520*%
%ADD18OC8,0.0520*%
%ADD19OC8,0.0600*%
%ADD20C,0.0100*%
D10*
X000101Y000101D02*
X000101Y031597D01*
X039471Y031597D01*
X039471Y000101D01*
X000101Y000101D01*
X002550Y016851D02*
X002552Y016898D01*
X002558Y016944D01*
X002568Y016990D01*
X002581Y017035D01*
X002599Y017078D01*
X002620Y017120D01*
X002644Y017160D01*
X002672Y017197D01*
X002703Y017232D01*
X002737Y017265D01*
X002773Y017294D01*
X002812Y017320D01*
X002853Y017343D01*
X002896Y017362D01*
X002940Y017378D01*
X002985Y017390D01*
X003031Y017398D01*
X003078Y017402D01*
X003124Y017402D01*
X003171Y017398D01*
X003217Y017390D01*
X003262Y017378D01*
X003306Y017362D01*
X003349Y017343D01*
X003390Y017320D01*
X003429Y017294D01*
X003465Y017265D01*
X003499Y017232D01*
X003530Y017197D01*
X003558Y017160D01*
X003582Y017120D01*
X003603Y017078D01*
X003621Y017035D01*
X003634Y016990D01*
X003644Y016944D01*
X003650Y016898D01*
X003652Y016851D01*
X003650Y016804D01*
X003644Y016758D01*
X003634Y016712D01*
X003621Y016667D01*
X003603Y016624D01*
X003582Y016582D01*
X003558Y016542D01*
X003530Y016505D01*
X003499Y016470D01*
X003465Y016437D01*
X003429Y016408D01*
X003390Y016382D01*
X003349Y016359D01*
X003306Y016340D01*
X003262Y016324D01*
X003217Y016312D01*
X003171Y016304D01*
X003124Y016300D01*
X003078Y016300D01*
X003031Y016304D01*
X002985Y016312D01*
X002940Y016324D01*
X002896Y016340D01*
X002853Y016359D01*
X002812Y016382D01*
X002773Y016408D01*
X002737Y016437D01*
X002703Y016470D01*
X002672Y016505D01*
X002644Y016542D01*
X002620Y016582D01*
X002599Y016624D01*
X002581Y016667D01*
X002568Y016712D01*
X002558Y016758D01*
X002552Y016804D01*
X002550Y016851D01*
X002550Y023351D02*
X002552Y023398D01*
X002558Y023444D01*
X002568Y023490D01*
X002581Y023535D01*
X002599Y023578D01*
X002620Y023620D01*
X002644Y023660D01*
X002672Y023697D01*
X002703Y023732D01*
X002737Y023765D01*
X002773Y023794D01*
X002812Y023820D01*
X002853Y023843D01*
X002896Y023862D01*
X002940Y023878D01*
X002985Y023890D01*
X003031Y023898D01*
X003078Y023902D01*
X003124Y023902D01*
X003171Y023898D01*
X003217Y023890D01*
X003262Y023878D01*
X003306Y023862D01*
X003349Y023843D01*
X003390Y023820D01*
X003429Y023794D01*
X003465Y023765D01*
X003499Y023732D01*
X003530Y023697D01*
X003558Y023660D01*
X003582Y023620D01*
X003603Y023578D01*
X003621Y023535D01*
X003634Y023490D01*
X003644Y023444D01*
X003650Y023398D01*
X003652Y023351D01*
X003650Y023304D01*
X003644Y023258D01*
X003634Y023212D01*
X003621Y023167D01*
X003603Y023124D01*
X003582Y023082D01*
X003558Y023042D01*
X003530Y023005D01*
X003499Y022970D01*
X003465Y022937D01*
X003429Y022908D01*
X003390Y022882D01*
X003349Y022859D01*
X003306Y022840D01*
X003262Y022824D01*
X003217Y022812D01*
X003171Y022804D01*
X003124Y022800D01*
X003078Y022800D01*
X003031Y022804D01*
X002985Y022812D01*
X002940Y022824D01*
X002896Y022840D01*
X002853Y022859D01*
X002812Y022882D01*
X002773Y022908D01*
X002737Y022937D01*
X002703Y022970D01*
X002672Y023005D01*
X002644Y023042D01*
X002620Y023082D01*
X002599Y023124D01*
X002581Y023167D01*
X002568Y023212D01*
X002558Y023258D01*
X002552Y023304D01*
X002550Y023351D01*
X024550Y023351D02*
X024552Y023398D01*
X024558Y023444D01*
X024568Y023490D01*
X024581Y023535D01*
X024599Y023578D01*
X024620Y023620D01*
X024644Y023660D01*
X024672Y023697D01*
X024703Y023732D01*
X024737Y023765D01*
X024773Y023794D01*
X024812Y023820D01*
X024853Y023843D01*
X024896Y023862D01*
X024940Y023878D01*
X024985Y023890D01*
X025031Y023898D01*
X025078Y023902D01*
X025124Y023902D01*
X025171Y023898D01*
X025217Y023890D01*
X025262Y023878D01*
X025306Y023862D01*
X025349Y023843D01*
X025390Y023820D01*
X025429Y023794D01*
X025465Y023765D01*
X025499Y023732D01*
X025530Y023697D01*
X025558Y023660D01*
X025582Y023620D01*
X025603Y023578D01*
X025621Y023535D01*
X025634Y023490D01*
X025644Y023444D01*
X025650Y023398D01*
X025652Y023351D01*
X025650Y023304D01*
X025644Y023258D01*
X025634Y023212D01*
X025621Y023167D01*
X025603Y023124D01*
X025582Y023082D01*
X025558Y023042D01*
X025530Y023005D01*
X025499Y022970D01*
X025465Y022937D01*
X025429Y022908D01*
X025390Y022882D01*
X025349Y022859D01*
X025306Y022840D01*
X025262Y022824D01*
X025217Y022812D01*
X025171Y022804D01*
X025124Y022800D01*
X025078Y022800D01*
X025031Y022804D01*
X024985Y022812D01*
X024940Y022824D01*
X024896Y022840D01*
X024853Y022859D01*
X024812Y022882D01*
X024773Y022908D01*
X024737Y022937D01*
X024703Y022970D01*
X024672Y023005D01*
X024644Y023042D01*
X024620Y023082D01*
X024599Y023124D01*
X024581Y023167D01*
X024568Y023212D01*
X024558Y023258D01*
X024552Y023304D01*
X024550Y023351D01*
X024550Y018201D02*
X024552Y018248D01*
X024558Y018294D01*
X024568Y018340D01*
X024581Y018385D01*
X024599Y018428D01*
X024620Y018470D01*
X024644Y018510D01*
X024672Y018547D01*
X024703Y018582D01*
X024737Y018615D01*
X024773Y018644D01*
X024812Y018670D01*
X024853Y018693D01*
X024896Y018712D01*
X024940Y018728D01*
X024985Y018740D01*
X025031Y018748D01*
X025078Y018752D01*
X025124Y018752D01*
X025171Y018748D01*
X025217Y018740D01*
X025262Y018728D01*
X025306Y018712D01*
X025349Y018693D01*
X025390Y018670D01*
X025429Y018644D01*
X025465Y018615D01*
X025499Y018582D01*
X025530Y018547D01*
X025558Y018510D01*
X025582Y018470D01*
X025603Y018428D01*
X025621Y018385D01*
X025634Y018340D01*
X025644Y018294D01*
X025650Y018248D01*
X025652Y018201D01*
X025650Y018154D01*
X025644Y018108D01*
X025634Y018062D01*
X025621Y018017D01*
X025603Y017974D01*
X025582Y017932D01*
X025558Y017892D01*
X025530Y017855D01*
X025499Y017820D01*
X025465Y017787D01*
X025429Y017758D01*
X025390Y017732D01*
X025349Y017709D01*
X025306Y017690D01*
X025262Y017674D01*
X025217Y017662D01*
X025171Y017654D01*
X025124Y017650D01*
X025078Y017650D01*
X025031Y017654D01*
X024985Y017662D01*
X024940Y017674D01*
X024896Y017690D01*
X024853Y017709D01*
X024812Y017732D01*
X024773Y017758D01*
X024737Y017787D01*
X024703Y017820D01*
X024672Y017855D01*
X024644Y017892D01*
X024620Y017932D01*
X024599Y017974D01*
X024581Y018017D01*
X024568Y018062D01*
X024558Y018108D01*
X024552Y018154D01*
X024550Y018201D01*
D11*
X023801Y018901D02*
X023101Y019601D01*
X022001Y019601D01*
X021601Y019201D01*
X021601Y018601D01*
X021101Y018101D02*
X022101Y018101D01*
X023601Y016601D01*
X023801Y017401D02*
X023801Y018901D01*
X024601Y019601D02*
X024601Y020601D01*
X024601Y021601D01*
X024601Y020601D02*
X017101Y020601D01*
X017601Y021101D01*
X017601Y021601D01*
X018601Y021601D02*
X018601Y022101D01*
X017601Y023101D01*
X017601Y023601D01*
X018601Y023601D02*
X018601Y023101D01*
X019601Y022101D01*
X019601Y021601D01*
X020601Y021601D02*
X020601Y022101D01*
X019601Y023101D01*
X019601Y023601D01*
X020601Y023601D02*
X020601Y023101D01*
X021601Y022101D01*
X021601Y021601D01*
X022601Y021601D02*
X022601Y022101D01*
X021601Y023101D01*
X021601Y023601D01*
X025977Y024401D02*
X026016Y024399D01*
X026055Y024394D01*
X026093Y024385D01*
X026130Y024372D01*
X026166Y024357D01*
X026200Y024337D01*
X026233Y024315D01*
X026263Y024290D01*
X026290Y024263D01*
X026315Y024233D01*
X026337Y024200D01*
X026357Y024166D01*
X026372Y024130D01*
X026385Y024093D01*
X026394Y024055D01*
X026399Y024016D01*
X026401Y023977D01*
X026401Y016225D01*
X026399Y016186D01*
X026394Y016147D01*
X026385Y016109D01*
X026372Y016072D01*
X026357Y016036D01*
X026337Y016002D01*
X026315Y015969D01*
X026290Y015939D01*
X026263Y015912D01*
X026233Y015887D01*
X026200Y015865D01*
X026166Y015845D01*
X026130Y015830D01*
X026093Y015817D01*
X026055Y015808D01*
X026016Y015803D01*
X025977Y015801D01*
X001225Y015801D01*
X001186Y015803D01*
X001147Y015808D01*
X001109Y015817D01*
X001072Y015830D01*
X001036Y015845D01*
X001002Y015865D01*
X000969Y015887D01*
X000939Y015912D01*
X000912Y015939D01*
X000887Y015969D01*
X000865Y016002D01*
X000845Y016036D01*
X000830Y016072D01*
X000817Y016109D01*
X000808Y016147D01*
X000803Y016186D01*
X000801Y016225D01*
X000801Y023977D01*
X000803Y024016D01*
X000808Y024055D01*
X000817Y024093D01*
X000830Y024130D01*
X000845Y024166D01*
X000865Y024200D01*
X000887Y024233D01*
X000912Y024263D01*
X000939Y024290D01*
X000969Y024315D01*
X001002Y024337D01*
X001036Y024357D01*
X001072Y024372D01*
X001109Y024385D01*
X001147Y024394D01*
X001186Y024399D01*
X001225Y024401D01*
X025977Y024401D01*
X020601Y018601D02*
X021101Y018101D01*
X021101Y017101D02*
X022101Y017101D01*
X022601Y016601D01*
X023801Y017401D02*
X024601Y016601D01*
X021101Y017101D02*
X019601Y018601D01*
X017601Y018601D02*
X017601Y017901D01*
X017301Y017601D01*
X017401Y017601D01*
X017901Y017101D01*
X017301Y017601D02*
X016101Y017601D01*
X015601Y018601D02*
X015601Y020601D01*
X017101Y020601D01*
X016601Y021601D02*
X016601Y023601D01*
X014601Y023601D02*
X014601Y021601D01*
X013601Y021601D02*
X013601Y023601D01*
X012601Y023601D02*
X012601Y021601D01*
X011601Y021601D02*
X011601Y023601D01*
X010601Y023601D02*
X010601Y021601D01*
X009601Y021601D02*
X009601Y023601D01*
X007601Y023101D02*
X007601Y022601D01*
X007601Y022501D01*
X009501Y020601D01*
X015601Y020601D01*
X015601Y018601D02*
X014951Y017951D01*
X014951Y017501D01*
X014601Y018101D02*
X013601Y017101D01*
X013601Y016601D01*
X012601Y016601D02*
X012601Y017101D01*
X013601Y018101D01*
X013601Y018601D01*
X014601Y018601D02*
X014601Y018101D01*
X012601Y018101D02*
X011601Y017101D01*
X011601Y016601D01*
X012601Y018101D02*
X012601Y018601D01*
X009601Y018601D02*
X009601Y018101D01*
X008601Y017101D01*
X008601Y016601D01*
X007491Y016821D02*
X007491Y019381D01*
X007491Y020491D01*
X008101Y021101D01*
X009601Y019601D01*
X009601Y018601D01*
X006101Y021101D02*
X007601Y022601D01*
X006601Y022501D02*
X006601Y023101D01*
X006601Y022501D02*
X004951Y020851D01*
X005711Y020091D01*
X005711Y019381D01*
X005711Y016821D01*
X004601Y018601D02*
X003901Y017901D01*
X003201Y017901D01*
X002501Y018601D01*
X001601Y018601D01*
X001901Y017901D02*
X003201Y017901D01*
X003601Y018601D02*
X002601Y019601D01*
X002701Y019601D01*
X003201Y020101D01*
X003201Y021451D01*
X004851Y023101D01*
X005601Y023101D01*
X004201Y021451D02*
X004601Y021051D01*
X004601Y020501D01*
X004951Y020851D01*
X004601Y020501D02*
X004601Y019601D01*
X004601Y018601D01*
X003601Y019601D02*
X003201Y020001D01*
X003201Y020101D01*
X002601Y019601D02*
X001601Y019601D01*
X001901Y017901D02*
X001601Y017601D01*
D12*
X009601Y018601D03*
X010601Y018601D03*
X011601Y018601D03*
X012601Y018601D03*
X013601Y018601D03*
X014601Y018601D03*
X015601Y018601D03*
X016601Y018601D03*
X017601Y018601D03*
X018601Y018601D03*
X019601Y018601D03*
X020601Y018601D03*
X021601Y018601D03*
X022601Y018601D03*
X022601Y021601D03*
X021601Y021601D03*
X020601Y021601D03*
X019601Y021601D03*
X018601Y021601D03*
X017601Y021601D03*
X016601Y021601D03*
X015601Y021601D03*
X014601Y021601D03*
X013601Y021601D03*
X012601Y021601D03*
X011601Y021601D03*
X010601Y021601D03*
X009601Y021601D03*
D13*
X008101Y021101D03*
X006101Y021101D03*
X004601Y019601D03*
X003601Y019601D03*
X003601Y018601D03*
X004601Y018601D03*
X014951Y017501D03*
X014951Y016501D03*
X022601Y016601D03*
X023601Y016601D03*
X024601Y016601D03*
X024601Y019601D03*
X025601Y019601D03*
X025601Y020601D03*
X024601Y020601D03*
X024601Y021601D03*
X025601Y021601D03*
D14*
X007601Y022801D02*
X007601Y023401D01*
X006601Y023401D02*
X006601Y022801D01*
X005601Y022801D02*
X005601Y023401D01*
X005711Y019681D02*
X005711Y019081D01*
X007491Y019081D02*
X007491Y019681D01*
X007491Y017121D02*
X007491Y016521D01*
X005711Y016521D02*
X005711Y017121D01*
D15*
X008601Y016601D03*
X009601Y016601D03*
X010601Y016601D03*
X011601Y016601D03*
X012601Y016601D03*
X013601Y016601D03*
X013601Y023601D03*
X014601Y023601D03*
X015601Y023601D03*
X016601Y023601D03*
X017601Y023601D03*
X018601Y023601D03*
X019601Y023601D03*
X020601Y023601D03*
X021601Y023601D03*
X022601Y023601D03*
X012601Y023601D03*
X011601Y023601D03*
X010601Y023601D03*
X009601Y023601D03*
X004201Y021451D03*
D16*
X003201Y021451D03*
D17*
X017901Y017101D03*
X019801Y017101D03*
D18*
X021601Y017601D03*
X021601Y016601D03*
X016101Y016601D03*
X016101Y017601D03*
D19*
X001601Y017601D03*
X001601Y018601D03*
X001601Y019601D03*
X001601Y020601D03*
X001601Y021601D03*
X001601Y022601D03*
D20*
X001960Y022963D02*
X002178Y022963D01*
X002137Y023061D02*
X001861Y023061D01*
X001812Y023111D02*
X001390Y023111D01*
X001331Y023052D01*
X001331Y023871D01*
X002233Y023871D01*
X002100Y023550D01*
X002100Y023152D01*
X002252Y022784D01*
X002534Y022502D01*
X002902Y022350D01*
X003300Y022350D01*
X003668Y022502D01*
X003950Y022784D01*
X004102Y023152D01*
X004102Y023550D01*
X003969Y023871D01*
X005403Y023871D01*
X005312Y023833D01*
X005168Y023690D01*
X005091Y023502D01*
X005091Y023391D01*
X004908Y023391D01*
X004793Y023391D01*
X004686Y023347D01*
X003339Y021999D01*
X003312Y022011D01*
X003089Y022011D01*
X002884Y021926D01*
X002726Y021768D01*
X002641Y021562D01*
X002641Y021339D01*
X002726Y021134D01*
X002884Y020976D01*
X002911Y020965D01*
X002911Y020221D01*
X002581Y019891D01*
X002543Y019891D01*
X002032Y019891D01*
X001822Y020101D01*
X002111Y020390D01*
X002111Y020812D01*
X001822Y021101D01*
X002111Y021390D01*
X002111Y021812D01*
X001822Y022101D01*
X002111Y022390D01*
X002111Y022812D01*
X001812Y023111D01*
X002100Y023160D02*
X001331Y023160D01*
X001331Y023258D02*
X002100Y023258D01*
X002100Y023357D02*
X001331Y023357D01*
X001331Y023456D02*
X002100Y023456D01*
X002101Y023554D02*
X001331Y023554D01*
X001331Y023653D02*
X002142Y023653D01*
X002183Y023751D02*
X001331Y023751D01*
X001331Y023850D02*
X002224Y023850D01*
X002219Y022864D02*
X002058Y022864D01*
X002111Y022766D02*
X002270Y022766D01*
X002368Y022667D02*
X002111Y022667D01*
X002111Y022569D02*
X002467Y022569D01*
X002611Y022470D02*
X002111Y022470D01*
X002093Y022372D02*
X002849Y022372D01*
X003009Y021977D02*
X001945Y021977D01*
X002044Y021879D02*
X002837Y021879D01*
X002738Y021780D02*
X002111Y021780D01*
X002111Y021682D02*
X002690Y021682D01*
X002650Y021583D02*
X002111Y021583D01*
X002111Y021485D02*
X002641Y021485D01*
X002641Y021386D02*
X002107Y021386D01*
X002009Y021288D02*
X002662Y021288D01*
X002703Y021189D02*
X001910Y021189D01*
X001832Y021091D02*
X002769Y021091D01*
X002868Y020992D02*
X001931Y020992D01*
X002029Y020893D02*
X002911Y020893D01*
X002911Y020795D02*
X002111Y020795D01*
X002111Y020696D02*
X002911Y020696D01*
X002911Y020598D02*
X002111Y020598D01*
X002111Y020499D02*
X002911Y020499D01*
X002911Y020401D02*
X002111Y020401D01*
X002023Y020302D02*
X002911Y020302D01*
X002894Y020204D02*
X001925Y020204D01*
X001826Y020105D02*
X002795Y020105D01*
X002696Y020007D02*
X001916Y020007D01*
X002015Y019908D02*
X002598Y019908D01*
X002481Y019311D02*
X002032Y019311D01*
X001812Y019091D01*
X001390Y019091D01*
X001331Y019150D01*
X001331Y018967D01*
X001414Y019051D01*
X001551Y019051D01*
X001551Y018651D01*
X001651Y018651D01*
X001651Y019051D01*
X001787Y019051D01*
X002051Y018787D01*
X002051Y018651D01*
X001651Y018651D01*
X001651Y018551D01*
X002051Y018551D01*
X002051Y018414D01*
X001787Y018151D01*
X001651Y018151D01*
X001651Y018551D01*
X001551Y018551D01*
X001551Y018151D01*
X001414Y018151D01*
X001331Y018234D01*
X001331Y017967D01*
X001414Y018051D01*
X001551Y018051D01*
X001551Y017651D01*
X001651Y017651D01*
X001651Y018051D01*
X001787Y018051D01*
X002051Y017787D01*
X002051Y017651D01*
X001651Y017651D01*
X001651Y017551D01*
X002051Y017551D01*
X002051Y017414D01*
X001787Y017151D01*
X001651Y017151D01*
X001651Y017551D01*
X001551Y017551D01*
X001551Y017151D01*
X001414Y017151D01*
X001331Y017234D01*
X001331Y016331D01*
X002233Y016331D01*
X002100Y016652D01*
X002100Y017050D01*
X001331Y017050D01*
X001331Y016952D02*
X002100Y016952D01*
X002100Y017050D02*
X002252Y017418D01*
X002534Y017700D01*
X002902Y017852D01*
X003300Y017852D01*
X003668Y017700D01*
X003950Y017418D01*
X004102Y017050D01*
X004102Y016652D01*
X003969Y016331D01*
X005303Y016331D01*
X005294Y016348D01*
X005272Y016415D01*
X005261Y016485D01*
X005261Y016771D01*
X005661Y016771D01*
X005661Y016871D01*
X005661Y017568D01*
X005605Y017560D01*
X005538Y017538D01*
X005475Y017506D01*
X005418Y017464D01*
X005368Y017414D01*
X005326Y017357D01*
X005294Y017294D01*
X005272Y017226D01*
X005261Y017156D01*
X005261Y016871D01*
X005661Y016871D01*
X005761Y016871D01*
X005761Y017568D01*
X005816Y017560D01*
X005884Y017538D01*
X005947Y017506D01*
X006004Y017464D01*
X006054Y017414D01*
X006096Y017357D01*
X006128Y017294D01*
X006150Y017226D01*
X006161Y017156D01*
X006161Y016871D01*
X005761Y016871D01*
X005761Y016771D01*
X006161Y016771D01*
X006161Y016485D01*
X006150Y016415D01*
X006128Y016348D01*
X006119Y016331D01*
X007017Y016331D01*
X006981Y016419D01*
X006981Y017222D01*
X007058Y017410D01*
X007201Y017552D01*
X007201Y018650D01*
X007058Y018792D01*
X006981Y018979D01*
X006981Y019782D01*
X007058Y019970D01*
X007201Y020112D01*
X007201Y020433D01*
X007201Y020548D01*
X007245Y020655D01*
X007561Y020971D01*
X007561Y021324D01*
X007877Y021641D01*
X008051Y021641D01*
X007551Y022141D01*
X006641Y021231D01*
X006641Y020877D01*
X006324Y020561D01*
X005877Y020561D01*
X005561Y020877D01*
X005561Y021324D01*
X005877Y021641D01*
X006231Y021641D01*
X007149Y022559D01*
X007091Y022699D01*
X007091Y023502D01*
X007168Y023690D01*
X007312Y023833D01*
X007403Y023871D01*
X005799Y023871D01*
X005890Y023833D01*
X006033Y023690D01*
X006111Y023502D01*
X006111Y022699D01*
X006033Y022512D01*
X005890Y022368D01*
X005702Y022291D01*
X005499Y022291D01*
X005312Y022368D01*
X005168Y022512D01*
X005091Y022699D01*
X005091Y022811D01*
X004971Y022811D01*
X004111Y021951D01*
X004171Y021951D01*
X004171Y021481D01*
X004231Y021481D01*
X004231Y021951D01*
X004408Y021951D01*
X004701Y021658D01*
X004701Y021481D01*
X004231Y021481D01*
X004231Y021421D01*
X004701Y021421D01*
X004701Y021244D01*
X004408Y020951D01*
X004231Y020951D01*
X004231Y021421D01*
X004171Y021421D01*
X004171Y020951D01*
X003994Y020951D01*
X003715Y021229D01*
X003676Y021134D01*
X003518Y020976D01*
X003491Y020965D01*
X003491Y020158D01*
X003491Y020141D01*
X003824Y020141D01*
X004141Y019824D01*
X004141Y019819D01*
X004402Y020081D01*
X004551Y020081D01*
X004551Y019651D01*
X004651Y019651D01*
X004651Y020081D01*
X004800Y020081D01*
X005081Y019800D01*
X005081Y019651D01*
X004651Y019651D01*
X004651Y019551D01*
X005081Y019551D01*
X005081Y019402D01*
X004800Y019121D01*
X004651Y019121D01*
X004651Y019551D01*
X004551Y019551D01*
X004551Y019121D01*
X004402Y019121D01*
X004141Y019382D01*
X004141Y019377D01*
X003864Y019101D01*
X004141Y018824D01*
X004145Y018824D01*
X004141Y018824D02*
X004141Y018819D01*
X004402Y019081D01*
X004551Y019081D01*
X004551Y018651D01*
X004651Y018651D01*
X004651Y019081D01*
X004800Y019081D01*
X005081Y018800D01*
X005081Y018651D01*
X004651Y018651D01*
X004651Y018551D01*
X005081Y018551D01*
X005081Y018402D01*
X004800Y018121D01*
X004651Y018121D01*
X004651Y018551D01*
X004551Y018551D01*
X004551Y018121D01*
X004402Y018121D01*
X004141Y018382D01*
X004141Y018377D01*
X003824Y018061D01*
X003377Y018061D01*
X003061Y018377D01*
X003061Y018731D01*
X002481Y019311D01*
X002573Y019218D02*
X001939Y019218D01*
X001841Y019120D02*
X002672Y019120D01*
X002770Y019021D02*
X001817Y019021D01*
X001915Y018923D02*
X002869Y018923D01*
X002967Y018824D02*
X002014Y018824D01*
X002051Y018725D02*
X003061Y018725D01*
X003061Y018627D02*
X001651Y018627D01*
X001651Y018725D02*
X001551Y018725D01*
X001551Y018824D02*
X001651Y018824D01*
X001651Y018923D02*
X001551Y018923D01*
X001551Y019021D02*
X001651Y019021D01*
X001385Y019021D02*
X001331Y019021D01*
X001331Y019120D02*
X001361Y019120D01*
X001551Y018528D02*
X001651Y018528D01*
X001651Y018430D02*
X001551Y018430D01*
X001551Y018331D02*
X001651Y018331D01*
X001651Y018233D02*
X001551Y018233D01*
X001551Y018036D02*
X001651Y018036D01*
X001651Y017937D02*
X001551Y017937D01*
X001551Y017839D02*
X001651Y017839D01*
X001651Y017740D02*
X001551Y017740D01*
X001651Y017641D02*
X002476Y017641D01*
X002377Y017543D02*
X002051Y017543D01*
X002051Y017444D02*
X002279Y017444D01*
X002222Y017346D02*
X001982Y017346D01*
X001884Y017247D02*
X002181Y017247D01*
X002141Y017149D02*
X001331Y017149D01*
X001551Y017247D02*
X001651Y017247D01*
X001651Y017346D02*
X001551Y017346D01*
X001551Y017444D02*
X001651Y017444D01*
X001651Y017543D02*
X001551Y017543D01*
X001399Y018036D02*
X001331Y018036D01*
X001331Y018134D02*
X003304Y018134D01*
X003205Y018233D02*
X001869Y018233D01*
X001968Y018331D02*
X003107Y018331D01*
X003061Y018430D02*
X002051Y018430D01*
X002051Y018528D02*
X003061Y018528D01*
X002869Y017839D02*
X001999Y017839D01*
X002051Y017740D02*
X002631Y017740D01*
X003332Y017839D02*
X007201Y017839D01*
X007201Y017937D02*
X001901Y017937D01*
X001802Y018036D02*
X007201Y018036D01*
X007201Y018134D02*
X004813Y018134D01*
X004912Y018233D02*
X007201Y018233D01*
X007201Y018331D02*
X005010Y018331D01*
X005081Y018430D02*
X007201Y018430D01*
X007201Y018528D02*
X005081Y018528D01*
X005081Y018725D02*
X005434Y018725D01*
X005418Y018738D02*
X005475Y018696D01*
X005538Y018664D01*
X005605Y018642D01*
X005661Y018633D01*
X005661Y019331D01*
X005761Y019331D01*
X005761Y019431D01*
X006161Y019431D01*
X006161Y019716D01*
X006150Y019786D01*
X006128Y019854D01*
X006096Y019917D01*
X006054Y019974D01*
X006004Y020024D01*
X005947Y020066D01*
X005884Y020098D01*
X005816Y020120D01*
X005761Y020128D01*
X005761Y019431D01*
X005661Y019431D01*
X005661Y020128D01*
X005605Y020120D01*
X005538Y020098D01*
X005475Y020066D01*
X005418Y020024D01*
X005368Y019974D01*
X005326Y019917D01*
X005294Y019854D01*
X005272Y019786D01*
X005261Y019716D01*
X005261Y019431D01*
X005661Y019431D01*
X005661Y019331D01*
X005261Y019331D01*
X005261Y019045D01*
X005272Y018975D01*
X005294Y018908D01*
X005326Y018845D01*
X005368Y018788D01*
X005418Y018738D01*
X005341Y018824D02*
X005056Y018824D01*
X004958Y018923D02*
X005289Y018923D01*
X005265Y019021D02*
X004859Y019021D01*
X004897Y019218D02*
X005261Y019218D01*
X005261Y019120D02*
X003883Y019120D01*
X003944Y019021D02*
X004342Y019021D01*
X004244Y018923D02*
X004043Y018923D01*
X003982Y019218D02*
X004305Y019218D01*
X004206Y019317D02*
X004080Y019317D01*
X004551Y019317D02*
X004651Y019317D01*
X004651Y019415D02*
X004551Y019415D01*
X004551Y019514D02*
X004651Y019514D01*
X004651Y019612D02*
X005261Y019612D01*
X005261Y019514D02*
X005081Y019514D01*
X005081Y019415D02*
X005661Y019415D01*
X005661Y019317D02*
X005761Y019317D01*
X005761Y019331D02*
X005761Y018633D01*
X005816Y018642D01*
X005884Y018664D01*
X005947Y018696D01*
X006004Y018738D01*
X006054Y018788D01*
X006096Y018845D01*
X006128Y018908D01*
X006150Y018975D01*
X006161Y019045D01*
X006161Y019331D01*
X005761Y019331D01*
X005761Y019415D02*
X006981Y019415D01*
X006981Y019317D02*
X006161Y019317D01*
X006161Y019218D02*
X006981Y019218D01*
X006981Y019120D02*
X006161Y019120D01*
X006157Y019021D02*
X006981Y019021D01*
X007004Y018923D02*
X006132Y018923D01*
X006080Y018824D02*
X007045Y018824D01*
X007125Y018725D02*
X005987Y018725D01*
X005761Y018725D02*
X005661Y018725D01*
X005661Y018824D02*
X005761Y018824D01*
X005761Y018923D02*
X005661Y018923D01*
X005661Y019021D02*
X005761Y019021D01*
X005761Y019120D02*
X005661Y019120D01*
X005661Y019218D02*
X005761Y019218D01*
X005761Y019514D02*
X005661Y019514D01*
X005661Y019612D02*
X005761Y019612D01*
X005761Y019711D02*
X005661Y019711D01*
X005661Y019809D02*
X005761Y019809D01*
X005761Y019908D02*
X005661Y019908D01*
X005661Y020007D02*
X005761Y020007D01*
X005761Y020105D02*
X005661Y020105D01*
X005560Y020105D02*
X003860Y020105D01*
X003959Y020007D02*
X004328Y020007D01*
X004229Y019908D02*
X004057Y019908D01*
X004551Y019908D02*
X004651Y019908D01*
X004651Y019809D02*
X004551Y019809D01*
X004551Y019711D02*
X004651Y019711D01*
X004651Y020007D02*
X004551Y020007D01*
X004874Y020007D02*
X005400Y020007D01*
X005322Y019908D02*
X004972Y019908D01*
X005071Y019809D02*
X005279Y019809D01*
X005261Y019711D02*
X005081Y019711D01*
X004996Y019317D02*
X005261Y019317D01*
X004651Y019218D02*
X004551Y019218D01*
X004551Y019021D02*
X004651Y019021D01*
X004651Y018923D02*
X004551Y018923D01*
X004551Y018824D02*
X004651Y018824D01*
X004651Y018725D02*
X004551Y018725D01*
X004651Y018627D02*
X007201Y018627D01*
X007781Y018627D02*
X009076Y018627D01*
X009076Y018725D02*
X007857Y018725D01*
X007923Y018792D02*
X007781Y018650D01*
X007781Y017552D01*
X007923Y017410D01*
X008001Y017222D01*
X008001Y016419D01*
X007964Y016331D01*
X008079Y016331D01*
X008041Y016369D01*
X008041Y016833D01*
X008311Y017103D01*
X008311Y017158D01*
X008355Y017265D01*
X008436Y017347D01*
X009275Y018185D01*
X009076Y018383D01*
X009076Y018818D01*
X009311Y019053D01*
X009311Y019481D01*
X008231Y020561D01*
X007971Y020561D01*
X007781Y020371D01*
X007781Y020112D01*
X007923Y019970D01*
X008001Y019782D01*
X008001Y018979D01*
X007923Y018792D01*
X007936Y018824D02*
X009082Y018824D01*
X009180Y018923D02*
X007977Y018923D01*
X008001Y019021D02*
X009279Y019021D01*
X009311Y019120D02*
X008001Y019120D01*
X008001Y019218D02*
X009311Y019218D01*
X009311Y019317D02*
X008001Y019317D01*
X008001Y019415D02*
X009311Y019415D01*
X009278Y019514D02*
X008001Y019514D01*
X008001Y019612D02*
X009179Y019612D01*
X009081Y019711D02*
X008001Y019711D01*
X007989Y019809D02*
X008982Y019809D01*
X008883Y019908D02*
X007949Y019908D01*
X007886Y020007D02*
X008785Y020007D01*
X008686Y020105D02*
X007788Y020105D01*
X007781Y020204D02*
X008588Y020204D01*
X008489Y020302D02*
X007781Y020302D01*
X007811Y020401D02*
X008391Y020401D01*
X008292Y020499D02*
X007909Y020499D01*
X007483Y020893D02*
X006641Y020893D01*
X006641Y020992D02*
X007561Y020992D01*
X007561Y021091D02*
X006641Y021091D01*
X006641Y021189D02*
X007561Y021189D01*
X007561Y021288D02*
X006698Y021288D01*
X006796Y021386D02*
X007623Y021386D01*
X007721Y021485D02*
X006895Y021485D01*
X006993Y021583D02*
X007820Y021583D01*
X008010Y021682D02*
X007092Y021682D01*
X007190Y021780D02*
X007911Y021780D01*
X007813Y021879D02*
X007289Y021879D01*
X007387Y021977D02*
X007714Y021977D01*
X007615Y022076D02*
X007486Y022076D01*
X007060Y022470D02*
X006906Y022470D01*
X006894Y022458D02*
X006944Y022508D01*
X006986Y022565D01*
X007018Y022628D01*
X007040Y022695D01*
X007051Y022765D01*
X007051Y023051D01*
X006651Y023051D01*
X006651Y023151D01*
X007051Y023151D01*
X007051Y023436D01*
X007040Y023506D01*
X007018Y023574D01*
X006986Y023637D01*
X006944Y023694D01*
X006894Y023744D01*
X006837Y023786D01*
X006774Y023818D01*
X006706Y023840D01*
X006651Y023848D01*
X006651Y023151D01*
X006551Y023151D01*
X006551Y023848D01*
X006495Y023840D01*
X006428Y023818D01*
X006365Y023786D01*
X006308Y023744D01*
X006258Y023694D01*
X006216Y023637D01*
X006184Y023574D01*
X006162Y023506D01*
X006151Y023436D01*
X006151Y023151D01*
X006551Y023151D01*
X006551Y023051D01*
X006651Y023051D01*
X006651Y022353D01*
X006706Y022362D01*
X006774Y022384D01*
X006837Y022416D01*
X006894Y022458D01*
X006961Y022372D02*
X006736Y022372D01*
X006651Y022372D02*
X006551Y022372D01*
X006551Y022353D02*
X006551Y023051D01*
X006151Y023051D01*
X006151Y022765D01*
X006162Y022695D01*
X006184Y022628D01*
X006216Y022565D01*
X006258Y022508D01*
X006308Y022458D01*
X006365Y022416D01*
X006428Y022384D01*
X006495Y022362D01*
X006551Y022353D01*
X006465Y022372D02*
X005893Y022372D01*
X005991Y022470D02*
X006295Y022470D01*
X006214Y022569D02*
X006057Y022569D01*
X006097Y022667D02*
X006171Y022667D01*
X006151Y022766D02*
X006111Y022766D01*
X006111Y022864D02*
X006151Y022864D01*
X006151Y022963D02*
X006111Y022963D01*
X006111Y023061D02*
X006551Y023061D01*
X006551Y022963D02*
X006651Y022963D01*
X006651Y023061D02*
X007091Y023061D01*
X007091Y022963D02*
X007051Y022963D01*
X007051Y022864D02*
X007091Y022864D01*
X007091Y022766D02*
X007051Y022766D01*
X007031Y022667D02*
X007104Y022667D01*
X007145Y022569D02*
X006988Y022569D01*
X006863Y022273D02*
X004433Y022273D01*
X004335Y022174D02*
X006764Y022174D01*
X006666Y022076D02*
X004236Y022076D01*
X004137Y021977D02*
X006567Y021977D01*
X006469Y021879D02*
X004480Y021879D01*
X004578Y021780D02*
X006370Y021780D01*
X006272Y021682D02*
X004677Y021682D01*
X004701Y021583D02*
X005820Y021583D01*
X005721Y021485D02*
X004701Y021485D01*
X004701Y021386D02*
X005623Y021386D01*
X005561Y021288D02*
X004701Y021288D01*
X004646Y021189D02*
X005561Y021189D01*
X005561Y021091D02*
X004548Y021091D01*
X004449Y020992D02*
X005561Y020992D01*
X005561Y020893D02*
X003491Y020893D01*
X003491Y020795D02*
X005643Y020795D01*
X005742Y020696D02*
X003491Y020696D01*
X003491Y020598D02*
X005840Y020598D01*
X005861Y020105D02*
X007194Y020105D01*
X007201Y020204D02*
X003491Y020204D01*
X003491Y020302D02*
X007201Y020302D01*
X007201Y020401D02*
X003491Y020401D01*
X003491Y020499D02*
X007201Y020499D01*
X007221Y020598D02*
X006361Y020598D01*
X006460Y020696D02*
X007286Y020696D01*
X007385Y020795D02*
X006559Y020795D01*
X007095Y020007D02*
X006021Y020007D01*
X006100Y019908D02*
X007033Y019908D01*
X006992Y019809D02*
X006142Y019809D01*
X006161Y019711D02*
X006981Y019711D01*
X006981Y019612D02*
X006161Y019612D01*
X006161Y019514D02*
X006981Y019514D01*
X007781Y018528D02*
X009076Y018528D01*
X009076Y018430D02*
X007781Y018430D01*
X007781Y018331D02*
X009128Y018331D01*
X009226Y018233D02*
X007781Y018233D01*
X007781Y018134D02*
X009224Y018134D01*
X009126Y018036D02*
X007781Y018036D01*
X007781Y017937D02*
X009027Y017937D01*
X008929Y017839D02*
X007781Y017839D01*
X007781Y017740D02*
X008830Y017740D01*
X008731Y017641D02*
X007781Y017641D01*
X007790Y017543D02*
X008633Y017543D01*
X008534Y017444D02*
X007888Y017444D01*
X007950Y017346D02*
X008436Y017346D01*
X008348Y017247D02*
X007990Y017247D01*
X008001Y017149D02*
X008311Y017149D01*
X008258Y017050D02*
X008001Y017050D01*
X008001Y016952D02*
X008160Y016952D01*
X008061Y016853D02*
X008001Y016853D01*
X008001Y016755D02*
X008041Y016755D01*
X008041Y016656D02*
X008001Y016656D01*
X008001Y016558D02*
X008041Y016558D01*
X008041Y016459D02*
X008001Y016459D01*
X007976Y016360D02*
X008049Y016360D01*
X008952Y017042D02*
X009847Y017936D01*
X009891Y018043D01*
X009891Y018148D01*
X010101Y018358D01*
X010383Y018076D01*
X010818Y018076D01*
X011101Y018358D01*
X011383Y018076D01*
X011818Y018076D01*
X012101Y018358D01*
X012275Y018185D01*
X011437Y017347D01*
X011436Y017347D01*
X011355Y017265D01*
X011311Y017158D01*
X011311Y017103D01*
X011101Y016893D01*
X010833Y017161D01*
X010369Y017161D01*
X010101Y016893D01*
X009833Y017161D01*
X009369Y017161D01*
X009101Y016893D01*
X008952Y017042D01*
X008960Y017050D02*
X009258Y017050D01*
X009160Y016952D02*
X009042Y016952D01*
X009059Y017149D02*
X009357Y017149D01*
X009256Y017346D02*
X011436Y017346D01*
X011348Y017247D02*
X009157Y017247D01*
X009354Y017444D02*
X011534Y017444D01*
X011633Y017543D02*
X009453Y017543D01*
X009552Y017641D02*
X011731Y017641D01*
X011830Y017740D02*
X009650Y017740D01*
X009749Y017839D02*
X011929Y017839D01*
X012027Y017937D02*
X009847Y017937D01*
X009888Y018036D02*
X012126Y018036D01*
X012224Y018134D02*
X011877Y018134D01*
X011975Y018233D02*
X012226Y018233D01*
X012128Y018331D02*
X012074Y018331D01*
X012101Y018843D02*
X011818Y019126D01*
X011383Y019126D01*
X011101Y018843D01*
X010818Y019126D01*
X010383Y019126D01*
X010101Y018843D01*
X009891Y019053D01*
X009891Y019658D01*
X009847Y019765D01*
X009765Y019847D01*
X008641Y020971D01*
X008641Y021051D01*
X009336Y020355D01*
X009443Y020311D01*
X009558Y020311D01*
X015311Y020311D01*
X015311Y019053D01*
X015101Y018843D01*
X014818Y019126D01*
X014383Y019126D01*
X014101Y018843D01*
X013818Y019126D01*
X013383Y019126D01*
X013101Y018843D01*
X012818Y019126D01*
X012383Y019126D01*
X012101Y018843D01*
X012180Y018923D02*
X012021Y018923D01*
X011923Y019021D02*
X012279Y019021D01*
X012377Y019120D02*
X011824Y019120D01*
X011377Y019120D02*
X010824Y019120D01*
X010923Y019021D02*
X011279Y019021D01*
X011180Y018923D02*
X011021Y018923D01*
X010377Y019120D02*
X009891Y019120D01*
X009891Y019218D02*
X015311Y019218D01*
X015311Y019120D02*
X014824Y019120D01*
X014923Y019021D02*
X015279Y019021D01*
X015180Y018923D02*
X015021Y018923D01*
X015311Y019317D02*
X009891Y019317D01*
X009891Y019415D02*
X015311Y019415D01*
X015311Y019514D02*
X009891Y019514D01*
X009891Y019612D02*
X015311Y019612D01*
X015311Y019711D02*
X009869Y019711D01*
X009802Y019809D02*
X015311Y019809D01*
X015311Y019908D02*
X009704Y019908D01*
X009605Y020007D02*
X015311Y020007D01*
X015311Y020105D02*
X009507Y020105D01*
X009408Y020204D02*
X015311Y020204D01*
X015311Y020302D02*
X009309Y020302D01*
X009291Y020401D02*
X009211Y020401D01*
X009192Y020499D02*
X009112Y020499D01*
X009094Y020598D02*
X009014Y020598D01*
X008995Y020696D02*
X008915Y020696D01*
X008897Y020795D02*
X008817Y020795D01*
X008798Y020893D02*
X008718Y020893D01*
X008699Y020992D02*
X008641Y020992D01*
X009076Y021436D02*
X008016Y022495D01*
X008033Y022512D01*
X008111Y022699D01*
X008111Y023502D01*
X008033Y023690D01*
X007890Y023833D01*
X007799Y023871D01*
X009079Y023871D01*
X009041Y023833D01*
X009041Y023369D01*
X009311Y023099D01*
X009311Y022053D01*
X009076Y021818D01*
X009076Y021436D01*
X009076Y021485D02*
X009027Y021485D01*
X009076Y021583D02*
X008928Y021583D01*
X008830Y021682D02*
X009076Y021682D01*
X009076Y021780D02*
X008731Y021780D01*
X008633Y021879D02*
X009136Y021879D01*
X009235Y021977D02*
X008534Y021977D01*
X008436Y022076D02*
X009311Y022076D01*
X009311Y022174D02*
X008337Y022174D01*
X008239Y022273D02*
X009311Y022273D01*
X009311Y022372D02*
X008140Y022372D01*
X008042Y022470D02*
X009311Y022470D01*
X009311Y022569D02*
X008057Y022569D01*
X008097Y022667D02*
X009311Y022667D01*
X009311Y022766D02*
X008111Y022766D01*
X008111Y022864D02*
X009311Y022864D01*
X009311Y022963D02*
X008111Y022963D01*
X008111Y023061D02*
X009311Y023061D01*
X009250Y023160D02*
X008111Y023160D01*
X008111Y023258D02*
X009151Y023258D01*
X009053Y023357D02*
X008111Y023357D01*
X008111Y023456D02*
X009041Y023456D01*
X009041Y023554D02*
X008089Y023554D01*
X008048Y023653D02*
X009041Y023653D01*
X009041Y023751D02*
X007972Y023751D01*
X007850Y023850D02*
X009058Y023850D01*
X009891Y023099D02*
X010101Y023309D01*
X010311Y023099D01*
X010311Y022053D01*
X010101Y021843D01*
X009891Y022053D01*
X009891Y023099D01*
X009891Y023061D02*
X010311Y023061D01*
X010311Y022963D02*
X009891Y022963D01*
X009891Y022864D02*
X010311Y022864D01*
X010311Y022766D02*
X009891Y022766D01*
X009891Y022667D02*
X010311Y022667D01*
X010311Y022569D02*
X009891Y022569D01*
X009891Y022470D02*
X010311Y022470D01*
X010311Y022372D02*
X009891Y022372D01*
X009891Y022273D02*
X010311Y022273D01*
X010311Y022174D02*
X009891Y022174D01*
X009891Y022076D02*
X010311Y022076D01*
X010235Y021977D02*
X009967Y021977D01*
X010065Y021879D02*
X010136Y021879D01*
X010101Y021358D02*
X010383Y021076D01*
X010818Y021076D01*
X011101Y021358D01*
X011383Y021076D01*
X011818Y021076D01*
X012101Y021358D01*
X012383Y021076D01*
X012818Y021076D01*
X013101Y021358D01*
X013383Y021076D01*
X013818Y021076D01*
X014101Y021358D01*
X014383Y021076D01*
X014818Y021076D01*
X015126Y021383D01*
X015126Y021818D01*
X014891Y022053D01*
X014891Y023099D01*
X015143Y023351D01*
X015394Y023101D01*
X015551Y023101D01*
X015551Y023551D01*
X015651Y023551D01*
X015651Y023101D01*
X015808Y023101D01*
X016058Y023351D01*
X016311Y023099D01*
X016311Y022053D01*
X016076Y021818D01*
X016076Y021383D01*
X016383Y021076D01*
X016818Y021076D01*
X017101Y021358D01*
X017275Y021185D01*
X016981Y020891D01*
X015658Y020891D01*
X015543Y020891D01*
X009621Y020891D01*
X009436Y021076D01*
X009818Y021076D01*
X010101Y021358D01*
X010171Y021288D02*
X010030Y021288D01*
X009931Y021189D02*
X010270Y021189D01*
X010369Y021091D02*
X009833Y021091D01*
X009618Y020893D02*
X016983Y020893D01*
X017082Y020992D02*
X009520Y020992D01*
X010833Y021091D02*
X011369Y021091D01*
X011270Y021189D02*
X010931Y021189D01*
X011030Y021288D02*
X011171Y021288D01*
X011101Y021843D02*
X011311Y022053D01*
X011311Y023099D01*
X011101Y023309D01*
X010891Y023099D01*
X010891Y022053D01*
X011101Y021843D01*
X011065Y021879D02*
X011136Y021879D01*
X011235Y021977D02*
X010967Y021977D01*
X010891Y022076D02*
X011311Y022076D01*
X011311Y022174D02*
X010891Y022174D01*
X010891Y022273D02*
X011311Y022273D01*
X011311Y022372D02*
X010891Y022372D01*
X010891Y022470D02*
X011311Y022470D01*
X011311Y022569D02*
X010891Y022569D01*
X010891Y022667D02*
X011311Y022667D01*
X011311Y022766D02*
X010891Y022766D01*
X010891Y022864D02*
X011311Y022864D01*
X011311Y022963D02*
X010891Y022963D01*
X010891Y023061D02*
X011311Y023061D01*
X011250Y023160D02*
X010952Y023160D01*
X011050Y023258D02*
X011151Y023258D01*
X011891Y023099D02*
X012101Y023309D01*
X012311Y023099D01*
X012311Y022053D01*
X012101Y021843D01*
X011891Y022053D01*
X011891Y023099D01*
X011891Y023061D02*
X012311Y023061D01*
X012311Y022963D02*
X011891Y022963D01*
X011891Y022864D02*
X012311Y022864D01*
X012311Y022766D02*
X011891Y022766D01*
X011891Y022667D02*
X012311Y022667D01*
X012311Y022569D02*
X011891Y022569D01*
X011891Y022470D02*
X012311Y022470D01*
X012311Y022372D02*
X011891Y022372D01*
X011891Y022273D02*
X012311Y022273D01*
X012311Y022174D02*
X011891Y022174D01*
X011891Y022076D02*
X012311Y022076D01*
X012235Y021977D02*
X011967Y021977D01*
X012065Y021879D02*
X012136Y021879D01*
X012171Y021288D02*
X012030Y021288D01*
X011931Y021189D02*
X012270Y021189D01*
X012369Y021091D02*
X011833Y021091D01*
X012833Y021091D02*
X013369Y021091D01*
X013270Y021189D02*
X012931Y021189D01*
X013030Y021288D02*
X013171Y021288D01*
X013101Y021843D02*
X013311Y022053D01*
X013311Y023099D01*
X013101Y023309D01*
X012891Y023099D01*
X012891Y022053D01*
X013101Y021843D01*
X013065Y021879D02*
X013136Y021879D01*
X013235Y021977D02*
X012967Y021977D01*
X012891Y022076D02*
X013311Y022076D01*
X013311Y022174D02*
X012891Y022174D01*
X012891Y022273D02*
X013311Y022273D01*
X013311Y022372D02*
X012891Y022372D01*
X012891Y022470D02*
X013311Y022470D01*
X013311Y022569D02*
X012891Y022569D01*
X012891Y022667D02*
X013311Y022667D01*
X013311Y022766D02*
X012891Y022766D01*
X012891Y022864D02*
X013311Y022864D01*
X013311Y022963D02*
X012891Y022963D01*
X012891Y023061D02*
X013311Y023061D01*
X013250Y023160D02*
X012952Y023160D01*
X013050Y023258D02*
X013151Y023258D01*
X013891Y023099D02*
X014101Y023309D01*
X014311Y023099D01*
X014311Y022053D01*
X014101Y021843D01*
X013891Y022053D01*
X013891Y023099D01*
X013891Y023061D02*
X014311Y023061D01*
X014311Y022963D02*
X013891Y022963D01*
X013891Y022864D02*
X014311Y022864D01*
X014311Y022766D02*
X013891Y022766D01*
X013891Y022667D02*
X014311Y022667D01*
X014311Y022569D02*
X013891Y022569D01*
X013891Y022470D02*
X014311Y022470D01*
X014311Y022372D02*
X013891Y022372D01*
X013891Y022273D02*
X014311Y022273D01*
X014311Y022174D02*
X013891Y022174D01*
X013891Y022076D02*
X014311Y022076D01*
X014235Y021977D02*
X013967Y021977D01*
X014065Y021879D02*
X014136Y021879D01*
X014171Y021288D02*
X014030Y021288D01*
X013931Y021189D02*
X014270Y021189D01*
X014369Y021091D02*
X013833Y021091D01*
X014833Y021091D02*
X016369Y021091D01*
X016270Y021189D02*
X015847Y021189D01*
X015793Y021136D02*
X016066Y021408D01*
X016066Y021571D01*
X015631Y021571D01*
X015631Y021631D01*
X016066Y021631D01*
X016066Y021793D01*
X015793Y022066D01*
X015631Y022066D01*
X015631Y021631D01*
X015571Y021631D01*
X015571Y022066D01*
X015408Y022066D01*
X015136Y021793D01*
X015136Y021631D01*
X015571Y021631D01*
X015571Y021571D01*
X015631Y021571D01*
X015631Y021136D01*
X015793Y021136D01*
X015631Y021189D02*
X015571Y021189D01*
X015571Y021136D02*
X015571Y021571D01*
X015136Y021571D01*
X015136Y021408D01*
X015408Y021136D01*
X015571Y021136D01*
X015571Y021288D02*
X015631Y021288D01*
X015631Y021386D02*
X015571Y021386D01*
X015571Y021485D02*
X015631Y021485D01*
X015631Y021583D02*
X016076Y021583D01*
X016066Y021485D02*
X016076Y021485D01*
X016076Y021386D02*
X016044Y021386D01*
X015945Y021288D02*
X016171Y021288D01*
X016076Y021682D02*
X016066Y021682D01*
X016066Y021780D02*
X016076Y021780D01*
X016136Y021879D02*
X015980Y021879D01*
X015882Y021977D02*
X016235Y021977D01*
X016311Y022076D02*
X014891Y022076D01*
X014891Y022174D02*
X016311Y022174D01*
X016311Y022273D02*
X014891Y022273D01*
X014891Y022372D02*
X016311Y022372D01*
X016311Y022470D02*
X014891Y022470D01*
X014891Y022569D02*
X016311Y022569D01*
X016311Y022667D02*
X014891Y022667D01*
X014891Y022766D02*
X016311Y022766D01*
X016311Y022864D02*
X014891Y022864D01*
X014891Y022963D02*
X016311Y022963D01*
X016311Y023061D02*
X014891Y023061D01*
X014952Y023160D02*
X015335Y023160D01*
X015236Y023258D02*
X015050Y023258D01*
X015551Y023258D02*
X015651Y023258D01*
X015651Y023160D02*
X015551Y023160D01*
X015551Y023357D02*
X015651Y023357D01*
X015651Y023456D02*
X015551Y023456D01*
X015867Y023160D02*
X016250Y023160D01*
X016151Y023258D02*
X015966Y023258D01*
X016058Y023850D02*
X016038Y023871D01*
X016079Y023871D01*
X016058Y023850D01*
X015164Y023871D02*
X015123Y023871D01*
X015143Y023850D01*
X015164Y023871D01*
X014250Y023160D02*
X013952Y023160D01*
X014050Y023258D02*
X014151Y023258D01*
X014967Y021977D02*
X015320Y021977D01*
X015221Y021879D02*
X015065Y021879D01*
X015126Y021780D02*
X015136Y021780D01*
X015126Y021682D02*
X015136Y021682D01*
X015126Y021583D02*
X015571Y021583D01*
X015571Y021682D02*
X015631Y021682D01*
X015631Y021780D02*
X015571Y021780D01*
X015571Y021879D02*
X015631Y021879D01*
X015631Y021977D02*
X015571Y021977D01*
X015136Y021485D02*
X015126Y021485D01*
X015126Y021386D02*
X015158Y021386D01*
X015256Y021288D02*
X015030Y021288D01*
X014931Y021189D02*
X015355Y021189D01*
X015891Y020311D02*
X017043Y020311D01*
X017158Y020311D01*
X024127Y020311D01*
X024311Y020127D01*
X024311Y020074D01*
X024061Y019824D01*
X024061Y019377D01*
X024377Y019061D01*
X024561Y019061D01*
X024534Y019050D01*
X024252Y018768D01*
X024100Y018400D01*
X024100Y018002D01*
X024252Y017634D01*
X024534Y017352D01*
X024902Y017200D01*
X025300Y017200D01*
X025668Y017352D01*
X025871Y017555D01*
X025871Y016331D01*
X025094Y016331D01*
X025141Y016377D01*
X025141Y016824D01*
X024824Y017141D01*
X024471Y017141D01*
X024091Y017521D01*
X024091Y018843D01*
X024091Y018958D01*
X024047Y019065D01*
X023347Y019765D01*
X023265Y019847D01*
X023158Y019891D01*
X022058Y019891D01*
X021943Y019891D01*
X021836Y019847D01*
X021436Y019447D01*
X021355Y019365D01*
X021311Y019258D01*
X021311Y019053D01*
X021101Y018843D01*
X020818Y019126D01*
X020383Y019126D01*
X020101Y018843D01*
X019818Y019126D01*
X019383Y019126D01*
X019101Y018843D01*
X018818Y019126D01*
X018383Y019126D01*
X018101Y018843D01*
X017818Y019126D01*
X017383Y019126D01*
X017076Y018818D01*
X017076Y018383D01*
X017311Y018148D01*
X017311Y018021D01*
X017181Y017891D01*
X016475Y017891D01*
X016295Y018071D01*
X015906Y018071D01*
X015631Y017795D01*
X015631Y017406D01*
X015906Y017131D01*
X016295Y017131D01*
X016475Y017311D01*
X017243Y017311D01*
X017281Y017311D01*
X017431Y017161D01*
X017431Y017007D01*
X017502Y016835D01*
X017635Y016702D01*
X017807Y016631D01*
X017994Y016631D01*
X018167Y016702D01*
X018299Y016835D01*
X018371Y017007D01*
X018371Y017194D01*
X018299Y017367D01*
X018167Y017499D01*
X017994Y017571D01*
X017841Y017571D01*
X017761Y017651D01*
X017847Y017736D01*
X017891Y017843D01*
X017891Y017958D01*
X017891Y018148D01*
X018101Y018358D01*
X018383Y018076D01*
X018818Y018076D01*
X019101Y018358D01*
X019383Y018076D01*
X019716Y018076D01*
X020855Y016936D01*
X020936Y016855D01*
X021043Y016811D01*
X021231Y016811D01*
X021191Y016771D01*
X021191Y016631D01*
X021571Y016631D01*
X021571Y016571D01*
X021191Y016571D01*
X021191Y016431D01*
X021291Y016331D01*
X016411Y016331D01*
X016511Y016431D01*
X016511Y016571D01*
X016131Y016571D01*
X016131Y016631D01*
X016071Y016631D01*
X016071Y017011D01*
X015931Y017011D01*
X015691Y016771D01*
X015691Y016631D01*
X016071Y016631D01*
X016071Y016571D01*
X015691Y016571D01*
X015691Y016431D01*
X015791Y016331D01*
X015431Y016331D01*
X015431Y016471D01*
X014981Y016471D01*
X014981Y016531D01*
X015431Y016531D01*
X015431Y016700D01*
X015169Y016961D01*
X015174Y016961D01*
X015491Y017277D01*
X015491Y017724D01*
X015313Y017903D01*
X015486Y018076D01*
X015818Y018076D01*
X016126Y018383D01*
X016126Y018818D01*
X015891Y019053D01*
X015891Y020311D01*
X015891Y020302D02*
X024136Y020302D01*
X024234Y020204D02*
X015891Y020204D01*
X015891Y020105D02*
X024311Y020105D01*
X024243Y020007D02*
X015891Y020007D01*
X015891Y019908D02*
X024144Y019908D01*
X024061Y019809D02*
X023302Y019809D01*
X023401Y019711D02*
X024061Y019711D01*
X024061Y019612D02*
X023499Y019612D01*
X023598Y019514D02*
X024061Y019514D01*
X024061Y019415D02*
X023696Y019415D01*
X023795Y019317D02*
X024121Y019317D01*
X024220Y019218D02*
X023893Y019218D01*
X023992Y019120D02*
X024318Y019120D01*
X024505Y019021D02*
X024065Y019021D01*
X024091Y018923D02*
X024407Y018923D01*
X024308Y018824D02*
X024091Y018824D01*
X024091Y018725D02*
X024234Y018725D01*
X024194Y018627D02*
X024091Y018627D01*
X024091Y018528D02*
X024153Y018528D01*
X024112Y018430D02*
X024091Y018430D01*
X024091Y018331D02*
X024100Y018331D01*
X024091Y018233D02*
X024100Y018233D01*
X024091Y018134D02*
X024100Y018134D01*
X024091Y018036D02*
X024100Y018036D01*
X024091Y017937D02*
X024126Y017937D01*
X024091Y017839D02*
X024167Y017839D01*
X024208Y017740D02*
X024091Y017740D01*
X024091Y017641D02*
X024249Y017641D01*
X024343Y017543D02*
X024091Y017543D01*
X024167Y017444D02*
X024441Y017444D01*
X024548Y017346D02*
X024266Y017346D01*
X024364Y017247D02*
X024786Y017247D01*
X024915Y017050D02*
X025871Y017050D01*
X025871Y016952D02*
X025013Y016952D01*
X025112Y016853D02*
X025871Y016853D01*
X025871Y016755D02*
X025141Y016755D01*
X025141Y016656D02*
X025871Y016656D01*
X025871Y016558D02*
X025141Y016558D01*
X025141Y016459D02*
X025871Y016459D01*
X025871Y016360D02*
X025124Y016360D01*
X025415Y017247D02*
X025871Y017247D01*
X025871Y017149D02*
X024463Y017149D01*
X023651Y017141D02*
X023471Y017141D01*
X022536Y018076D01*
X022818Y018076D01*
X023126Y018383D01*
X023126Y018818D01*
X022818Y019126D01*
X022383Y019126D01*
X022101Y018843D01*
X021891Y019053D01*
X021891Y019081D01*
X022121Y019311D01*
X022981Y019311D01*
X023511Y018781D01*
X023511Y017343D01*
X023555Y017236D01*
X023636Y017155D01*
X023651Y017141D01*
X023643Y017149D02*
X023463Y017149D01*
X023550Y017247D02*
X023364Y017247D01*
X023266Y017346D02*
X023511Y017346D01*
X023511Y017444D02*
X023167Y017444D01*
X023069Y017543D02*
X023511Y017543D01*
X023511Y017641D02*
X022970Y017641D01*
X022872Y017740D02*
X023511Y017740D01*
X023511Y017839D02*
X022773Y017839D01*
X022675Y017937D02*
X023511Y017937D01*
X023511Y018036D02*
X022576Y018036D01*
X022877Y018134D02*
X023511Y018134D01*
X023511Y018233D02*
X022975Y018233D01*
X023074Y018331D02*
X023511Y018331D01*
X023511Y018430D02*
X023126Y018430D01*
X023126Y018528D02*
X023511Y018528D01*
X023511Y018627D02*
X023126Y018627D01*
X023126Y018725D02*
X023511Y018725D01*
X023467Y018824D02*
X023120Y018824D01*
X023021Y018923D02*
X023369Y018923D01*
X023270Y019021D02*
X022923Y019021D01*
X022824Y019120D02*
X023172Y019120D01*
X023073Y019218D02*
X022028Y019218D01*
X021930Y019120D02*
X022377Y019120D01*
X022279Y019021D02*
X021923Y019021D01*
X022021Y018923D02*
X022180Y018923D01*
X021504Y019514D02*
X015891Y019514D01*
X015891Y019612D02*
X021602Y019612D01*
X021701Y019711D02*
X015891Y019711D01*
X015891Y019809D02*
X021799Y019809D01*
X021405Y019415D02*
X015891Y019415D01*
X015891Y019317D02*
X021335Y019317D01*
X021311Y019218D02*
X015891Y019218D01*
X015891Y019120D02*
X017377Y019120D01*
X017279Y019021D02*
X016838Y019021D01*
X016793Y019066D02*
X016631Y019066D01*
X016631Y018631D01*
X017066Y018631D01*
X017066Y018793D01*
X016793Y019066D01*
X016631Y019021D02*
X016571Y019021D01*
X016571Y019066D02*
X016408Y019066D01*
X016136Y018793D01*
X016136Y018631D01*
X016571Y018631D01*
X016571Y019066D01*
X016571Y018923D02*
X016631Y018923D01*
X016631Y018824D02*
X016571Y018824D01*
X016571Y018725D02*
X016631Y018725D01*
X016631Y018631D02*
X016571Y018631D01*
X016571Y018571D01*
X016631Y018571D01*
X016631Y018631D01*
X016631Y018627D02*
X017076Y018627D01*
X017066Y018571D02*
X016631Y018571D01*
X016631Y018136D01*
X016793Y018136D01*
X017066Y018408D01*
X017066Y018571D01*
X017066Y018528D02*
X017076Y018528D01*
X017066Y018430D02*
X017076Y018430D01*
X017128Y018331D02*
X016989Y018331D01*
X016890Y018233D02*
X017226Y018233D01*
X017311Y018134D02*
X015877Y018134D01*
X015871Y018036D02*
X015446Y018036D01*
X015347Y017937D02*
X015772Y017937D01*
X015674Y017839D02*
X015377Y017839D01*
X015475Y017740D02*
X015631Y017740D01*
X015631Y017641D02*
X015491Y017641D01*
X015491Y017543D02*
X015631Y017543D01*
X015631Y017444D02*
X015491Y017444D01*
X015491Y017346D02*
X015691Y017346D01*
X015790Y017247D02*
X015461Y017247D01*
X015362Y017149D02*
X015888Y017149D01*
X015872Y016952D02*
X015179Y016952D01*
X015264Y017050D02*
X017431Y017050D01*
X017431Y017149D02*
X016313Y017149D01*
X016412Y017247D02*
X017344Y017247D01*
X017454Y016952D02*
X016330Y016952D01*
X016271Y017011D02*
X016131Y017011D01*
X016131Y016631D01*
X016511Y016631D01*
X016511Y016771D01*
X016271Y017011D01*
X016131Y016952D02*
X016071Y016952D01*
X016071Y016853D02*
X016131Y016853D01*
X016131Y016755D02*
X016071Y016755D01*
X016071Y016656D02*
X016131Y016656D01*
X016428Y016853D02*
X017495Y016853D01*
X017582Y016755D02*
X016511Y016755D01*
X016511Y016656D02*
X017746Y016656D01*
X018055Y016656D02*
X019646Y016656D01*
X019707Y016631D02*
X019894Y016631D01*
X020067Y016702D01*
X020199Y016835D01*
X020271Y017007D01*
X020271Y017194D01*
X020199Y017367D01*
X020067Y017499D01*
X019894Y017571D01*
X019707Y017571D01*
X019535Y017499D01*
X019402Y017367D01*
X019331Y017194D01*
X019331Y017007D01*
X019402Y016835D01*
X019535Y016702D01*
X019707Y016631D01*
X019955Y016656D02*
X021191Y016656D01*
X021191Y016558D02*
X016511Y016558D01*
X016511Y016459D02*
X021191Y016459D01*
X021261Y016360D02*
X016440Y016360D01*
X015761Y016360D02*
X015431Y016360D01*
X015431Y016459D02*
X015691Y016459D01*
X015691Y016558D02*
X015431Y016558D01*
X015431Y016656D02*
X015691Y016656D01*
X015691Y016755D02*
X015376Y016755D01*
X015277Y016853D02*
X015773Y016853D01*
X014921Y016531D02*
X014921Y016471D01*
X014471Y016471D01*
X014471Y016331D01*
X014123Y016331D01*
X014161Y016369D01*
X014161Y016833D01*
X013952Y017042D01*
X014411Y017501D01*
X014411Y017277D01*
X014727Y016961D01*
X014732Y016961D01*
X014471Y016700D01*
X014471Y016531D01*
X014921Y016531D01*
X014624Y016853D02*
X014140Y016853D01*
X014161Y016755D02*
X014526Y016755D01*
X014471Y016656D02*
X014161Y016656D01*
X014161Y016558D02*
X014471Y016558D01*
X014471Y016459D02*
X014161Y016459D01*
X014152Y016360D02*
X014471Y016360D01*
X014723Y016952D02*
X014042Y016952D01*
X013960Y017050D02*
X014638Y017050D01*
X014539Y017149D02*
X014059Y017149D01*
X014157Y017247D02*
X014441Y017247D01*
X014411Y017346D02*
X014256Y017346D01*
X014354Y017444D02*
X014411Y017444D01*
X013929Y017839D02*
X013749Y017839D01*
X013830Y017740D02*
X013650Y017740D01*
X013731Y017641D02*
X013552Y017641D01*
X013633Y017543D02*
X013453Y017543D01*
X013534Y017444D02*
X013355Y017444D01*
X013436Y017347D02*
X013355Y017265D01*
X013311Y017158D01*
X013311Y017103D01*
X013101Y016893D01*
X012952Y017042D01*
X013847Y017936D01*
X013891Y018043D01*
X013891Y018148D01*
X014101Y018358D01*
X014275Y018185D01*
X013436Y017347D01*
X013436Y017346D02*
X013256Y017346D01*
X013348Y017247D02*
X013157Y017247D01*
X013059Y017149D02*
X013311Y017149D01*
X013258Y017050D02*
X012960Y017050D01*
X013042Y016952D02*
X013160Y016952D01*
X012633Y017543D02*
X012453Y017543D01*
X012534Y017444D02*
X012354Y017444D01*
X012436Y017347D02*
X012355Y017265D01*
X012311Y017158D01*
X012311Y017103D01*
X012101Y016893D01*
X011952Y017042D01*
X012765Y017855D01*
X012765Y017855D01*
X012847Y017936D01*
X012891Y018043D01*
X012891Y018148D01*
X013101Y018358D01*
X013275Y018185D01*
X012436Y017347D01*
X012436Y017346D02*
X012256Y017346D01*
X012348Y017247D02*
X012157Y017247D01*
X012059Y017149D02*
X012311Y017149D01*
X012258Y017050D02*
X011960Y017050D01*
X012042Y016952D02*
X012160Y016952D01*
X012552Y017641D02*
X012731Y017641D01*
X012650Y017740D02*
X012830Y017740D01*
X012749Y017839D02*
X012929Y017839D01*
X012847Y017937D02*
X013027Y017937D01*
X013126Y018036D02*
X012888Y018036D01*
X012891Y018134D02*
X013224Y018134D01*
X013226Y018233D02*
X012975Y018233D01*
X013074Y018331D02*
X013128Y018331D01*
X013847Y017937D02*
X014027Y017937D01*
X014126Y018036D02*
X013888Y018036D01*
X013891Y018134D02*
X014224Y018134D01*
X014226Y018233D02*
X013975Y018233D01*
X014074Y018331D02*
X014128Y018331D01*
X014180Y018923D02*
X014021Y018923D01*
X013923Y019021D02*
X014279Y019021D01*
X014377Y019120D02*
X013824Y019120D01*
X013377Y019120D02*
X012824Y019120D01*
X012923Y019021D02*
X013279Y019021D01*
X013180Y018923D02*
X013021Y018923D01*
X011325Y018134D02*
X010877Y018134D01*
X010975Y018233D02*
X011226Y018233D01*
X011128Y018331D02*
X011074Y018331D01*
X010325Y018134D02*
X009891Y018134D01*
X009975Y018233D02*
X010226Y018233D01*
X010128Y018331D02*
X010074Y018331D01*
X010021Y018923D02*
X010180Y018923D01*
X010279Y019021D02*
X009923Y019021D01*
X009845Y017149D02*
X010357Y017149D01*
X010258Y017050D02*
X009943Y017050D01*
X010042Y016952D02*
X010160Y016952D01*
X010845Y017149D02*
X011311Y017149D01*
X011258Y017050D02*
X010943Y017050D01*
X011042Y016952D02*
X011160Y016952D01*
X007192Y017543D02*
X005868Y017543D01*
X005761Y017543D02*
X005661Y017543D01*
X005661Y017444D02*
X005761Y017444D01*
X005761Y017346D02*
X005661Y017346D01*
X005661Y017247D02*
X005761Y017247D01*
X005761Y017149D02*
X005661Y017149D01*
X005661Y017050D02*
X005761Y017050D01*
X005761Y016952D02*
X005661Y016952D01*
X005661Y016853D02*
X004102Y016853D01*
X004102Y016755D02*
X005261Y016755D01*
X005261Y016656D02*
X004102Y016656D01*
X004063Y016558D02*
X005261Y016558D01*
X005265Y016459D02*
X004022Y016459D01*
X003981Y016360D02*
X005290Y016360D01*
X005261Y016952D02*
X004102Y016952D01*
X004102Y017050D02*
X005261Y017050D01*
X005261Y017149D02*
X004061Y017149D01*
X004020Y017247D02*
X005279Y017247D01*
X005320Y017346D02*
X003979Y017346D01*
X003923Y017444D02*
X005398Y017444D01*
X005554Y017543D02*
X003824Y017543D01*
X003726Y017641D02*
X007201Y017641D01*
X007201Y017740D02*
X003570Y017740D01*
X003898Y018134D02*
X004389Y018134D01*
X004290Y018233D02*
X003996Y018233D01*
X004095Y018331D02*
X004191Y018331D01*
X004551Y018331D02*
X004651Y018331D01*
X004651Y018233D02*
X004551Y018233D01*
X004551Y018134D02*
X004651Y018134D01*
X004651Y018430D02*
X004551Y018430D01*
X004551Y018528D02*
X004651Y018528D01*
X006024Y017444D02*
X007093Y017444D01*
X007032Y017346D02*
X006101Y017346D01*
X006143Y017247D02*
X006991Y017247D01*
X006981Y017149D02*
X006161Y017149D01*
X006161Y017050D02*
X006981Y017050D01*
X006981Y016952D02*
X006161Y016952D01*
X006161Y016755D02*
X006981Y016755D01*
X006981Y016853D02*
X005761Y016853D01*
X006161Y016656D02*
X006981Y016656D01*
X006981Y016558D02*
X006161Y016558D01*
X006157Y016459D02*
X006981Y016459D01*
X007005Y016360D02*
X006132Y016360D01*
X002220Y016360D02*
X001331Y016360D01*
X001331Y016459D02*
X002179Y016459D01*
X002139Y016558D02*
X001331Y016558D01*
X001331Y016656D02*
X002100Y016656D01*
X002100Y016755D02*
X001331Y016755D01*
X001331Y016853D02*
X002100Y016853D01*
X001331Y018233D02*
X001332Y018233D01*
X001331Y020052D02*
X001380Y020101D01*
X001331Y020150D01*
X001331Y020052D01*
X001331Y020105D02*
X001375Y020105D01*
X001331Y021052D02*
X001380Y021101D01*
X001331Y021150D01*
X001331Y021052D01*
X001331Y021091D02*
X001369Y021091D01*
X001331Y022052D02*
X001380Y022101D01*
X001331Y022150D01*
X001331Y022052D01*
X001331Y022076D02*
X001355Y022076D01*
X001847Y022076D02*
X003416Y022076D01*
X003514Y022174D02*
X001896Y022174D01*
X001994Y022273D02*
X003613Y022273D01*
X003711Y022372D02*
X003353Y022372D01*
X003591Y022470D02*
X003810Y022470D01*
X003735Y022569D02*
X003909Y022569D01*
X003833Y022667D02*
X004007Y022667D01*
X003932Y022766D02*
X004106Y022766D01*
X004204Y022864D02*
X003983Y022864D01*
X004024Y022963D02*
X004303Y022963D01*
X004401Y023061D02*
X004065Y023061D01*
X004102Y023160D02*
X004500Y023160D01*
X004598Y023258D02*
X004102Y023258D01*
X004102Y023357D02*
X004712Y023357D01*
X005091Y023456D02*
X004102Y023456D01*
X004100Y023554D02*
X005112Y023554D01*
X005153Y023653D02*
X004059Y023653D01*
X004019Y023751D02*
X005230Y023751D01*
X005352Y023850D02*
X003978Y023850D01*
X004926Y022766D02*
X005091Y022766D01*
X005104Y022667D02*
X004827Y022667D01*
X004729Y022569D02*
X005145Y022569D01*
X005210Y022470D02*
X004630Y022470D01*
X004532Y022372D02*
X005309Y022372D01*
X006111Y023160D02*
X006151Y023160D01*
X006151Y023258D02*
X006111Y023258D01*
X006111Y023357D02*
X006151Y023357D01*
X006154Y023456D02*
X006111Y023456D01*
X006089Y023554D02*
X006177Y023554D01*
X006228Y023653D02*
X006048Y023653D01*
X005972Y023751D02*
X006318Y023751D01*
X006551Y023751D02*
X006651Y023751D01*
X006651Y023653D02*
X006551Y023653D01*
X006551Y023554D02*
X006651Y023554D01*
X006651Y023456D02*
X006551Y023456D01*
X006551Y023357D02*
X006651Y023357D01*
X006651Y023258D02*
X006551Y023258D01*
X006551Y023160D02*
X006651Y023160D01*
X006651Y022864D02*
X006551Y022864D01*
X006551Y022766D02*
X006651Y022766D01*
X006651Y022667D02*
X006551Y022667D01*
X006551Y022569D02*
X006651Y022569D01*
X006651Y022470D02*
X006551Y022470D01*
X007051Y023160D02*
X007091Y023160D01*
X007091Y023258D02*
X007051Y023258D01*
X007051Y023357D02*
X007091Y023357D01*
X007091Y023456D02*
X007048Y023456D01*
X007024Y023554D02*
X007112Y023554D01*
X007153Y023653D02*
X006974Y023653D01*
X006884Y023751D02*
X007230Y023751D01*
X007352Y023850D02*
X005850Y023850D01*
X004231Y021879D02*
X004171Y021879D01*
X004171Y021780D02*
X004231Y021780D01*
X004231Y021682D02*
X004171Y021682D01*
X004171Y021583D02*
X004231Y021583D01*
X004231Y021485D02*
X004171Y021485D01*
X004171Y021386D02*
X004231Y021386D01*
X004231Y021288D02*
X004171Y021288D01*
X004171Y021189D02*
X004231Y021189D01*
X004231Y021091D02*
X004171Y021091D01*
X004171Y020992D02*
X004231Y020992D01*
X003952Y020992D02*
X003534Y020992D01*
X003632Y021091D02*
X003854Y021091D01*
X003755Y021189D02*
X003698Y021189D01*
X001340Y023061D02*
X001331Y023061D01*
X009952Y023160D02*
X010250Y023160D01*
X010151Y023258D02*
X010050Y023258D01*
X011952Y023160D02*
X012250Y023160D01*
X012151Y023258D02*
X012050Y023258D01*
X016891Y023099D02*
X016891Y022053D01*
X017101Y021843D01*
X017383Y022126D01*
X017818Y022126D01*
X018101Y021843D01*
X018275Y022017D01*
X017437Y022855D01*
X017436Y022855D01*
X017355Y022936D01*
X017311Y023043D01*
X017311Y023099D01*
X017101Y023309D01*
X016891Y023099D01*
X016891Y023061D02*
X017311Y023061D01*
X017344Y022963D02*
X016891Y022963D01*
X016891Y022864D02*
X017427Y022864D01*
X017526Y022766D02*
X016891Y022766D01*
X016891Y022667D02*
X017624Y022667D01*
X017723Y022569D02*
X016891Y022569D01*
X016891Y022470D02*
X017821Y022470D01*
X017920Y022372D02*
X016891Y022372D01*
X016891Y022273D02*
X018018Y022273D01*
X018117Y022174D02*
X016891Y022174D01*
X016891Y022076D02*
X017334Y022076D01*
X017235Y021977D02*
X016967Y021977D01*
X017065Y021879D02*
X017136Y021879D01*
X017172Y021288D02*
X017030Y021288D01*
X016931Y021189D02*
X017270Y021189D01*
X017180Y021091D02*
X016833Y021091D01*
X017801Y020891D02*
X017847Y020936D01*
X017891Y021043D01*
X017891Y021148D01*
X018101Y021358D01*
X018383Y021076D01*
X018818Y021076D01*
X019101Y021358D01*
X019383Y021076D01*
X019818Y021076D01*
X020101Y021358D01*
X020383Y021076D01*
X020818Y021076D01*
X021101Y021358D01*
X021383Y021076D01*
X021818Y021076D01*
X022101Y021358D01*
X022383Y021076D01*
X022818Y021076D01*
X023126Y021383D01*
X023126Y021818D01*
X022891Y022053D01*
X022891Y022158D01*
X022847Y022265D01*
X021952Y023160D01*
X022250Y023160D01*
X022348Y023061D02*
X022050Y023061D01*
X022149Y022963D02*
X024178Y022963D01*
X024137Y023061D02*
X022853Y023061D01*
X022833Y023041D02*
X023161Y023369D01*
X023161Y023833D01*
X023123Y023871D01*
X024233Y023871D01*
X024100Y023550D01*
X024100Y023152D01*
X024252Y022784D01*
X024534Y022502D01*
X024902Y022350D01*
X025300Y022350D01*
X025668Y022502D01*
X025871Y022705D01*
X025871Y022009D01*
X025800Y022081D01*
X025651Y022081D01*
X025651Y021651D01*
X025551Y021651D01*
X025551Y022081D01*
X025402Y022081D01*
X025141Y021819D01*
X025141Y021824D01*
X024824Y022141D01*
X024377Y022141D01*
X024061Y021824D01*
X024061Y021377D01*
X024311Y021127D01*
X024311Y021074D01*
X024127Y020891D01*
X017801Y020891D01*
X017804Y020893D02*
X024130Y020893D01*
X024228Y020992D02*
X017870Y020992D01*
X017891Y021091D02*
X018369Y021091D01*
X018270Y021189D02*
X017931Y021189D01*
X018030Y021288D02*
X018171Y021288D01*
X018136Y021879D02*
X018065Y021879D01*
X017967Y021977D02*
X018235Y021977D01*
X018216Y022076D02*
X017868Y022076D01*
X018444Y022667D02*
X018624Y022667D01*
X018543Y022569D02*
X018723Y022569D01*
X018642Y022470D02*
X018821Y022470D01*
X018740Y022372D02*
X018920Y022372D01*
X018839Y022273D02*
X019018Y022273D01*
X019117Y022174D02*
X018884Y022174D01*
X018891Y022158D02*
X018847Y022265D01*
X017952Y023160D01*
X018250Y023160D01*
X018311Y023099D02*
X018311Y023043D01*
X018355Y022936D01*
X019275Y022017D01*
X019101Y021843D01*
X018891Y022053D01*
X018891Y022158D01*
X018891Y022076D02*
X019215Y022076D01*
X019235Y021977D02*
X018967Y021977D01*
X019065Y021879D02*
X019136Y021879D01*
X019642Y022470D02*
X019821Y022470D01*
X019740Y022372D02*
X019920Y022372D01*
X019839Y022273D02*
X020018Y022273D01*
X020117Y022174D02*
X019884Y022174D01*
X019891Y022158D02*
X019847Y022265D01*
X018952Y023160D01*
X019250Y023160D01*
X019311Y023099D02*
X019101Y023309D01*
X018952Y023160D01*
X019050Y023258D02*
X019151Y023258D01*
X019050Y023061D02*
X019311Y023061D01*
X019311Y023043D02*
X019355Y022936D01*
X019436Y022855D01*
X020275Y022017D01*
X020101Y021843D01*
X019891Y022053D01*
X019891Y022158D01*
X019891Y022076D02*
X020215Y022076D01*
X020235Y021977D02*
X019967Y021977D01*
X020065Y021879D02*
X020136Y021879D01*
X020171Y021288D02*
X020030Y021288D01*
X019931Y021189D02*
X020270Y021189D01*
X020369Y021091D02*
X019833Y021091D01*
X019369Y021091D02*
X018833Y021091D01*
X018931Y021189D02*
X019270Y021189D01*
X019171Y021288D02*
X019030Y021288D01*
X019543Y022569D02*
X019723Y022569D01*
X019624Y022667D02*
X019444Y022667D01*
X019526Y022766D02*
X019346Y022766D01*
X019427Y022864D02*
X019247Y022864D01*
X019344Y022963D02*
X019149Y022963D01*
X019311Y023043D02*
X019311Y023099D01*
X019952Y023160D02*
X020101Y023309D01*
X020311Y023099D01*
X020311Y023043D01*
X020355Y022936D01*
X020436Y022855D01*
X021275Y022017D01*
X021101Y021843D01*
X020891Y022053D01*
X020891Y022158D01*
X020847Y022265D01*
X019952Y023160D01*
X020250Y023160D01*
X020311Y023061D02*
X020050Y023061D01*
X020149Y022963D02*
X020344Y022963D01*
X020427Y022864D02*
X020247Y022864D01*
X020346Y022766D02*
X020526Y022766D01*
X020444Y022667D02*
X020624Y022667D01*
X020543Y022569D02*
X020723Y022569D01*
X020642Y022470D02*
X020821Y022470D01*
X020740Y022372D02*
X020920Y022372D01*
X020839Y022273D02*
X021018Y022273D01*
X021117Y022174D02*
X020884Y022174D01*
X020891Y022076D02*
X021215Y022076D01*
X021235Y021977D02*
X020967Y021977D01*
X021065Y021879D02*
X021136Y021879D01*
X021642Y022470D02*
X021821Y022470D01*
X021740Y022372D02*
X021920Y022372D01*
X021839Y022273D02*
X022018Y022273D01*
X022117Y022174D02*
X021884Y022174D01*
X021891Y022158D02*
X021847Y022265D01*
X020952Y023160D01*
X021250Y023160D01*
X021311Y023099D02*
X021101Y023309D01*
X020952Y023160D01*
X021050Y023258D02*
X021151Y023258D01*
X021050Y023061D02*
X021311Y023061D01*
X021311Y023043D02*
X021355Y022936D01*
X021436Y022855D01*
X022275Y022017D01*
X022101Y021843D01*
X021891Y022053D01*
X021891Y022158D01*
X021891Y022076D02*
X022215Y022076D01*
X022235Y021977D02*
X021967Y021977D01*
X022065Y021879D02*
X022136Y021879D01*
X022171Y021288D02*
X022030Y021288D01*
X021931Y021189D02*
X022270Y021189D01*
X022369Y021091D02*
X021833Y021091D01*
X021369Y021091D02*
X020833Y021091D01*
X020931Y021189D02*
X021270Y021189D01*
X021171Y021288D02*
X021030Y021288D01*
X021543Y022569D02*
X021723Y022569D01*
X021624Y022667D02*
X021444Y022667D01*
X021526Y022766D02*
X021346Y022766D01*
X021427Y022864D02*
X021247Y022864D01*
X021344Y022963D02*
X021149Y022963D01*
X021311Y023043D02*
X021311Y023099D01*
X021952Y023160D02*
X022101Y023309D01*
X022369Y023041D01*
X022833Y023041D01*
X022952Y023160D02*
X024100Y023160D01*
X024100Y023258D02*
X023050Y023258D01*
X023149Y023357D02*
X024100Y023357D01*
X024100Y023456D02*
X023161Y023456D01*
X023161Y023554D02*
X024101Y023554D01*
X024142Y023653D02*
X023161Y023653D01*
X023161Y023751D02*
X024183Y023751D01*
X024224Y023850D02*
X023144Y023850D01*
X022151Y023258D02*
X022050Y023258D01*
X022247Y022864D02*
X024219Y022864D01*
X024270Y022766D02*
X022346Y022766D01*
X022444Y022667D02*
X024368Y022667D01*
X024467Y022569D02*
X022543Y022569D01*
X022642Y022470D02*
X024611Y022470D01*
X024849Y022372D02*
X022740Y022372D01*
X022839Y022273D02*
X025871Y022273D01*
X025871Y022174D02*
X022884Y022174D01*
X022891Y022076D02*
X024312Y022076D01*
X024214Y021977D02*
X022967Y021977D01*
X023065Y021879D02*
X024115Y021879D01*
X024061Y021780D02*
X023126Y021780D01*
X023126Y021682D02*
X024061Y021682D01*
X024061Y021583D02*
X023126Y021583D01*
X023126Y021485D02*
X024061Y021485D01*
X024061Y021386D02*
X023126Y021386D01*
X023030Y021288D02*
X024150Y021288D01*
X024249Y021189D02*
X022931Y021189D01*
X022833Y021091D02*
X024311Y021091D01*
X024891Y021091D02*
X025871Y021091D01*
X025800Y021081D02*
X025651Y021081D01*
X025651Y020651D01*
X025551Y020651D01*
X025551Y021081D01*
X025402Y021081D01*
X025141Y020819D01*
X025141Y020824D01*
X024891Y021074D01*
X024891Y021127D01*
X025141Y021377D01*
X025141Y021382D01*
X025402Y021121D01*
X025551Y021121D01*
X025551Y021551D01*
X025651Y021551D01*
X025651Y021121D01*
X025800Y021121D01*
X025871Y021192D01*
X025871Y021009D01*
X025800Y021081D01*
X025868Y021189D02*
X025871Y021189D01*
X025651Y021189D02*
X025551Y021189D01*
X025551Y021288D02*
X025651Y021288D01*
X025651Y021386D02*
X025551Y021386D01*
X025551Y021485D02*
X025651Y021485D01*
X025651Y021682D02*
X025551Y021682D01*
X025551Y021780D02*
X025651Y021780D01*
X025651Y021879D02*
X025551Y021879D01*
X025551Y021977D02*
X025651Y021977D01*
X025651Y022076D02*
X025551Y022076D01*
X025397Y022076D02*
X024889Y022076D01*
X024988Y021977D02*
X025299Y021977D01*
X025200Y021879D02*
X025086Y021879D01*
X025353Y022372D02*
X025871Y022372D01*
X025871Y022470D02*
X025591Y022470D01*
X025734Y022569D02*
X025871Y022569D01*
X025871Y022667D02*
X025833Y022667D01*
X025804Y022076D02*
X025871Y022076D01*
X025235Y021288D02*
X025051Y021288D01*
X024953Y021189D02*
X025334Y021189D01*
X025313Y020992D02*
X024973Y020992D01*
X025072Y020893D02*
X025215Y020893D01*
X025551Y020893D02*
X025651Y020893D01*
X025651Y020795D02*
X025551Y020795D01*
X025551Y020696D02*
X025651Y020696D01*
X025651Y020551D02*
X025651Y020121D01*
X025800Y020121D01*
X025871Y020192D01*
X025871Y020009D01*
X025800Y020081D01*
X025651Y020081D01*
X025651Y019651D01*
X025551Y019651D01*
X025551Y020081D01*
X025402Y020081D01*
X025141Y019819D01*
X025141Y019824D01*
X024891Y020074D01*
X024891Y020127D01*
X025141Y020377D01*
X025141Y020382D01*
X025402Y020121D01*
X025551Y020121D01*
X025551Y020551D01*
X025651Y020551D01*
X025651Y020499D02*
X025551Y020499D01*
X025551Y020401D02*
X025651Y020401D01*
X025651Y020302D02*
X025551Y020302D01*
X025551Y020204D02*
X025651Y020204D01*
X025651Y020007D02*
X025551Y020007D01*
X025551Y019908D02*
X025651Y019908D01*
X025651Y019809D02*
X025551Y019809D01*
X025551Y019711D02*
X025651Y019711D01*
X025651Y019551D02*
X025651Y019121D01*
X025800Y019121D01*
X025871Y019192D01*
X025871Y018847D01*
X025668Y019050D01*
X025496Y019121D01*
X025551Y019121D01*
X025551Y019551D01*
X025651Y019551D01*
X025651Y019514D02*
X025551Y019514D01*
X025551Y019415D02*
X025651Y019415D01*
X025651Y019317D02*
X025551Y019317D01*
X025551Y019218D02*
X025651Y019218D01*
X025499Y019120D02*
X025871Y019120D01*
X025871Y019021D02*
X025696Y019021D01*
X025795Y018923D02*
X025871Y018923D01*
X025336Y019187D02*
X025300Y019202D01*
X024966Y019202D01*
X025141Y019377D01*
X025141Y019382D01*
X025336Y019187D01*
X025305Y019218D02*
X024982Y019218D01*
X025080Y019317D02*
X025206Y019317D01*
X025229Y019908D02*
X025057Y019908D01*
X024959Y020007D02*
X025328Y020007D01*
X025319Y020204D02*
X024967Y020204D01*
X024891Y020105D02*
X025871Y020105D01*
X025221Y020302D02*
X025066Y020302D01*
X025551Y020992D02*
X025651Y020992D01*
X025859Y017543D02*
X025871Y017543D01*
X025871Y017444D02*
X025760Y017444D01*
X025653Y017346D02*
X025871Y017346D01*
X024107Y016331D02*
X024094Y016331D01*
X024101Y016337D01*
X024107Y016331D01*
X023107Y016331D02*
X023094Y016331D01*
X023101Y016337D01*
X023107Y016331D01*
X022651Y017141D02*
X022471Y017141D01*
X022265Y017347D01*
X022158Y017391D01*
X022055Y017391D01*
X022071Y017406D01*
X022071Y017721D01*
X022651Y017141D01*
X022643Y017149D02*
X022463Y017149D01*
X022544Y017247D02*
X022364Y017247D01*
X022446Y017346D02*
X022266Y017346D01*
X022347Y017444D02*
X022071Y017444D01*
X022071Y017543D02*
X022249Y017543D01*
X022150Y017641D02*
X022071Y017641D01*
X021981Y016811D02*
X022061Y016731D01*
X022061Y016377D01*
X022107Y016331D01*
X021911Y016331D01*
X022011Y016431D01*
X022011Y016571D01*
X021631Y016571D01*
X021631Y016631D01*
X022011Y016631D01*
X022011Y016771D01*
X021971Y016811D01*
X021981Y016811D01*
X022011Y016755D02*
X022037Y016755D01*
X022061Y016656D02*
X022011Y016656D01*
X022011Y016558D02*
X022061Y016558D01*
X022061Y016459D02*
X022011Y016459D01*
X022077Y016360D02*
X021940Y016360D01*
X021191Y016755D02*
X020119Y016755D01*
X020207Y016853D02*
X020941Y016853D01*
X020840Y016952D02*
X020248Y016952D01*
X020271Y017050D02*
X020741Y017050D01*
X020643Y017149D02*
X020271Y017149D01*
X020249Y017247D02*
X020544Y017247D01*
X020446Y017346D02*
X020208Y017346D01*
X020122Y017444D02*
X020347Y017444D01*
X020248Y017543D02*
X019961Y017543D01*
X020150Y017641D02*
X017770Y017641D01*
X017848Y017740D02*
X020051Y017740D01*
X019953Y017839D02*
X017889Y017839D01*
X017891Y017937D02*
X019854Y017937D01*
X019756Y018036D02*
X017891Y018036D01*
X017891Y018134D02*
X018325Y018134D01*
X018226Y018233D02*
X017975Y018233D01*
X018074Y018331D02*
X018128Y018331D01*
X018180Y018923D02*
X018021Y018923D01*
X017923Y019021D02*
X018279Y019021D01*
X018377Y019120D02*
X017824Y019120D01*
X017180Y018923D02*
X016937Y018923D01*
X017035Y018824D02*
X017082Y018824D01*
X017076Y018725D02*
X017066Y018725D01*
X016631Y018528D02*
X016571Y018528D01*
X016571Y018571D02*
X016571Y018136D01*
X016408Y018136D01*
X016136Y018408D01*
X016136Y018571D01*
X016571Y018571D01*
X016571Y018627D02*
X016126Y018627D01*
X016126Y018725D02*
X016136Y018725D01*
X016120Y018824D02*
X016166Y018824D01*
X016265Y018923D02*
X016021Y018923D01*
X015923Y019021D02*
X016364Y019021D01*
X016136Y018528D02*
X016126Y018528D01*
X016126Y018430D02*
X016136Y018430D01*
X016074Y018331D02*
X016213Y018331D01*
X016311Y018233D02*
X015975Y018233D01*
X016331Y018036D02*
X017311Y018036D01*
X017227Y017937D02*
X016429Y017937D01*
X016571Y018233D02*
X016631Y018233D01*
X016631Y018331D02*
X016571Y018331D01*
X016571Y018430D02*
X016631Y018430D01*
X018061Y017543D02*
X019640Y017543D01*
X019480Y017444D02*
X018222Y017444D01*
X018308Y017346D02*
X019394Y017346D01*
X019353Y017247D02*
X018349Y017247D01*
X018371Y017149D02*
X019331Y017149D01*
X019331Y017050D02*
X018371Y017050D01*
X018348Y016952D02*
X019354Y016952D01*
X019395Y016853D02*
X018307Y016853D01*
X018219Y016755D02*
X019482Y016755D01*
X020872Y017740D02*
X021131Y017740D01*
X021131Y017795D02*
X021131Y017481D01*
X020536Y018076D01*
X020716Y018076D01*
X020855Y017936D01*
X020936Y017855D01*
X021043Y017811D01*
X021146Y017811D01*
X021131Y017795D01*
X021131Y017641D02*
X020970Y017641D01*
X021069Y017543D02*
X021131Y017543D01*
X020976Y017839D02*
X020773Y017839D01*
X020854Y017937D02*
X020674Y017937D01*
X020756Y018036D02*
X020576Y018036D01*
X020180Y018923D02*
X020021Y018923D01*
X019923Y019021D02*
X020279Y019021D01*
X020377Y019120D02*
X019824Y019120D01*
X019377Y019120D02*
X018824Y019120D01*
X018923Y019021D02*
X019279Y019021D01*
X019180Y018923D02*
X019021Y018923D01*
X019074Y018331D02*
X019128Y018331D01*
X019226Y018233D02*
X018975Y018233D01*
X018877Y018134D02*
X019325Y018134D01*
X020824Y019120D02*
X021311Y019120D01*
X021279Y019021D02*
X020923Y019021D01*
X021021Y018923D02*
X021180Y018923D01*
X018526Y022766D02*
X018346Y022766D01*
X018427Y022864D02*
X018247Y022864D01*
X018344Y022963D02*
X018149Y022963D01*
X018050Y023061D02*
X018311Y023061D01*
X018311Y023099D02*
X018101Y023309D01*
X017952Y023160D01*
X018050Y023258D02*
X018151Y023258D01*
X017250Y023160D02*
X016952Y023160D01*
X017050Y023258D02*
X017151Y023258D01*
X020050Y023258D02*
X020151Y023258D01*
M02*
