%
M48
M72
T01C0.0320
T02C0.0400
T03C0.1102
%
T01
X14951Y16501
X14951Y17501
X16101Y17601
X16101Y16601
X17901Y17101
X17601Y18601
X18601Y18601
X19601Y18601
X20601Y18601
X21601Y18601
X22601Y18601
X21601Y17601
X21601Y16601
X19801Y17101
X16601Y18601
X15601Y18601
X14601Y18601
X13601Y18601
X12601Y18601
X11601Y18601
X10601Y18601
X9601Y18601
X8101Y21101
X9601Y21601
X10601Y21601
X11601Y21601
X12601Y21601
X13601Y21601
X14601Y21601
X15601Y21601
X16601Y21601
X17601Y21601
X18601Y21601
X19601Y21601
X20601Y21601
X21601Y21601
X22601Y21601
X6101Y21101
X4201Y21451
X3201Y21451
T02
X8601Y16601
X9601Y16601
X10601Y16601
X11601Y16601
X12601Y16601
X13601Y16601
X7491Y16821
X5711Y16821
X4601Y18601
X3601Y18601
X3601Y19601
X4601Y19601
X5711Y19381
X7491Y19381
X7601Y23101
X6601Y23101
X5601Y23101
X9601Y23601
X10601Y23601
X11601Y23601
X12601Y23601
X13601Y23601
X14601Y23601
X15601Y23601
X16601Y23601
X17601Y23601
X18601Y23601
X19601Y23601
X20601Y23601
X21601Y23601
X22601Y23601
X24601Y21601
X25601Y21601
X25601Y20601
X24601Y20601
X24601Y19601
X25601Y19601
X24601Y16601
X23601Y16601
X22601Y16601
X1601Y17601
X1601Y18601
X1601Y19601
X1601Y20601
X1601Y21601
X1601Y22601
T03
X3101Y23351
X3101Y16851
X25101Y18201
X25101Y23351
M30
