G75*
G70*
%OFA0B0*%
%FSLAX24Y24*%
%IPPOS*%
%LPD*%
%AMOC8*
5,1,8,0,0,1.08239X$1,22.5*
%
%ADD10OC8,0.0630*%
%ADD11OC8,0.0660*%
%ADD12C,0.0600*%
%ADD13OC8,0.0700*%
%ADD14C,0.0700*%
%ADD15C,0.0520*%
%ADD16OC8,0.0520*%
%ADD17OC8,0.0600*%
%ADD18C,0.0160*%
%ADD19C,0.0100*%
D10*
X009601Y018601D03*
X010601Y018601D03*
X011601Y018601D03*
X012601Y018601D03*
X013601Y018601D03*
X014601Y018601D03*
X015601Y018601D03*
X016601Y018601D03*
X017601Y018601D03*
X018601Y018601D03*
X019601Y018601D03*
X020601Y018601D03*
X021601Y018601D03*
X022601Y018601D03*
X022601Y021601D03*
X021601Y021601D03*
X020601Y021601D03*
X019601Y021601D03*
X018601Y021601D03*
X017601Y021601D03*
X016601Y021601D03*
X015601Y021601D03*
X014601Y021601D03*
X013601Y021601D03*
X012601Y021601D03*
X011601Y021601D03*
X010601Y021601D03*
X009601Y021601D03*
D11*
X008101Y021101D03*
X006101Y021101D03*
X004601Y019601D03*
X003601Y019601D03*
X003601Y018601D03*
X004601Y018601D03*
X014951Y017501D03*
X014951Y016501D03*
X022601Y016601D03*
X023601Y016601D03*
X024601Y016601D03*
X024601Y019601D03*
X025601Y019601D03*
X025601Y020601D03*
X024601Y020601D03*
X024601Y021601D03*
X025601Y021601D03*
D12*
X007601Y022801D02*
X007601Y023401D01*
X006601Y023401D02*
X006601Y022801D01*
X005601Y022801D02*
X005601Y023401D01*
X005711Y019681D02*
X005711Y019081D01*
X007491Y019081D02*
X007491Y019681D01*
X007491Y017121D02*
X007491Y016521D01*
X005711Y016521D02*
X005711Y017121D01*
D13*
X008601Y016601D03*
X009601Y016601D03*
X010601Y016601D03*
X011601Y016601D03*
X012601Y016601D03*
X013601Y016601D03*
X013601Y023601D03*
X014601Y023601D03*
X015601Y023601D03*
X016601Y023601D03*
X017601Y023601D03*
X018601Y023601D03*
X019601Y023601D03*
X020601Y023601D03*
X021601Y023601D03*
X022601Y023601D03*
X012601Y023601D03*
X011601Y023601D03*
X010601Y023601D03*
X009601Y023601D03*
X004201Y021451D03*
D14*
X003201Y021451D03*
D15*
X017901Y017101D03*
X019801Y017101D03*
D16*
X021601Y017601D03*
X021601Y016601D03*
X016101Y016601D03*
X016101Y017601D03*
D17*
X001601Y017601D03*
X001601Y018601D03*
X001601Y019601D03*
X001601Y020601D03*
X001601Y021601D03*
X001601Y022601D03*
D18*
X001901Y022301D01*
X006901Y022301D01*
X008101Y021101D01*
X008501Y022101D02*
X007601Y022101D01*
X006601Y023101D01*
X006201Y022001D02*
X008801Y019401D01*
X010801Y019401D01*
X011601Y018601D01*
X011601Y018101D01*
X010601Y017101D01*
X010601Y016601D01*
X009601Y016601D02*
X009601Y017101D01*
X008601Y018101D01*
X006601Y018101D01*
X006601Y019701D01*
X005701Y020601D01*
X001601Y020601D01*
X001601Y021601D02*
X001601Y021701D01*
X001901Y022001D01*
X006201Y022001D01*
X008501Y022101D02*
X009201Y022801D01*
X014401Y022801D01*
X015601Y021601D01*
X015601Y023601D01*
X015601Y021601D02*
X016601Y020601D01*
X016601Y018601D01*
X016601Y017101D01*
X017101Y016601D01*
X021601Y016601D01*
X024001Y019001D01*
X025101Y019001D01*
X025601Y019501D01*
X025601Y019601D01*
X025601Y020601D01*
X025601Y021601D01*
X023601Y023101D02*
X023101Y023601D01*
X022601Y023601D01*
X023601Y023101D02*
X023601Y019101D01*
X023101Y018601D01*
X022601Y018601D01*
X021601Y017601D02*
X020301Y017601D01*
X019801Y017101D01*
X019301Y017101D01*
X018601Y017801D01*
X018601Y018601D01*
X016601Y017101D02*
X016101Y016601D01*
X016001Y016501D01*
X014951Y016501D01*
X010601Y018101D02*
X009601Y017101D01*
X010601Y018101D02*
X010601Y018601D01*
D19*
X001331Y017234D02*
X001331Y016331D01*
X002233Y016331D01*
X002100Y016652D01*
X002100Y017050D01*
X001331Y017050D01*
X001331Y016952D02*
X002100Y016952D01*
X002100Y017050D02*
X002252Y017418D01*
X002534Y017700D01*
X002902Y017852D01*
X003300Y017852D01*
X003668Y017700D01*
X003950Y017418D01*
X004102Y017050D01*
X004102Y016652D01*
X003969Y016331D01*
X005303Y016331D01*
X005294Y016348D01*
X005272Y016415D01*
X005261Y016485D01*
X005261Y016771D01*
X005661Y016771D01*
X005661Y016871D01*
X005661Y017568D01*
X005605Y017560D01*
X005538Y017538D01*
X005475Y017506D01*
X005418Y017464D01*
X005368Y017414D01*
X005326Y017357D01*
X005294Y017294D01*
X005272Y017226D01*
X005261Y017156D01*
X005261Y016871D01*
X005661Y016871D01*
X005761Y016871D01*
X005761Y017568D01*
X005816Y017560D01*
X005884Y017538D01*
X005947Y017506D01*
X006004Y017464D01*
X006054Y017414D01*
X006096Y017357D01*
X006128Y017294D01*
X006150Y017226D01*
X006161Y017156D01*
X006161Y016871D01*
X005761Y016871D01*
X005761Y016771D01*
X006161Y016771D01*
X006161Y016485D01*
X006150Y016415D01*
X006128Y016348D01*
X006119Y016331D01*
X007017Y016331D01*
X006981Y016419D01*
X006981Y017222D01*
X007058Y017410D01*
X007202Y017553D01*
X007389Y017631D01*
X007592Y017631D01*
X007780Y017553D01*
X007923Y017410D01*
X008001Y017222D01*
X008001Y016419D01*
X007964Y016331D01*
X008079Y016331D01*
X008041Y016369D01*
X008041Y016833D01*
X008369Y017161D01*
X008833Y017161D01*
X009101Y016893D01*
X009250Y017042D01*
X008481Y017811D01*
X006543Y017811D01*
X006436Y017855D01*
X006355Y017936D01*
X006311Y018043D01*
X006311Y018158D01*
X006311Y019581D01*
X006158Y019733D01*
X006161Y019716D01*
X006161Y019431D01*
X005761Y019431D01*
X005761Y019331D01*
X006161Y019331D01*
X006161Y019045D01*
X006150Y018975D01*
X006128Y018908D01*
X006096Y018845D01*
X006054Y018788D01*
X006004Y018738D01*
X005947Y018696D01*
X005884Y018664D01*
X005816Y018642D01*
X005761Y018633D01*
X005761Y019331D01*
X005661Y019331D01*
X005661Y018633D01*
X005605Y018642D01*
X005538Y018664D01*
X005475Y018696D01*
X005418Y018738D01*
X005368Y018788D01*
X005326Y018845D01*
X005294Y018908D01*
X005272Y018975D01*
X005261Y019045D01*
X005261Y019331D01*
X005661Y019331D01*
X005661Y019431D01*
X005661Y020128D01*
X005605Y020120D01*
X005538Y020098D01*
X005475Y020066D01*
X005418Y020024D01*
X005368Y019974D01*
X005326Y019917D01*
X005294Y019854D01*
X005272Y019786D01*
X005261Y019716D01*
X005261Y019431D01*
X005661Y019431D01*
X005761Y019431D01*
X005761Y020128D01*
X005763Y020128D01*
X005581Y020311D01*
X002032Y020311D01*
X001822Y020101D01*
X002111Y019812D01*
X002111Y019390D01*
X001812Y019091D01*
X001390Y019091D01*
X001331Y019150D01*
X001331Y018967D01*
X001414Y019051D01*
X001551Y019051D01*
X001551Y018651D01*
X001651Y018651D01*
X001651Y019051D01*
X001787Y019051D01*
X002051Y018787D01*
X002051Y018651D01*
X001651Y018651D01*
X001651Y018551D01*
X002051Y018551D01*
X002051Y018414D01*
X001787Y018151D01*
X001651Y018151D01*
X001651Y018551D01*
X001551Y018551D01*
X001551Y018151D01*
X001414Y018151D01*
X001331Y018234D01*
X001331Y017967D01*
X001414Y018051D01*
X001551Y018051D01*
X001551Y017651D01*
X001651Y017651D01*
X001651Y018051D01*
X001787Y018051D01*
X002051Y017787D01*
X002051Y017651D01*
X001651Y017651D01*
X001651Y017551D01*
X002051Y017551D01*
X002051Y017414D01*
X001787Y017151D01*
X001651Y017151D01*
X001651Y017551D01*
X001551Y017551D01*
X001551Y017151D01*
X001414Y017151D01*
X001331Y017234D01*
X001331Y017149D02*
X002141Y017149D01*
X002181Y017247D02*
X001884Y017247D01*
X001982Y017346D02*
X002222Y017346D01*
X002279Y017444D02*
X002051Y017444D01*
X002051Y017543D02*
X002377Y017543D01*
X002476Y017641D02*
X001651Y017641D01*
X001651Y017543D02*
X001551Y017543D01*
X001551Y017444D02*
X001651Y017444D01*
X001651Y017346D02*
X001551Y017346D01*
X001551Y017247D02*
X001651Y017247D01*
X001651Y017740D02*
X001551Y017740D01*
X001551Y017839D02*
X001651Y017839D01*
X001651Y017937D02*
X001551Y017937D01*
X001551Y018036D02*
X001651Y018036D01*
X001802Y018036D02*
X006314Y018036D01*
X006311Y018134D02*
X004813Y018134D01*
X004800Y018121D02*
X005081Y018402D01*
X005081Y018551D01*
X004651Y018551D01*
X004651Y018651D01*
X004551Y018651D01*
X004551Y019081D01*
X004402Y019081D01*
X004141Y018819D01*
X004141Y018824D01*
X004145Y018824D01*
X004141Y018824D02*
X003864Y019101D01*
X004141Y019377D01*
X004141Y019382D01*
X004402Y019121D01*
X004551Y019121D01*
X004551Y019551D01*
X004651Y019551D01*
X004651Y019651D01*
X004551Y019651D01*
X004551Y020081D01*
X004402Y020081D01*
X004141Y019819D01*
X004141Y019824D01*
X003824Y020141D01*
X003377Y020141D01*
X003061Y019824D01*
X003061Y019377D01*
X003337Y019101D01*
X003061Y018824D01*
X002014Y018824D01*
X002051Y018725D02*
X003061Y018725D01*
X003061Y018627D02*
X001651Y018627D01*
X001651Y018725D02*
X001551Y018725D01*
X001551Y018824D02*
X001651Y018824D01*
X001651Y018923D02*
X001551Y018923D01*
X001551Y019021D02*
X001651Y019021D01*
X001817Y019021D02*
X003257Y019021D01*
X003318Y019120D02*
X001841Y019120D01*
X001939Y019218D02*
X003220Y019218D01*
X003121Y019317D02*
X002038Y019317D01*
X002111Y019415D02*
X003061Y019415D01*
X003061Y019514D02*
X002111Y019514D01*
X002111Y019612D02*
X003061Y019612D01*
X003061Y019711D02*
X002111Y019711D01*
X002111Y019809D02*
X003061Y019809D01*
X003144Y019908D02*
X002015Y019908D01*
X001916Y020007D02*
X003243Y020007D01*
X003341Y020105D02*
X001826Y020105D01*
X001925Y020204D02*
X005688Y020204D01*
X005661Y020105D02*
X005761Y020105D01*
X005761Y020007D02*
X005661Y020007D01*
X005661Y019908D02*
X005761Y019908D01*
X005761Y019809D02*
X005661Y019809D01*
X005661Y019711D02*
X005761Y019711D01*
X005761Y019612D02*
X005661Y019612D01*
X005661Y019514D02*
X005761Y019514D01*
X005761Y019415D02*
X006311Y019415D01*
X006311Y019317D02*
X006161Y019317D01*
X006161Y019218D02*
X006311Y019218D01*
X006311Y019120D02*
X006161Y019120D01*
X006157Y019021D02*
X006311Y019021D01*
X006311Y018923D02*
X006132Y018923D01*
X006080Y018824D02*
X006311Y018824D01*
X006311Y018725D02*
X005987Y018725D01*
X005761Y018725D02*
X005661Y018725D01*
X005661Y018824D02*
X005761Y018824D01*
X005761Y018923D02*
X005661Y018923D01*
X005661Y019021D02*
X005761Y019021D01*
X005761Y019120D02*
X005661Y019120D01*
X005661Y019218D02*
X005761Y019218D01*
X005761Y019317D02*
X005661Y019317D01*
X005661Y019415D02*
X005081Y019415D01*
X005081Y019402D02*
X005081Y019551D01*
X004651Y019551D01*
X004651Y019121D01*
X004800Y019121D01*
X005081Y019402D01*
X005081Y019514D02*
X005261Y019514D01*
X005261Y019612D02*
X004651Y019612D01*
X004651Y019651D02*
X005081Y019651D01*
X005081Y019800D01*
X004800Y020081D01*
X004651Y020081D01*
X004651Y019651D01*
X004651Y019711D02*
X004551Y019711D01*
X004551Y019809D02*
X004651Y019809D01*
X004651Y019908D02*
X004551Y019908D01*
X004551Y020007D02*
X004651Y020007D01*
X004874Y020007D02*
X005400Y020007D01*
X005322Y019908D02*
X004972Y019908D01*
X005071Y019809D02*
X005279Y019809D01*
X005261Y019711D02*
X005081Y019711D01*
X004651Y019514D02*
X004551Y019514D01*
X004551Y019415D02*
X004651Y019415D01*
X004651Y019317D02*
X004551Y019317D01*
X004551Y019218D02*
X004651Y019218D01*
X004651Y019081D02*
X004651Y018651D01*
X005081Y018651D01*
X005081Y018800D01*
X004800Y019081D01*
X004651Y019081D01*
X004651Y019021D02*
X004551Y019021D01*
X004551Y018923D02*
X004651Y018923D01*
X004651Y018824D02*
X004551Y018824D01*
X004551Y018725D02*
X004651Y018725D01*
X004651Y018627D02*
X006311Y018627D01*
X006311Y018528D02*
X005081Y018528D01*
X005081Y018430D02*
X006311Y018430D01*
X006311Y018331D02*
X005010Y018331D01*
X004912Y018233D02*
X006311Y018233D01*
X006355Y017937D02*
X001901Y017937D01*
X001999Y017839D02*
X002869Y017839D01*
X002631Y017740D02*
X002051Y017740D01*
X001869Y018233D02*
X003205Y018233D01*
X003107Y018331D02*
X001968Y018331D01*
X002051Y018430D02*
X003061Y018430D01*
X003061Y018377D02*
X003377Y018061D01*
X003824Y018061D01*
X004141Y018377D01*
X004141Y018382D01*
X004402Y018121D01*
X004551Y018121D01*
X004551Y018551D01*
X004651Y018551D01*
X004651Y018121D01*
X004800Y018121D01*
X004651Y018134D02*
X004551Y018134D01*
X004551Y018233D02*
X004651Y018233D01*
X004651Y018331D02*
X004551Y018331D01*
X004551Y018430D02*
X004651Y018430D01*
X004651Y018528D02*
X004551Y018528D01*
X004290Y018233D02*
X003996Y018233D01*
X003898Y018134D02*
X004389Y018134D01*
X004191Y018331D02*
X004095Y018331D01*
X004043Y018923D02*
X004244Y018923D01*
X004342Y019021D02*
X003944Y019021D01*
X003883Y019120D02*
X005261Y019120D01*
X005261Y019218D02*
X004897Y019218D01*
X004996Y019317D02*
X005261Y019317D01*
X005265Y019021D02*
X004859Y019021D01*
X004958Y018923D02*
X005289Y018923D01*
X005341Y018824D02*
X005056Y018824D01*
X005081Y018725D02*
X005434Y018725D01*
X006161Y019514D02*
X006311Y019514D01*
X006279Y019612D02*
X006161Y019612D01*
X006161Y019711D02*
X006181Y019711D01*
X006607Y020105D02*
X007194Y020105D01*
X007202Y020113D02*
X007058Y019970D01*
X006981Y019782D01*
X006981Y018979D01*
X007058Y018792D01*
X007202Y018648D01*
X007389Y018571D01*
X007592Y018571D01*
X007780Y018648D01*
X007923Y018792D01*
X008001Y018979D01*
X008001Y019782D01*
X007995Y019797D01*
X008555Y019236D01*
X008636Y019155D01*
X008743Y019111D01*
X009368Y019111D01*
X009076Y018818D01*
X009076Y018383D01*
X009383Y018076D01*
X009818Y018076D01*
X010101Y018358D01*
X010275Y018185D01*
X009601Y017511D01*
X008765Y018347D01*
X008658Y018391D01*
X008543Y018391D01*
X006891Y018391D01*
X006891Y019758D01*
X006847Y019865D01*
X006765Y019947D01*
X006151Y020561D01*
X006324Y020561D01*
X006641Y020877D01*
X006641Y021151D01*
X007607Y020185D01*
X007592Y020191D01*
X007389Y020191D01*
X007202Y020113D01*
X007095Y020007D02*
X006705Y020007D01*
X006804Y019908D02*
X007033Y019908D01*
X006992Y019809D02*
X006870Y019809D01*
X006891Y019711D02*
X006981Y019711D01*
X006981Y019612D02*
X006891Y019612D01*
X006891Y019514D02*
X006981Y019514D01*
X006981Y019415D02*
X006891Y019415D01*
X006891Y019317D02*
X006981Y019317D01*
X006981Y019218D02*
X006891Y019218D01*
X006891Y019120D02*
X006981Y019120D01*
X006981Y019021D02*
X006891Y019021D01*
X006891Y018923D02*
X007004Y018923D01*
X007045Y018824D02*
X006891Y018824D01*
X006891Y018725D02*
X007125Y018725D01*
X007254Y018627D02*
X006891Y018627D01*
X006891Y018528D02*
X009076Y018528D01*
X009076Y018430D02*
X006891Y018430D01*
X006476Y017839D02*
X003332Y017839D01*
X003570Y017740D02*
X008551Y017740D01*
X008650Y017641D02*
X003726Y017641D01*
X003824Y017543D02*
X005554Y017543D01*
X005661Y017543D02*
X005761Y017543D01*
X005761Y017444D02*
X005661Y017444D01*
X005661Y017346D02*
X005761Y017346D01*
X005761Y017247D02*
X005661Y017247D01*
X005661Y017149D02*
X005761Y017149D01*
X005761Y017050D02*
X005661Y017050D01*
X005661Y016952D02*
X005761Y016952D01*
X005761Y016853D02*
X006981Y016853D01*
X006981Y016755D02*
X006161Y016755D01*
X006161Y016656D02*
X006981Y016656D01*
X006981Y016558D02*
X006161Y016558D01*
X006157Y016459D02*
X006981Y016459D01*
X007005Y016360D02*
X006132Y016360D01*
X006161Y016952D02*
X006981Y016952D01*
X006981Y017050D02*
X006161Y017050D01*
X006161Y017149D02*
X006981Y017149D01*
X006991Y017247D02*
X006143Y017247D01*
X006101Y017346D02*
X007032Y017346D01*
X007093Y017444D02*
X006024Y017444D01*
X005868Y017543D02*
X007192Y017543D01*
X007790Y017543D02*
X008748Y017543D01*
X008847Y017444D02*
X007888Y017444D01*
X007950Y017346D02*
X008946Y017346D01*
X009044Y017247D02*
X007990Y017247D01*
X008001Y017149D02*
X008357Y017149D01*
X008258Y017050D02*
X008001Y017050D01*
X008001Y016952D02*
X008160Y016952D01*
X008061Y016853D02*
X008001Y016853D01*
X008001Y016755D02*
X008041Y016755D01*
X008041Y016656D02*
X008001Y016656D01*
X008001Y016558D02*
X008041Y016558D01*
X008041Y016459D02*
X008001Y016459D01*
X007976Y016360D02*
X008049Y016360D01*
X008943Y017050D02*
X009241Y017050D01*
X009160Y016952D02*
X009042Y016952D01*
X009143Y017149D02*
X008845Y017149D01*
X009372Y017740D02*
X009830Y017740D01*
X009731Y017641D02*
X009470Y017641D01*
X009569Y017543D02*
X009633Y017543D01*
X009929Y017839D02*
X009273Y017839D01*
X009175Y017937D02*
X010027Y017937D01*
X010126Y018036D02*
X009076Y018036D01*
X008977Y018134D02*
X009325Y018134D01*
X009226Y018233D02*
X008879Y018233D01*
X008780Y018331D02*
X009128Y018331D01*
X009076Y018627D02*
X007728Y018627D01*
X007857Y018725D02*
X009076Y018725D01*
X009082Y018824D02*
X007936Y018824D01*
X007977Y018923D02*
X009180Y018923D01*
X009279Y019021D02*
X008001Y019021D01*
X008001Y019120D02*
X008722Y019120D01*
X008573Y019218D02*
X008001Y019218D01*
X008001Y019317D02*
X008475Y019317D01*
X008376Y019415D02*
X008001Y019415D01*
X008001Y019514D02*
X008278Y019514D01*
X008179Y019612D02*
X008001Y019612D01*
X008001Y019711D02*
X008081Y019711D01*
X008507Y020105D02*
X023311Y020105D01*
X023311Y020007D02*
X008605Y020007D01*
X008704Y019908D02*
X023311Y019908D01*
X023311Y019809D02*
X008802Y019809D01*
X008901Y019711D02*
X023311Y019711D01*
X023311Y019612D02*
X010999Y019612D01*
X010965Y019647D02*
X010858Y019691D01*
X010743Y019691D01*
X008921Y019691D01*
X008051Y020561D01*
X008324Y020561D01*
X008641Y020877D01*
X008641Y021324D01*
X008324Y021641D01*
X007971Y021641D01*
X007065Y022547D01*
X006992Y022577D01*
X007018Y022628D01*
X007040Y022695D01*
X007051Y022765D01*
X007051Y023051D01*
X006651Y023051D01*
X006651Y023151D01*
X007051Y023151D01*
X007051Y023436D01*
X007040Y023506D01*
X007018Y023574D01*
X006986Y023637D01*
X006944Y023694D01*
X006894Y023744D01*
X006837Y023786D01*
X006774Y023818D01*
X006706Y023840D01*
X006651Y023848D01*
X006651Y023151D01*
X006551Y023151D01*
X006551Y023848D01*
X006495Y023840D01*
X006428Y023818D01*
X006365Y023786D01*
X006308Y023744D01*
X006258Y023694D01*
X006216Y023637D01*
X006184Y023574D01*
X006162Y023506D01*
X006151Y023436D01*
X006151Y023151D01*
X006551Y023151D01*
X006551Y023051D01*
X006151Y023051D01*
X006151Y022765D01*
X006162Y022695D01*
X006184Y022628D01*
X006203Y022591D01*
X006066Y022591D01*
X006111Y022699D01*
X006111Y023502D01*
X006033Y023690D01*
X005890Y023833D01*
X005799Y023871D01*
X007403Y023871D01*
X007312Y023833D01*
X007168Y023690D01*
X007091Y023502D01*
X007091Y022699D01*
X007168Y022512D01*
X007312Y022368D01*
X007499Y022291D01*
X007702Y022291D01*
X007890Y022368D01*
X008033Y022512D01*
X008111Y022699D01*
X008111Y023502D01*
X008033Y023690D01*
X007890Y023833D01*
X007799Y023871D01*
X009079Y023871D01*
X009041Y023833D01*
X009041Y023369D01*
X009369Y023041D01*
X009833Y023041D01*
X010101Y023309D01*
X010369Y023041D01*
X010833Y023041D01*
X011101Y023309D01*
X011369Y023041D01*
X011833Y023041D01*
X012101Y023309D01*
X012369Y023041D01*
X012833Y023041D01*
X013101Y023309D01*
X013369Y023041D01*
X013833Y023041D01*
X014101Y023309D01*
X014369Y023041D01*
X014833Y023041D01*
X015143Y023351D01*
X015394Y023101D01*
X015551Y023101D01*
X015551Y023551D01*
X015651Y023551D01*
X015651Y023101D01*
X015808Y023101D01*
X016058Y023351D01*
X016369Y023041D01*
X016833Y023041D01*
X017101Y023309D01*
X017369Y023041D01*
X017833Y023041D01*
X018101Y023309D01*
X018369Y023041D01*
X018833Y023041D01*
X019101Y023309D01*
X019369Y023041D01*
X019833Y023041D01*
X020101Y023309D01*
X020369Y023041D01*
X020833Y023041D01*
X021101Y023309D01*
X021369Y023041D01*
X021833Y023041D01*
X022101Y023309D01*
X022369Y023041D01*
X022833Y023041D01*
X023042Y023250D01*
X023311Y022981D01*
X023311Y019221D01*
X023017Y018927D01*
X022818Y019126D01*
X022383Y019126D01*
X022101Y018843D01*
X021818Y019126D01*
X021383Y019126D01*
X021101Y018843D01*
X020818Y019126D01*
X020383Y019126D01*
X020101Y018843D01*
X019818Y019126D01*
X019383Y019126D01*
X019101Y018843D01*
X018818Y019126D01*
X018383Y019126D01*
X018101Y018843D01*
X017818Y019126D01*
X017383Y019126D01*
X017076Y018818D01*
X017076Y018383D01*
X017383Y018076D01*
X017818Y018076D01*
X018101Y018358D01*
X018311Y018148D01*
X018311Y017858D01*
X018311Y017743D01*
X018355Y017636D01*
X019055Y016936D01*
X019136Y016855D01*
X019243Y016811D01*
X019426Y016811D01*
X019535Y016702D01*
X019707Y016631D01*
X019894Y016631D01*
X020067Y016702D01*
X020199Y016835D01*
X020271Y017007D01*
X020271Y017161D01*
X020421Y017311D01*
X021226Y017311D01*
X021406Y017131D01*
X021795Y017131D01*
X022071Y017406D01*
X022071Y017795D01*
X021795Y018071D01*
X021406Y018071D01*
X021226Y017891D01*
X020358Y017891D01*
X020243Y017891D01*
X020136Y017847D01*
X019861Y017571D01*
X019707Y017571D01*
X019535Y017499D01*
X019426Y017391D01*
X019421Y017391D01*
X018891Y017921D01*
X018891Y018148D01*
X019101Y018358D01*
X019383Y018076D01*
X019818Y018076D01*
X020101Y018358D01*
X020383Y018076D01*
X020818Y018076D01*
X021101Y018358D01*
X021383Y018076D01*
X021818Y018076D01*
X022101Y018358D01*
X022383Y018076D01*
X022818Y018076D01*
X023053Y018311D01*
X023158Y018311D01*
X023265Y018355D01*
X023847Y018936D01*
X023891Y019043D01*
X023891Y019158D01*
X023891Y023043D01*
X023891Y023158D01*
X023847Y023265D01*
X023347Y023765D01*
X023265Y023847D01*
X023207Y023871D01*
X024233Y023871D01*
X024100Y023550D01*
X024100Y023152D01*
X024252Y022784D01*
X024534Y022502D01*
X024902Y022350D01*
X025300Y022350D01*
X025668Y022502D01*
X025871Y022705D01*
X025871Y022009D01*
X025800Y022081D01*
X025651Y022081D01*
X025651Y021651D01*
X025551Y021651D01*
X025551Y022081D01*
X025402Y022081D01*
X025141Y021819D01*
X025141Y021824D01*
X024824Y022141D01*
X024377Y022141D01*
X024061Y021824D01*
X024061Y021377D01*
X024337Y021101D01*
X024061Y020824D01*
X024061Y020377D01*
X024337Y020101D01*
X024061Y019824D01*
X024061Y019377D01*
X024377Y019061D01*
X024561Y019061D01*
X024534Y019050D01*
X024252Y018768D01*
X024100Y018400D01*
X024100Y018002D01*
X024252Y017634D01*
X024534Y017352D01*
X024902Y017200D01*
X025300Y017200D01*
X025668Y017352D01*
X025871Y017555D01*
X025871Y016331D01*
X025094Y016331D01*
X025141Y016377D01*
X025141Y016824D01*
X024824Y017141D01*
X024377Y017141D01*
X024101Y016864D01*
X023824Y017141D01*
X023377Y017141D01*
X023101Y016864D01*
X022824Y017141D01*
X022377Y017141D01*
X022061Y016824D01*
X022061Y016377D01*
X022107Y016331D01*
X021911Y016331D01*
X022011Y016431D01*
X022011Y016571D01*
X021631Y016571D01*
X021631Y016631D01*
X021571Y016631D01*
X021571Y017011D01*
X021431Y017011D01*
X021191Y016771D01*
X021191Y016631D01*
X021571Y016631D01*
X021571Y016571D01*
X021191Y016571D01*
X021191Y016431D01*
X021291Y016331D01*
X016411Y016331D01*
X016511Y016431D01*
X016511Y016571D01*
X016131Y016571D01*
X016131Y016631D01*
X016071Y016631D01*
X016071Y017011D01*
X015931Y017011D01*
X015691Y016771D01*
X015691Y016631D01*
X016071Y016631D01*
X016071Y016571D01*
X015691Y016571D01*
X015691Y016431D01*
X015791Y016331D01*
X015431Y016331D01*
X015431Y016471D01*
X014981Y016471D01*
X014981Y016531D01*
X015431Y016531D01*
X015431Y016700D01*
X015169Y016961D01*
X015174Y016961D01*
X015491Y017277D01*
X015491Y017724D01*
X015174Y018041D01*
X014727Y018041D01*
X014411Y017724D01*
X014411Y017277D01*
X014727Y016961D01*
X014732Y016961D01*
X014471Y016700D01*
X014471Y016531D01*
X014921Y016531D01*
X014921Y016471D01*
X014471Y016471D01*
X014471Y016331D01*
X014123Y016331D01*
X014161Y016369D01*
X014161Y016833D01*
X013833Y017161D01*
X013369Y017161D01*
X013101Y016893D01*
X012833Y017161D01*
X012369Y017161D01*
X012101Y016893D01*
X011833Y017161D01*
X011369Y017161D01*
X011101Y016893D01*
X010952Y017042D01*
X011765Y017855D01*
X011847Y017936D01*
X011891Y018043D01*
X011891Y018148D01*
X012101Y018358D01*
X012383Y018076D01*
X012818Y018076D01*
X013101Y018358D01*
X013383Y018076D01*
X013818Y018076D01*
X014101Y018358D01*
X014383Y018076D01*
X014818Y018076D01*
X015101Y018358D01*
X015383Y018076D01*
X015818Y018076D01*
X016126Y018383D01*
X016126Y018818D01*
X015818Y019126D01*
X015383Y019126D01*
X015101Y018843D01*
X014818Y019126D01*
X014383Y019126D01*
X014101Y018843D01*
X013818Y019126D01*
X013383Y019126D01*
X013101Y018843D01*
X012818Y019126D01*
X012383Y019126D01*
X012101Y018843D01*
X011818Y019126D01*
X011486Y019126D01*
X010965Y019647D01*
X011098Y019514D02*
X023311Y019514D01*
X023311Y019415D02*
X011196Y019415D01*
X011295Y019317D02*
X023311Y019317D01*
X023308Y019218D02*
X011393Y019218D01*
X011824Y019120D02*
X012377Y019120D01*
X012279Y019021D02*
X011923Y019021D01*
X012021Y018923D02*
X012180Y018923D01*
X012128Y018331D02*
X012074Y018331D01*
X011975Y018233D02*
X012226Y018233D01*
X012325Y018134D02*
X011891Y018134D01*
X011888Y018036D02*
X014722Y018036D01*
X014624Y017937D02*
X011847Y017937D01*
X011749Y017839D02*
X014525Y017839D01*
X014426Y017740D02*
X011650Y017740D01*
X011552Y017641D02*
X014411Y017641D01*
X014411Y017543D02*
X011453Y017543D01*
X011354Y017444D02*
X014411Y017444D01*
X014411Y017346D02*
X011256Y017346D01*
X011157Y017247D02*
X014441Y017247D01*
X014539Y017149D02*
X013845Y017149D01*
X013943Y017050D02*
X014638Y017050D01*
X014723Y016952D02*
X014042Y016952D01*
X014140Y016853D02*
X014624Y016853D01*
X014526Y016755D02*
X014161Y016755D01*
X014161Y016656D02*
X014471Y016656D01*
X014471Y016558D02*
X014161Y016558D01*
X014161Y016459D02*
X014471Y016459D01*
X014471Y016360D02*
X014152Y016360D01*
X013258Y017050D02*
X012943Y017050D01*
X013042Y016952D02*
X013160Y016952D01*
X013357Y017149D02*
X012845Y017149D01*
X012357Y017149D02*
X011845Y017149D01*
X011943Y017050D02*
X012258Y017050D01*
X012160Y016952D02*
X012042Y016952D01*
X011357Y017149D02*
X011059Y017149D01*
X010960Y017050D02*
X011258Y017050D01*
X011160Y016952D02*
X011042Y016952D01*
X010436Y017346D02*
X010256Y017346D01*
X010355Y017265D02*
X010311Y017158D01*
X010311Y017103D01*
X010101Y016893D01*
X009952Y017042D01*
X010847Y017936D01*
X010891Y018043D01*
X010891Y018148D01*
X011101Y018358D01*
X011275Y018185D01*
X010355Y017265D01*
X010348Y017247D02*
X010157Y017247D01*
X010059Y017149D02*
X010311Y017149D01*
X010258Y017050D02*
X009960Y017050D01*
X010042Y016952D02*
X010160Y016952D01*
X010355Y017444D02*
X010534Y017444D01*
X010453Y017543D02*
X010633Y017543D01*
X010552Y017641D02*
X010731Y017641D01*
X010650Y017740D02*
X010830Y017740D01*
X010749Y017839D02*
X010929Y017839D01*
X010847Y017937D02*
X011027Y017937D01*
X011126Y018036D02*
X010888Y018036D01*
X010891Y018134D02*
X011224Y018134D01*
X011226Y018233D02*
X010975Y018233D01*
X011074Y018331D02*
X011128Y018331D01*
X010226Y018233D02*
X009975Y018233D01*
X010074Y018331D02*
X010128Y018331D01*
X010224Y018134D02*
X009877Y018134D01*
X010101Y018843D02*
X010368Y019111D01*
X009833Y019111D01*
X010101Y018843D01*
X010180Y018923D02*
X010021Y018923D01*
X009923Y019021D02*
X010279Y019021D01*
X008408Y020204D02*
X023311Y020204D01*
X023311Y020302D02*
X008309Y020302D01*
X008211Y020401D02*
X023311Y020401D01*
X023311Y020499D02*
X008112Y020499D01*
X008361Y020598D02*
X023311Y020598D01*
X023311Y020696D02*
X008460Y020696D01*
X008559Y020795D02*
X023311Y020795D01*
X023311Y020893D02*
X008641Y020893D01*
X008641Y020992D02*
X023311Y020992D01*
X023311Y021091D02*
X022833Y021091D01*
X022818Y021076D02*
X023126Y021383D01*
X023126Y021818D01*
X022818Y022126D01*
X022383Y022126D01*
X022101Y021843D01*
X021818Y022126D01*
X021383Y022126D01*
X021101Y021843D01*
X020818Y022126D01*
X020383Y022126D01*
X020101Y021843D01*
X019818Y022126D01*
X019383Y022126D01*
X019101Y021843D01*
X018818Y022126D01*
X018383Y022126D01*
X018101Y021843D01*
X017818Y022126D01*
X017383Y022126D01*
X017101Y021843D01*
X016818Y022126D01*
X016383Y022126D01*
X016076Y021818D01*
X016076Y021383D01*
X016383Y021076D01*
X016818Y021076D01*
X017101Y021358D01*
X017383Y021076D01*
X017818Y021076D01*
X018101Y021358D01*
X018383Y021076D01*
X018818Y021076D01*
X019101Y021358D01*
X019383Y021076D01*
X019818Y021076D01*
X020101Y021358D01*
X020383Y021076D01*
X020818Y021076D01*
X021101Y021358D01*
X021383Y021076D01*
X021818Y021076D01*
X022101Y021358D01*
X022383Y021076D01*
X022818Y021076D01*
X022931Y021189D02*
X023311Y021189D01*
X023311Y021288D02*
X023030Y021288D01*
X023126Y021386D02*
X023311Y021386D01*
X023311Y021485D02*
X023126Y021485D01*
X023126Y021583D02*
X023311Y021583D01*
X023311Y021682D02*
X023126Y021682D01*
X023126Y021780D02*
X023311Y021780D01*
X023311Y021879D02*
X023065Y021879D01*
X022967Y021977D02*
X023311Y021977D01*
X023311Y022076D02*
X022868Y022076D01*
X023311Y022174D02*
X007437Y022174D01*
X007536Y022076D02*
X009334Y022076D01*
X009383Y022126D02*
X009076Y021818D01*
X009076Y021383D01*
X009383Y021076D01*
X009818Y021076D01*
X010101Y021358D01*
X010383Y021076D01*
X010818Y021076D01*
X011101Y021358D01*
X011383Y021076D01*
X011818Y021076D01*
X012101Y021358D01*
X012383Y021076D01*
X012818Y021076D01*
X013101Y021358D01*
X013383Y021076D01*
X013818Y021076D01*
X014101Y021358D01*
X014383Y021076D01*
X014818Y021076D01*
X015126Y021383D01*
X015126Y021818D01*
X014818Y022126D01*
X014383Y022126D01*
X014101Y021843D01*
X013818Y022126D01*
X013383Y022126D01*
X013101Y021843D01*
X012818Y022126D01*
X012383Y022126D01*
X012101Y021843D01*
X011818Y022126D01*
X011383Y022126D01*
X011101Y021843D01*
X010818Y022126D01*
X010383Y022126D01*
X010101Y021843D01*
X009818Y022126D01*
X009383Y022126D01*
X009235Y021977D02*
X007634Y021977D01*
X007733Y021879D02*
X009136Y021879D01*
X009076Y021780D02*
X007831Y021780D01*
X007930Y021682D02*
X009076Y021682D01*
X009076Y021583D02*
X008382Y021583D01*
X008480Y021485D02*
X009076Y021485D01*
X009076Y021386D02*
X008579Y021386D01*
X008641Y021288D02*
X009171Y021288D01*
X009270Y021189D02*
X008641Y021189D01*
X008641Y021091D02*
X009369Y021091D01*
X009833Y021091D02*
X010369Y021091D01*
X010270Y021189D02*
X009931Y021189D01*
X010030Y021288D02*
X010171Y021288D01*
X010136Y021879D02*
X010065Y021879D01*
X009967Y021977D02*
X010235Y021977D01*
X010334Y022076D02*
X009868Y022076D01*
X009853Y023061D02*
X010348Y023061D01*
X010250Y023160D02*
X009952Y023160D01*
X010050Y023258D02*
X010151Y023258D01*
X010853Y023061D02*
X011348Y023061D01*
X011250Y023160D02*
X010952Y023160D01*
X011050Y023258D02*
X011151Y023258D01*
X011853Y023061D02*
X012348Y023061D01*
X012250Y023160D02*
X011952Y023160D01*
X012050Y023258D02*
X012151Y023258D01*
X012853Y023061D02*
X013348Y023061D01*
X013250Y023160D02*
X012952Y023160D01*
X013050Y023258D02*
X013151Y023258D01*
X013853Y023061D02*
X014348Y023061D01*
X014250Y023160D02*
X013952Y023160D01*
X014050Y023258D02*
X014151Y023258D01*
X014853Y023061D02*
X016348Y023061D01*
X016250Y023160D02*
X015867Y023160D01*
X015966Y023258D02*
X016151Y023258D01*
X015651Y023258D02*
X015551Y023258D01*
X015551Y023160D02*
X015651Y023160D01*
X015651Y023357D02*
X015551Y023357D01*
X015551Y023456D02*
X015651Y023456D01*
X015335Y023160D02*
X014952Y023160D01*
X015050Y023258D02*
X015236Y023258D01*
X015143Y023850D02*
X015123Y023871D01*
X015164Y023871D01*
X015143Y023850D01*
X016038Y023871D02*
X016079Y023871D01*
X016058Y023850D01*
X016038Y023871D01*
X016952Y023160D02*
X017250Y023160D01*
X017348Y023061D02*
X016853Y023061D01*
X017050Y023258D02*
X017151Y023258D01*
X017853Y023061D02*
X018348Y023061D01*
X018250Y023160D02*
X017952Y023160D01*
X018050Y023258D02*
X018151Y023258D01*
X018853Y023061D02*
X019348Y023061D01*
X019250Y023160D02*
X018952Y023160D01*
X019050Y023258D02*
X019151Y023258D01*
X019853Y023061D02*
X020348Y023061D01*
X020250Y023160D02*
X019952Y023160D01*
X020050Y023258D02*
X020151Y023258D01*
X020853Y023061D02*
X021348Y023061D01*
X021250Y023160D02*
X020952Y023160D01*
X021050Y023258D02*
X021151Y023258D01*
X021853Y023061D02*
X022348Y023061D01*
X022250Y023160D02*
X021952Y023160D01*
X022050Y023258D02*
X022151Y023258D01*
X022853Y023061D02*
X023230Y023061D01*
X023311Y022963D02*
X008111Y022963D01*
X008111Y023061D02*
X009348Y023061D01*
X009250Y023160D02*
X008111Y023160D01*
X008111Y023258D02*
X009151Y023258D01*
X009053Y023357D02*
X008111Y023357D01*
X008111Y023456D02*
X009041Y023456D01*
X009041Y023554D02*
X008089Y023554D01*
X008048Y023653D02*
X009041Y023653D01*
X009041Y023751D02*
X007972Y023751D01*
X007850Y023850D02*
X009058Y023850D01*
X008111Y022864D02*
X023311Y022864D01*
X023311Y022766D02*
X008111Y022766D01*
X008097Y022667D02*
X023311Y022667D01*
X023311Y022569D02*
X008057Y022569D01*
X007991Y022470D02*
X023311Y022470D01*
X023311Y022372D02*
X007893Y022372D01*
X007339Y022273D02*
X023311Y022273D01*
X023891Y022273D02*
X025871Y022273D01*
X025871Y022174D02*
X023891Y022174D01*
X023891Y022076D02*
X024312Y022076D01*
X024214Y021977D02*
X023891Y021977D01*
X023891Y021879D02*
X024115Y021879D01*
X024061Y021780D02*
X023891Y021780D01*
X023891Y021682D02*
X024061Y021682D01*
X024061Y021583D02*
X023891Y021583D01*
X023891Y021485D02*
X024061Y021485D01*
X024061Y021386D02*
X023891Y021386D01*
X023891Y021288D02*
X024150Y021288D01*
X024249Y021189D02*
X023891Y021189D01*
X023891Y021091D02*
X024327Y021091D01*
X024228Y020992D02*
X023891Y020992D01*
X023891Y020893D02*
X024130Y020893D01*
X024061Y020795D02*
X023891Y020795D01*
X023891Y020696D02*
X024061Y020696D01*
X024061Y020598D02*
X023891Y020598D01*
X023891Y020499D02*
X024061Y020499D01*
X024061Y020401D02*
X023891Y020401D01*
X023891Y020302D02*
X024136Y020302D01*
X024234Y020204D02*
X023891Y020204D01*
X023891Y020105D02*
X024333Y020105D01*
X024243Y020007D02*
X023891Y020007D01*
X023891Y019908D02*
X024144Y019908D01*
X024061Y019809D02*
X023891Y019809D01*
X023891Y019711D02*
X024061Y019711D01*
X024061Y019612D02*
X023891Y019612D01*
X023891Y019514D02*
X024061Y019514D01*
X024061Y019415D02*
X023891Y019415D01*
X023891Y019317D02*
X024121Y019317D01*
X024220Y019218D02*
X023891Y019218D01*
X023891Y019120D02*
X024318Y019120D01*
X024505Y019021D02*
X023882Y019021D01*
X023833Y018923D02*
X024407Y018923D01*
X024308Y018824D02*
X023734Y018824D01*
X023636Y018725D02*
X024234Y018725D01*
X024194Y018627D02*
X023537Y018627D01*
X023439Y018528D02*
X024153Y018528D01*
X024112Y018430D02*
X023340Y018430D01*
X023208Y018331D02*
X024100Y018331D01*
X024100Y018233D02*
X022975Y018233D01*
X022877Y018134D02*
X024100Y018134D01*
X024100Y018036D02*
X021831Y018036D01*
X021877Y018134D02*
X022325Y018134D01*
X022226Y018233D02*
X021975Y018233D01*
X022074Y018331D02*
X022128Y018331D01*
X021929Y017937D02*
X024126Y017937D01*
X024167Y017839D02*
X022028Y017839D01*
X022071Y017740D02*
X024208Y017740D01*
X024249Y017641D02*
X022071Y017641D01*
X022071Y017543D02*
X024343Y017543D01*
X024441Y017444D02*
X022071Y017444D01*
X022011Y017346D02*
X024548Y017346D01*
X024786Y017247D02*
X021912Y017247D01*
X021813Y017149D02*
X025871Y017149D01*
X025871Y017247D02*
X025415Y017247D01*
X025653Y017346D02*
X025871Y017346D01*
X025871Y017444D02*
X025760Y017444D01*
X025859Y017543D02*
X025871Y017543D01*
X025871Y017050D02*
X024915Y017050D01*
X025013Y016952D02*
X025871Y016952D01*
X025871Y016853D02*
X025112Y016853D01*
X025141Y016755D02*
X025871Y016755D01*
X025871Y016656D02*
X025141Y016656D01*
X025141Y016558D02*
X025871Y016558D01*
X025871Y016459D02*
X025141Y016459D01*
X025124Y016360D02*
X025871Y016360D01*
X024287Y017050D02*
X023915Y017050D01*
X024013Y016952D02*
X024188Y016952D01*
X024101Y016337D02*
X024107Y016331D01*
X024094Y016331D01*
X024101Y016337D01*
X023107Y016331D02*
X023094Y016331D01*
X023101Y016337D01*
X023107Y016331D01*
X023188Y016952D02*
X023013Y016952D01*
X022915Y017050D02*
X023287Y017050D01*
X022287Y017050D02*
X020271Y017050D01*
X020271Y017149D02*
X021388Y017149D01*
X021290Y017247D02*
X020357Y017247D01*
X020248Y016952D02*
X021372Y016952D01*
X021273Y016853D02*
X020207Y016853D01*
X020119Y016755D02*
X021191Y016755D01*
X021191Y016656D02*
X019955Y016656D01*
X019646Y016656D02*
X018055Y016656D01*
X017994Y016631D02*
X018167Y016702D01*
X018299Y016835D01*
X018371Y017007D01*
X018371Y017194D01*
X018299Y017367D01*
X018167Y017499D01*
X017994Y017571D01*
X017807Y017571D01*
X017635Y017499D01*
X017502Y017367D01*
X017431Y017194D01*
X017431Y017007D01*
X017502Y016835D01*
X017635Y016702D01*
X017807Y016631D01*
X017994Y016631D01*
X017746Y016656D02*
X016511Y016656D01*
X016511Y016631D02*
X016511Y016771D01*
X016271Y017011D01*
X016131Y017011D01*
X016131Y016631D01*
X016511Y016631D01*
X016511Y016558D02*
X021191Y016558D01*
X021191Y016459D02*
X016511Y016459D01*
X016440Y016360D02*
X021261Y016360D01*
X021571Y016656D02*
X021631Y016656D01*
X021631Y016631D02*
X021631Y017011D01*
X021771Y017011D01*
X022011Y016771D01*
X022011Y016631D01*
X021631Y016631D01*
X021631Y016755D02*
X021571Y016755D01*
X021571Y016853D02*
X021631Y016853D01*
X021631Y016952D02*
X021571Y016952D01*
X021830Y016952D02*
X022188Y016952D01*
X022090Y016853D02*
X021928Y016853D01*
X022011Y016755D02*
X022061Y016755D01*
X022061Y016656D02*
X022011Y016656D01*
X022011Y016558D02*
X022061Y016558D01*
X022061Y016459D02*
X022011Y016459D01*
X022077Y016360D02*
X021940Y016360D01*
X021273Y017937D02*
X018891Y017937D01*
X018891Y018036D02*
X021371Y018036D01*
X021325Y018134D02*
X020877Y018134D01*
X020975Y018233D02*
X021226Y018233D01*
X021128Y018331D02*
X021074Y018331D01*
X021021Y018923D02*
X021180Y018923D01*
X021279Y019021D02*
X020923Y019021D01*
X020824Y019120D02*
X021377Y019120D01*
X021824Y019120D02*
X022377Y019120D01*
X022279Y019021D02*
X021923Y019021D01*
X022021Y018923D02*
X022180Y018923D01*
X022824Y019120D02*
X023210Y019120D01*
X023111Y019021D02*
X022923Y019021D01*
X024864Y020101D02*
X025141Y020377D01*
X025141Y020382D01*
X025402Y020121D01*
X025551Y020121D01*
X025551Y020551D01*
X025651Y020551D01*
X025651Y020121D01*
X025800Y020121D01*
X025871Y020192D01*
X025871Y020009D01*
X025800Y020081D01*
X025651Y020081D01*
X025651Y019651D01*
X025551Y019651D01*
X025551Y020081D01*
X025402Y020081D01*
X025141Y019819D01*
X025141Y019824D01*
X024864Y020101D01*
X024869Y020105D02*
X025871Y020105D01*
X025651Y020007D02*
X025551Y020007D01*
X025551Y019908D02*
X025651Y019908D01*
X025651Y019809D02*
X025551Y019809D01*
X025551Y019711D02*
X025651Y019711D01*
X025651Y019551D02*
X025651Y019121D01*
X025800Y019121D01*
X025871Y019192D01*
X025871Y018847D01*
X025668Y019050D01*
X025496Y019121D01*
X025551Y019121D01*
X025551Y019551D01*
X025651Y019551D01*
X025651Y019514D02*
X025551Y019514D01*
X025551Y019415D02*
X025651Y019415D01*
X025651Y019317D02*
X025551Y019317D01*
X025551Y019218D02*
X025651Y019218D01*
X025499Y019120D02*
X025871Y019120D01*
X025871Y019021D02*
X025696Y019021D01*
X025795Y018923D02*
X025871Y018923D01*
X025336Y019187D02*
X025300Y019202D01*
X024966Y019202D01*
X025141Y019377D01*
X025141Y019382D01*
X025336Y019187D01*
X025305Y019218D02*
X024982Y019218D01*
X025080Y019317D02*
X025206Y019317D01*
X025229Y019908D02*
X025057Y019908D01*
X024959Y020007D02*
X025328Y020007D01*
X025319Y020204D02*
X024967Y020204D01*
X025066Y020302D02*
X025221Y020302D01*
X025551Y020302D02*
X025651Y020302D01*
X025651Y020204D02*
X025551Y020204D01*
X025551Y020401D02*
X025651Y020401D01*
X025651Y020499D02*
X025551Y020499D01*
X025551Y020651D02*
X025551Y021081D01*
X025402Y021081D01*
X025141Y020819D01*
X025141Y020824D01*
X024864Y021101D01*
X025141Y021377D01*
X025141Y021382D01*
X025402Y021121D01*
X025551Y021121D01*
X025551Y021551D01*
X025651Y021551D01*
X025651Y021121D01*
X025800Y021121D01*
X025871Y021192D01*
X025871Y021009D01*
X025800Y021081D01*
X025651Y021081D01*
X025651Y020651D01*
X025551Y020651D01*
X025551Y020696D02*
X025651Y020696D01*
X025651Y020795D02*
X025551Y020795D01*
X025551Y020893D02*
X025651Y020893D01*
X025651Y020992D02*
X025551Y020992D01*
X025551Y021189D02*
X025651Y021189D01*
X025651Y021288D02*
X025551Y021288D01*
X025551Y021386D02*
X025651Y021386D01*
X025651Y021485D02*
X025551Y021485D01*
X025551Y021682D02*
X025651Y021682D01*
X025651Y021780D02*
X025551Y021780D01*
X025551Y021879D02*
X025651Y021879D01*
X025651Y021977D02*
X025551Y021977D01*
X025551Y022076D02*
X025651Y022076D01*
X025804Y022076D02*
X025871Y022076D01*
X025871Y022372D02*
X025353Y022372D01*
X025591Y022470D02*
X025871Y022470D01*
X025871Y022569D02*
X025734Y022569D01*
X025833Y022667D02*
X025871Y022667D01*
X025397Y022076D02*
X024889Y022076D01*
X024988Y021977D02*
X025299Y021977D01*
X025200Y021879D02*
X025086Y021879D01*
X024849Y022372D02*
X023891Y022372D01*
X023891Y022470D02*
X024611Y022470D01*
X024467Y022569D02*
X023891Y022569D01*
X023891Y022667D02*
X024368Y022667D01*
X024270Y022766D02*
X023891Y022766D01*
X023891Y022864D02*
X024219Y022864D01*
X024178Y022963D02*
X023891Y022963D01*
X023891Y023061D02*
X024137Y023061D01*
X024100Y023160D02*
X023890Y023160D01*
X023849Y023258D02*
X024100Y023258D01*
X024100Y023357D02*
X023755Y023357D01*
X023656Y023456D02*
X024100Y023456D01*
X024101Y023554D02*
X023558Y023554D01*
X023459Y023653D02*
X024142Y023653D01*
X024183Y023751D02*
X023360Y023751D01*
X023347Y023765D02*
X023347Y023765D01*
X023258Y023850D02*
X024224Y023850D01*
X023131Y023160D02*
X022952Y023160D01*
X022334Y022076D02*
X021868Y022076D01*
X021967Y021977D02*
X022235Y021977D01*
X022136Y021879D02*
X022065Y021879D01*
X022030Y021288D02*
X022171Y021288D01*
X022270Y021189D02*
X021931Y021189D01*
X021833Y021091D02*
X022369Y021091D01*
X021369Y021091D02*
X020833Y021091D01*
X020931Y021189D02*
X021270Y021189D01*
X021171Y021288D02*
X021030Y021288D01*
X021065Y021879D02*
X021136Y021879D01*
X021235Y021977D02*
X020967Y021977D01*
X020868Y022076D02*
X021334Y022076D01*
X020334Y022076D02*
X019868Y022076D01*
X019967Y021977D02*
X020235Y021977D01*
X020136Y021879D02*
X020065Y021879D01*
X020030Y021288D02*
X020171Y021288D01*
X020270Y021189D02*
X019931Y021189D01*
X019833Y021091D02*
X020369Y021091D01*
X019369Y021091D02*
X018833Y021091D01*
X018931Y021189D02*
X019270Y021189D01*
X019171Y021288D02*
X019030Y021288D01*
X019065Y021879D02*
X019136Y021879D01*
X019235Y021977D02*
X018967Y021977D01*
X018868Y022076D02*
X019334Y022076D01*
X018334Y022076D02*
X017868Y022076D01*
X017967Y021977D02*
X018235Y021977D01*
X018136Y021879D02*
X018065Y021879D01*
X018030Y021288D02*
X018171Y021288D01*
X018270Y021189D02*
X017931Y021189D01*
X017833Y021091D02*
X018369Y021091D01*
X017369Y021091D02*
X016833Y021091D01*
X016931Y021189D02*
X017270Y021189D01*
X017171Y021288D02*
X017030Y021288D01*
X017065Y021879D02*
X017136Y021879D01*
X017235Y021977D02*
X016967Y021977D01*
X016868Y022076D02*
X017334Y022076D01*
X016334Y022076D02*
X014868Y022076D01*
X014967Y021977D02*
X015320Y021977D01*
X015408Y022066D02*
X015136Y021793D01*
X015136Y021631D01*
X015571Y021631D01*
X015571Y022066D01*
X015408Y022066D01*
X015571Y021977D02*
X015631Y021977D01*
X015631Y022066D02*
X015793Y022066D01*
X016066Y021793D01*
X016066Y021631D01*
X015631Y021631D01*
X015631Y021571D01*
X016066Y021571D01*
X016066Y021408D01*
X015793Y021136D01*
X015631Y021136D01*
X015631Y021571D01*
X015571Y021571D01*
X015571Y021136D01*
X015408Y021136D01*
X015136Y021408D01*
X015136Y021571D01*
X015571Y021571D01*
X015571Y021631D01*
X015631Y021631D01*
X015631Y022066D01*
X015631Y021879D02*
X015571Y021879D01*
X015571Y021780D02*
X015631Y021780D01*
X015631Y021682D02*
X015571Y021682D01*
X015571Y021583D02*
X015126Y021583D01*
X015126Y021485D02*
X015136Y021485D01*
X015126Y021386D02*
X015158Y021386D01*
X015256Y021288D02*
X015030Y021288D01*
X014931Y021189D02*
X015355Y021189D01*
X015571Y021189D02*
X015631Y021189D01*
X015631Y021288D02*
X015571Y021288D01*
X015571Y021386D02*
X015631Y021386D01*
X015631Y021485D02*
X015571Y021485D01*
X015631Y021583D02*
X016076Y021583D01*
X016066Y021485D02*
X016076Y021485D01*
X016076Y021386D02*
X016044Y021386D01*
X015945Y021288D02*
X016171Y021288D01*
X016270Y021189D02*
X015847Y021189D01*
X016369Y021091D02*
X014833Y021091D01*
X014369Y021091D02*
X013833Y021091D01*
X013931Y021189D02*
X014270Y021189D01*
X014171Y021288D02*
X014030Y021288D01*
X014065Y021879D02*
X014136Y021879D01*
X014235Y021977D02*
X013967Y021977D01*
X013868Y022076D02*
X014334Y022076D01*
X015065Y021879D02*
X015221Y021879D01*
X015136Y021780D02*
X015126Y021780D01*
X015126Y021682D02*
X015136Y021682D01*
X015882Y021977D02*
X016235Y021977D01*
X016136Y021879D02*
X015980Y021879D01*
X016066Y021780D02*
X016076Y021780D01*
X016066Y021682D02*
X016076Y021682D01*
X013334Y022076D02*
X012868Y022076D01*
X012967Y021977D02*
X013235Y021977D01*
X013136Y021879D02*
X013065Y021879D01*
X013030Y021288D02*
X013171Y021288D01*
X013270Y021189D02*
X012931Y021189D01*
X012833Y021091D02*
X013369Y021091D01*
X012369Y021091D02*
X011833Y021091D01*
X011931Y021189D02*
X012270Y021189D01*
X012171Y021288D02*
X012030Y021288D01*
X012065Y021879D02*
X012136Y021879D01*
X012235Y021977D02*
X011967Y021977D01*
X011868Y022076D02*
X012334Y022076D01*
X011334Y022076D02*
X010868Y022076D01*
X010967Y021977D02*
X011235Y021977D01*
X011136Y021879D02*
X011065Y021879D01*
X011030Y021288D02*
X011171Y021288D01*
X011270Y021189D02*
X010931Y021189D01*
X010833Y021091D02*
X011369Y021091D01*
X012824Y019120D02*
X013377Y019120D01*
X013279Y019021D02*
X012923Y019021D01*
X013021Y018923D02*
X013180Y018923D01*
X013824Y019120D02*
X014377Y019120D01*
X014279Y019021D02*
X013923Y019021D01*
X014021Y018923D02*
X014180Y018923D01*
X014128Y018331D02*
X014074Y018331D01*
X013975Y018233D02*
X014226Y018233D01*
X014325Y018134D02*
X013877Y018134D01*
X013325Y018134D02*
X012877Y018134D01*
X012975Y018233D02*
X013226Y018233D01*
X013128Y018331D02*
X013074Y018331D01*
X014877Y018134D02*
X015325Y018134D01*
X015226Y018233D02*
X014975Y018233D01*
X015074Y018331D02*
X015128Y018331D01*
X015179Y018036D02*
X015871Y018036D01*
X015906Y018071D02*
X015631Y017795D01*
X015631Y017406D01*
X015906Y017131D01*
X016295Y017131D01*
X016571Y017406D01*
X016571Y017795D01*
X016295Y018071D01*
X015906Y018071D01*
X015877Y018134D02*
X017325Y018134D01*
X017226Y018233D02*
X016890Y018233D01*
X016793Y018136D02*
X017066Y018408D01*
X017066Y018571D01*
X016631Y018571D01*
X016631Y018631D01*
X017066Y018631D01*
X017066Y018793D01*
X016793Y019066D01*
X016631Y019066D01*
X016631Y018631D01*
X016571Y018631D01*
X016571Y019066D01*
X016408Y019066D01*
X016136Y018793D01*
X016136Y018631D01*
X016571Y018631D01*
X016571Y018571D01*
X016631Y018571D01*
X016631Y018136D01*
X016793Y018136D01*
X016631Y018233D02*
X016571Y018233D01*
X016571Y018136D02*
X016571Y018571D01*
X016136Y018571D01*
X016136Y018408D01*
X016408Y018136D01*
X016571Y018136D01*
X016571Y018331D02*
X016631Y018331D01*
X016631Y018430D02*
X016571Y018430D01*
X016571Y018528D02*
X016631Y018528D01*
X016631Y018627D02*
X017076Y018627D01*
X017066Y018725D02*
X017076Y018725D01*
X017082Y018824D02*
X017035Y018824D01*
X016937Y018923D02*
X017180Y018923D01*
X017279Y019021D02*
X016838Y019021D01*
X016631Y019021D02*
X016571Y019021D01*
X016571Y018923D02*
X016631Y018923D01*
X016631Y018824D02*
X016571Y018824D01*
X016571Y018725D02*
X016631Y018725D01*
X016571Y018627D02*
X016126Y018627D01*
X016126Y018725D02*
X016136Y018725D01*
X016120Y018824D02*
X016166Y018824D01*
X016265Y018923D02*
X016021Y018923D01*
X015923Y019021D02*
X016364Y019021D01*
X016136Y018528D02*
X016126Y018528D01*
X016126Y018430D02*
X016136Y018430D01*
X016074Y018331D02*
X016213Y018331D01*
X016311Y018233D02*
X015975Y018233D01*
X015772Y017937D02*
X015278Y017937D01*
X015377Y017839D02*
X015674Y017839D01*
X015631Y017740D02*
X015475Y017740D01*
X015491Y017641D02*
X015631Y017641D01*
X015631Y017543D02*
X015491Y017543D01*
X015491Y017444D02*
X015631Y017444D01*
X015691Y017346D02*
X015491Y017346D01*
X015461Y017247D02*
X015790Y017247D01*
X015888Y017149D02*
X015362Y017149D01*
X015264Y017050D02*
X017431Y017050D01*
X017431Y017149D02*
X016313Y017149D01*
X016412Y017247D02*
X017453Y017247D01*
X017494Y017346D02*
X016511Y017346D01*
X016571Y017444D02*
X017580Y017444D01*
X017740Y017543D02*
X016571Y017543D01*
X016571Y017641D02*
X018353Y017641D01*
X018312Y017740D02*
X016571Y017740D01*
X016528Y017839D02*
X018311Y017839D01*
X018311Y017937D02*
X016429Y017937D01*
X016331Y018036D02*
X018311Y018036D01*
X018311Y018134D02*
X017877Y018134D01*
X017975Y018233D02*
X018226Y018233D01*
X018128Y018331D02*
X018074Y018331D01*
X018021Y018923D02*
X018180Y018923D01*
X018279Y019021D02*
X017923Y019021D01*
X017824Y019120D02*
X018377Y019120D01*
X018824Y019120D02*
X019377Y019120D01*
X019279Y019021D02*
X018923Y019021D01*
X019021Y018923D02*
X019180Y018923D01*
X019128Y018331D02*
X019074Y018331D01*
X018975Y018233D02*
X019226Y018233D01*
X019325Y018134D02*
X018891Y018134D01*
X018973Y017839D02*
X020129Y017839D01*
X020030Y017740D02*
X019072Y017740D01*
X019170Y017641D02*
X019931Y017641D01*
X019640Y017543D02*
X019269Y017543D01*
X019367Y017444D02*
X019480Y017444D01*
X019040Y016952D02*
X018348Y016952D01*
X018371Y017050D02*
X018941Y017050D01*
X018843Y017149D02*
X018371Y017149D01*
X018349Y017247D02*
X018744Y017247D01*
X018646Y017346D02*
X018308Y017346D01*
X018222Y017444D02*
X018547Y017444D01*
X018448Y017543D02*
X018061Y017543D01*
X018307Y016853D02*
X019141Y016853D01*
X019482Y016755D02*
X018219Y016755D01*
X017582Y016755D02*
X016511Y016755D01*
X016428Y016853D02*
X017495Y016853D01*
X017454Y016952D02*
X016330Y016952D01*
X016131Y016952D02*
X016071Y016952D01*
X016071Y016853D02*
X016131Y016853D01*
X016131Y016755D02*
X016071Y016755D01*
X016071Y016656D02*
X016131Y016656D01*
X015872Y016952D02*
X015179Y016952D01*
X015277Y016853D02*
X015773Y016853D01*
X015691Y016755D02*
X015376Y016755D01*
X015431Y016656D02*
X015691Y016656D01*
X015691Y016558D02*
X015431Y016558D01*
X015431Y016459D02*
X015691Y016459D01*
X015761Y016360D02*
X015431Y016360D01*
X016989Y018331D02*
X017128Y018331D01*
X017076Y018430D02*
X017066Y018430D01*
X017066Y018528D02*
X017076Y018528D01*
X017377Y019120D02*
X015824Y019120D01*
X015377Y019120D02*
X014824Y019120D01*
X014923Y019021D02*
X015279Y019021D01*
X015180Y018923D02*
X015021Y018923D01*
X019824Y019120D02*
X020377Y019120D01*
X020279Y019021D02*
X019923Y019021D01*
X020021Y018923D02*
X020180Y018923D01*
X020128Y018331D02*
X020074Y018331D01*
X019975Y018233D02*
X020226Y018233D01*
X020325Y018134D02*
X019877Y018134D01*
X024875Y021091D02*
X025871Y021091D01*
X025868Y021189D02*
X025871Y021189D01*
X025334Y021189D02*
X024953Y021189D01*
X025051Y021288D02*
X025235Y021288D01*
X025313Y020992D02*
X024973Y020992D01*
X025072Y020893D02*
X025215Y020893D01*
X007588Y020204D02*
X006508Y020204D01*
X006409Y020302D02*
X007489Y020302D01*
X007391Y020401D02*
X006311Y020401D01*
X006212Y020499D02*
X007292Y020499D01*
X007194Y020598D02*
X006361Y020598D01*
X006460Y020696D02*
X007095Y020696D01*
X006997Y020795D02*
X006559Y020795D01*
X006641Y020893D02*
X006898Y020893D01*
X006799Y020992D02*
X006641Y020992D01*
X006641Y021091D02*
X006701Y021091D01*
X007127Y021485D02*
X007307Y021485D01*
X007225Y021386D02*
X007405Y021386D01*
X007324Y021288D02*
X007504Y021288D01*
X007561Y021231D02*
X007561Y021051D01*
X006601Y022011D01*
X006781Y022011D01*
X007561Y021231D01*
X007561Y021189D02*
X007423Y021189D01*
X007521Y021091D02*
X007561Y021091D01*
X007208Y021583D02*
X007028Y021583D01*
X007110Y021682D02*
X006930Y021682D01*
X007011Y021780D02*
X006831Y021780D01*
X006913Y021879D02*
X006733Y021879D01*
X006814Y021977D02*
X006634Y021977D01*
X006151Y021641D02*
X005877Y021641D01*
X005561Y021324D01*
X005561Y020891D01*
X002032Y020891D01*
X001822Y021101D01*
X002111Y021390D01*
X002111Y021711D01*
X002702Y021711D01*
X002641Y021562D01*
X002641Y021339D01*
X002726Y021134D01*
X002884Y020976D01*
X003089Y020891D01*
X003312Y020891D01*
X003518Y020976D01*
X003676Y021134D01*
X003715Y021229D01*
X003994Y020951D01*
X004171Y020951D01*
X004171Y021421D01*
X004231Y021421D01*
X004231Y021481D01*
X004701Y021481D01*
X004701Y021658D01*
X004648Y021711D01*
X006081Y021711D01*
X006151Y021641D01*
X006110Y021682D02*
X004677Y021682D01*
X004701Y021583D02*
X005820Y021583D01*
X005721Y021485D02*
X004701Y021485D01*
X004701Y021421D02*
X004231Y021421D01*
X004231Y020951D01*
X004408Y020951D01*
X004701Y021244D01*
X004701Y021421D01*
X004701Y021386D02*
X005623Y021386D01*
X005561Y021288D02*
X004701Y021288D01*
X004646Y021189D02*
X005561Y021189D01*
X005561Y021091D02*
X004548Y021091D01*
X004449Y020992D02*
X005561Y020992D01*
X005561Y020893D02*
X003319Y020893D01*
X003083Y020893D02*
X002029Y020893D01*
X001931Y020992D02*
X002868Y020992D01*
X002769Y021091D02*
X001832Y021091D01*
X001910Y021189D02*
X002703Y021189D01*
X002662Y021288D02*
X002009Y021288D01*
X002107Y021386D02*
X002641Y021386D01*
X002641Y021485D02*
X002111Y021485D01*
X002111Y021583D02*
X002650Y021583D01*
X002690Y021682D02*
X002111Y021682D01*
X001380Y022101D02*
X001331Y022052D01*
X001331Y022150D01*
X001380Y022101D01*
X001355Y022076D02*
X001331Y022076D01*
X002111Y022591D02*
X002111Y022812D01*
X001812Y023111D01*
X001390Y023111D01*
X001331Y023052D01*
X001331Y023871D01*
X002233Y023871D01*
X002100Y023550D01*
X002100Y023152D01*
X002252Y022784D01*
X002445Y022591D01*
X002111Y022591D01*
X002111Y022667D02*
X002368Y022667D01*
X002270Y022766D02*
X002111Y022766D01*
X002058Y022864D02*
X002219Y022864D01*
X002178Y022963D02*
X001960Y022963D01*
X001861Y023061D02*
X002137Y023061D01*
X002100Y023160D02*
X001331Y023160D01*
X001331Y023258D02*
X002100Y023258D01*
X002100Y023357D02*
X001331Y023357D01*
X001331Y023456D02*
X002100Y023456D01*
X002101Y023554D02*
X001331Y023554D01*
X001331Y023653D02*
X002142Y023653D01*
X002183Y023751D02*
X001331Y023751D01*
X001331Y023850D02*
X002224Y023850D01*
X001340Y023061D02*
X001331Y023061D01*
X001331Y021150D02*
X001380Y021101D01*
X001331Y021052D01*
X001331Y021150D01*
X001331Y021091D02*
X001369Y021091D01*
X002023Y020302D02*
X005589Y020302D01*
X005560Y020105D02*
X003860Y020105D01*
X003959Y020007D02*
X004328Y020007D01*
X004229Y019908D02*
X004057Y019908D01*
X004080Y019317D02*
X004206Y019317D01*
X004305Y019218D02*
X003982Y019218D01*
X003159Y018923D02*
X001915Y018923D01*
X002051Y018528D02*
X003061Y018528D01*
X003061Y018377D02*
X003061Y018824D01*
X003304Y018134D02*
X001331Y018134D01*
X001331Y018036D02*
X001399Y018036D01*
X001331Y018233D02*
X001332Y018233D01*
X001551Y018233D02*
X001651Y018233D01*
X001651Y018331D02*
X001551Y018331D01*
X001551Y018430D02*
X001651Y018430D01*
X001651Y018528D02*
X001551Y018528D01*
X001385Y019021D02*
X001331Y019021D01*
X001331Y019120D02*
X001361Y019120D01*
X001331Y020052D02*
X001380Y020101D01*
X001331Y020150D01*
X001331Y020052D01*
X001331Y020105D02*
X001375Y020105D01*
X003534Y020992D02*
X003952Y020992D01*
X003854Y021091D02*
X003632Y021091D01*
X003698Y021189D02*
X003755Y021189D01*
X004171Y021189D02*
X004231Y021189D01*
X004231Y021091D02*
X004171Y021091D01*
X004171Y020992D02*
X004231Y020992D01*
X004231Y021288D02*
X004171Y021288D01*
X004171Y021386D02*
X004231Y021386D01*
X003754Y021711D02*
X003715Y021672D01*
X003699Y021711D01*
X003754Y021711D01*
X003725Y021682D02*
X003711Y021682D01*
X003757Y022591D02*
X003950Y022784D01*
X004102Y023152D01*
X004102Y023550D01*
X003969Y023871D01*
X005403Y023871D01*
X005312Y023833D01*
X005168Y023690D01*
X005091Y023502D01*
X005091Y022699D01*
X005136Y022591D01*
X003757Y022591D01*
X003833Y022667D02*
X005104Y022667D01*
X005091Y022766D02*
X003932Y022766D01*
X003983Y022864D02*
X005091Y022864D01*
X005091Y022963D02*
X004024Y022963D01*
X004065Y023061D02*
X005091Y023061D01*
X005091Y023160D02*
X004102Y023160D01*
X004102Y023258D02*
X005091Y023258D01*
X005091Y023357D02*
X004102Y023357D01*
X004102Y023456D02*
X005091Y023456D01*
X005112Y023554D02*
X004100Y023554D01*
X004059Y023653D02*
X005153Y023653D01*
X005230Y023751D02*
X004019Y023751D01*
X003978Y023850D02*
X005352Y023850D01*
X005850Y023850D02*
X007352Y023850D01*
X007230Y023751D02*
X006884Y023751D01*
X006974Y023653D02*
X007153Y023653D01*
X007112Y023554D02*
X007024Y023554D01*
X007048Y023456D02*
X007091Y023456D01*
X007091Y023357D02*
X007051Y023357D01*
X007051Y023258D02*
X007091Y023258D01*
X007091Y023160D02*
X007051Y023160D01*
X007091Y023061D02*
X006651Y023061D01*
X006651Y023160D02*
X006551Y023160D01*
X006551Y023258D02*
X006651Y023258D01*
X006651Y023357D02*
X006551Y023357D01*
X006551Y023456D02*
X006651Y023456D01*
X006651Y023554D02*
X006551Y023554D01*
X006551Y023653D02*
X006651Y023653D01*
X006651Y023751D02*
X006551Y023751D01*
X006318Y023751D02*
X005972Y023751D01*
X006048Y023653D02*
X006228Y023653D01*
X006177Y023554D02*
X006089Y023554D01*
X006111Y023456D02*
X006154Y023456D01*
X006151Y023357D02*
X006111Y023357D01*
X006111Y023258D02*
X006151Y023258D01*
X006151Y023160D02*
X006111Y023160D01*
X006111Y023061D02*
X006551Y023061D01*
X006151Y022963D02*
X006111Y022963D01*
X006111Y022864D02*
X006151Y022864D01*
X006151Y022766D02*
X006111Y022766D01*
X006097Y022667D02*
X006171Y022667D01*
X007012Y022569D02*
X007145Y022569D01*
X007142Y022470D02*
X007210Y022470D01*
X007240Y022372D02*
X007309Y022372D01*
X007104Y022667D02*
X007031Y022667D01*
X007051Y022766D02*
X007091Y022766D01*
X007091Y022864D02*
X007051Y022864D01*
X007051Y022963D02*
X007091Y022963D01*
X005398Y017444D02*
X003923Y017444D01*
X003979Y017346D02*
X005320Y017346D01*
X005279Y017247D02*
X004020Y017247D01*
X004061Y017149D02*
X005261Y017149D01*
X005261Y017050D02*
X004102Y017050D01*
X004102Y016952D02*
X005261Y016952D01*
X005261Y016755D02*
X004102Y016755D01*
X004102Y016853D02*
X005661Y016853D01*
X005261Y016656D02*
X004102Y016656D01*
X004063Y016558D02*
X005261Y016558D01*
X005265Y016459D02*
X004022Y016459D01*
X003981Y016360D02*
X005290Y016360D01*
X002220Y016360D02*
X001331Y016360D01*
X001331Y016459D02*
X002179Y016459D01*
X002139Y016558D02*
X001331Y016558D01*
X001331Y016656D02*
X002100Y016656D01*
X002100Y016755D02*
X001331Y016755D01*
X001331Y016853D02*
X002100Y016853D01*
M02*
